<?xml version="1.0" encoding="utf-8"?>
<!-- Generator: Adobe Illustrator 19.0.0, SVG Export Plug-In . SVG Version: 6.00 Build 0)  -->
<svg version="1.1" id="Layer_1" xmlns="http://www.w3.org/2000/svg" xmlns:xlink="http://www.w3.org/1999/xlink" x="0px" y="0px"
	 viewBox="-105 321.3 400 150.7" style="enable-background:new -105 321.3 400 150.7;" xml:space="preserve">
<style type="text/css">
	.st0{fill:#022169;}
	.st1{fill:#FFFFFF;}
	.st2{fill:#CF0A2C;}
	.st3{fill-rule:evenodd;clip-rule:evenodd;fill:#FFFFFF;}
	.st4{fill-rule:evenodd;clip-rule:evenodd;fill:#022169;}
</style>
<rect id="XMLID_566_" x="-80.3" y="324.9" class="st0" width="2.5" height="136"/>
<g>
	<path id="XMLID_563_" class="st1" d="M-65.4,377.5h7.3c6.5,0,10.2,3.3,10.2,10.1c0,7.1-3.1,11.1-10.2,11.1h-7.3V377.5z
		 M-62.6,396.3h4.7c1.9,0,7.1-0.5,7.1-8.3c0-5-1.9-8.1-7-8.1h-4.7V396.3z"/>
	<path id="XMLID_560_" class="st1" d="M-32.5,393.8c-0.7,3.4-3.1,5.2-6.5,5.2c-4.9,0-7.2-3.4-7.3-8.1c0-4.6,3-8,7.2-8
		c5.4,0,7.1,5.1,6.9,8.8h-11.5c-0.1,2.7,1.4,5,4.8,5c2.1,0,3.5-1,4-3H-32.5z M-34.9,389.5c-0.1-2.4-1.9-4.3-4.4-4.3
		c-2.6,0-4.2,2-4.4,4.3H-34.9z"/>
	<path id="XMLID_557_" class="st1" d="M-30.2,383.4h2.5v2.1h0.1c0.8-1.7,2.8-2.4,4.9-2.4c4.7,0,7,3.7,7,8.1c0,4.3-2.3,8-7,8
		c-1.6,0-3.8-0.6-4.9-2.4h-0.1v7.9h-2.5V383.4z M-23,385.2c-3.4,0-4.7,2.9-4.7,5.8c0,3,1.4,5.8,4.8,5.8c3.4,0,4.6-2.9,4.6-5.9
		C-18.3,388-19.8,385.2-23,385.2"/>
	<path id="XMLID_554_" class="st1" d="M0.1,398.6c-0.4,0.3-1,0.4-1.8,0.4c-1.3,0-2.1-0.7-2.1-2.4c-1.4,1.6-3.3,2.4-5.4,2.4
		c-2.8,0-5.1-1.2-5.1-4.3c0-3.5,2.6-4.2,5.2-4.7c2.8-0.5,5.2-0.4,5.2-2.3c0-2.2-1.8-2.5-3.4-2.5c-2.1,0-3.7,0.7-3.8,2.9h-2.5
		c0.1-3.8,3.1-5.1,6.5-5.1c2.8,0,5.7,0.6,5.7,4.2v7.9c0,1.2,0,1.7,0.8,1.7c0.2,0,0.4,0,0.8-0.1V398.6z M-4,390.8
		c-1,0.7-2.9,0.7-4.6,1c-1.7,0.3-3.1,0.9-3.1,2.8c0,1.7,1.4,2.3,3,2.3c3.3,0,4.7-2.1,4.7-3.5V390.8z"/>
	<path id="XMLID_553_" class="st1" d="M1.8,383.4h2.4v3.2h0.1c1.2-2.5,2.9-3.7,5.6-3.6v2.7c-4.1,0-5.5,2.3-5.5,6.2v6.8H1.8V383.4z"
		/>
	<path id="XMLID_552_" class="st1" d="M15.6,383.4h3.1v2.2h-3.1v9.5c0,1.2,0.3,1.4,1.9,1.4h1.2v2.2h-1.9c-2.6,0-3.6-0.5-3.6-3.3
		v-9.7h-2.6v-2.2h2.6v-4.6h2.5V383.4z"/>
	<path id="XMLID_551_" class="st1" d="M20.6,383.4h2.4v2.3H23c1.1-1.7,2.8-2.6,4.9-2.6c1.9,0,3.6,0.7,4.2,2.6c1-1.6,2.8-2.6,4.8-2.6
		c3.1,0,5.1,1.3,5.1,4.4v11.2h-2.5v-10c0-1.9-0.5-3.4-3-3.4c-2.4,0-4,1.5-4,3.9v9.5H30v-10c0-2-0.6-3.4-2.9-3.4
		c-3,0-4.1,2.8-4.1,3.9v9.5h-2.5V383.4z"/>
	<path id="XMLID_548_" class="st1" d="M58.2,393.8c-0.7,3.4-3.1,5.2-6.5,5.2c-4.9,0-7.2-3.4-7.3-8.1c0-4.6,3-8,7.2-8
		c5.4,0,7.1,5.1,6.9,8.8H46.9c-0.1,2.7,1.4,5,4.8,5c2.1,0,3.5-1,4-3H58.2z M55.7,389.5c-0.1-2.4-1.9-4.3-4.4-4.3
		c-2.6,0-4.2,2-4.4,4.3H55.7z"/>
	<path id="XMLID_547_" class="st1" d="M60.5,383.4h2.4v2.4h0.1c1.1-1.9,2.8-2.8,5-2.8c4,0,5.3,2.3,5.3,5.6v10.1h-2.5v-10.4
		c0-1.9-1.2-3.1-3.1-3.1c-3.1,0-4.5,2-4.5,4.8v8.6h-2.5V383.4z"/>
	<path id="XMLID_546_" class="st1" d="M79.6,383.4h3.1v2.2h-3.1v9.5c0,1.2,0.3,1.4,1.9,1.4h1.2v2.2h-1.9c-2.6,0-3.6-0.5-3.6-3.3
		v-9.7h-2.6v-2.2h2.6v-4.6h2.5V383.4z"/>
	<path id="XMLID_545_" class="st1" d="M-64.8,416.7h-2.6v-2.2h2.6v-2.3c0-2.5,1.5-3.8,4.2-3.8c0.5,0,1.2,0.1,1.6,0.2v2.2
		c-0.4-0.1-1-0.2-1.4-0.2c-1.2,0-1.9,0.4-1.9,1.7v2.1h3v2.2h-3v13.1h-2.5V416.7z"/>
	<path id="XMLID_542_" class="st1" d="M-51.4,414.1c4.9,0,7.4,3.5,7.4,8c0,4.5-2.6,8-7.4,8c-4.9,0-7.4-3.5-7.4-8
		C-58.9,417.6-56.3,414.1-51.4,414.1 M-51.4,427.9c2.6,0,4.8-2.1,4.8-5.8c0-3.7-2.1-5.8-4.8-5.8c-2.6,0-4.8,2.1-4.8,5.8
		C-56.2,425.8-54.1,427.9-51.4,427.9"/>
	<path id="XMLID_540_" class="st1" d="M-41.8,414.5h2.4v3.2h0.1c1.2-2.5,2.9-3.7,5.6-3.6v2.7c-4.1,0-5.5,2.3-5.5,6.2v6.8h-2.5V414.5
		z"/>
	<rect id="XMLID_539_" x="-23.7" y="408.6" class="st1" width="2.8" height="21.1"/>
	<path id="XMLID_538_" class="st1" d="M-17.4,414.5h2.4v2.4h0.1c1.1-1.9,2.8-2.8,5-2.8c4,0,5.3,2.3,5.3,5.6v10.1h-2.5v-10.4
		c0-1.9-1.2-3.1-3.1-3.1c-3.1,0-4.5,2-4.5,4.8v8.6h-2.5V414.5z"/>
	<path id="XMLID_537_" class="st1" d="M1.8,414.5h3.1v2.2H1.8v9.5c0,1.2,0.3,1.4,1.9,1.4h1.2v2.2H2.9c-2.6,0-3.6-0.5-3.6-3.3v-9.7
		h-2.6v-2.2h2.6v-4.6h2.5V414.5z"/>
	<path id="XMLID_534_" class="st1" d="M19.4,424.9c-0.7,3.4-3.1,5.2-6.5,5.2c-4.9,0-7.2-3.4-7.3-8.1c0-4.6,3-8,7.2-8
		c5.4,0,7.1,5.1,6.9,8.8H8.2c-0.1,2.7,1.4,5,4.8,5c2.1,0,3.5-1,4-3H19.4z M17,420.7c-0.1-2.4-1.9-4.3-4.4-4.3c-2.6,0-4.2,2-4.4,4.3
		H17z"/>
	<path id="XMLID_533_" class="st1" d="M21.7,414.5H24v3.2h0.1c1.2-2.5,2.9-3.7,5.6-3.6v2.7c-4.1,0-5.5,2.3-5.5,6.2v6.8h-2.5V414.5z"
		/>
	<path id="XMLID_532_" class="st1" d="M31.1,414.5h2.4v2.4h0.1c1.1-1.9,2.8-2.8,5-2.8c4,0,5.3,2.3,5.3,5.6v10.1h-2.5v-10.4
		c0-1.9-1.2-3.1-3.1-3.1c-3,0-4.5,2-4.5,4.8v8.6h-2.5V414.5z"/>
	<path id="XMLID_529_" class="st1" d="M60.4,429.7c-0.4,0.3-1,0.4-1.8,0.4c-1.3,0-2.1-0.7-2.1-2.4c-1.4,1.6-3.3,2.4-5.4,2.4
		c-2.8,0-5.1-1.2-5.1-4.3c0-3.5,2.6-4.2,5.2-4.7c2.8-0.5,5.2-0.4,5.2-2.3c0-2.2-1.8-2.5-3.4-2.5c-2.1,0-3.7,0.7-3.8,2.9h-2.5
		c0.1-3.8,3.1-5.1,6.5-5.1c2.8,0,5.7,0.6,5.7,4.2v7.9c0,1.2,0,1.7,0.8,1.7c0.2,0,0.4,0,0.8-0.1V429.7z M56.3,421.9
		c-1,0.7-2.9,0.7-4.6,1c-1.7,0.3-3.1,0.9-3.1,2.8c0,1.7,1.4,2.3,3,2.3c3.3,0,4.7-2.1,4.7-3.5V421.9z"/>
	<path id="XMLID_528_" class="st1" d="M65.5,414.5h3.1v2.2h-3.1v9.5c0,1.2,0.3,1.4,1.9,1.4h1.2v2.2h-1.9c-2.6,0-3.6-0.5-3.6-3.3
		v-9.7h-2.6v-2.2h2.6v-4.6h2.5V414.5z"/>
	<path id="XMLID_525_" class="st1" d="M73,411.7h-2.5v-3.1H73V411.7z M70.5,414.5H73v15.3h-2.5V414.5z"/>
	<path id="XMLID_522_" class="st1" d="M82.8,414.1c4.9,0,7.4,3.5,7.4,8c0,4.5-2.6,8-7.4,8c-4.9,0-7.4-3.5-7.4-8
		C75.4,417.6,77.9,414.1,82.8,414.1 M82.8,427.9c2.6,0,4.8-2.1,4.8-5.8c0-3.7-2.1-5.8-4.8-5.8c-2.6,0-4.8,2.1-4.8,5.8
		C78,425.8,80.1,427.9,82.8,427.9"/>
	<path id="XMLID_521_" class="st1" d="M92.5,414.5h2.4v2.4h0.1c1.1-1.9,2.8-2.8,5-2.8c4,0,5.3,2.3,5.3,5.6v10.1h-2.5v-10.4
		c0-1.9-1.2-3.1-3.1-3.1c-3,0-4.5,2-4.5,4.8v8.6h-2.5V414.5z"/>
	<path id="XMLID_518_" class="st1" d="M121.8,429.7c-0.4,0.3-1,0.4-1.8,0.4c-1.3,0-2.1-0.7-2.1-2.4c-1.4,1.6-3.3,2.4-5.4,2.4
		c-2.8,0-5.1-1.2-5.1-4.3c0-3.5,2.6-4.2,5.2-4.7c2.8-0.5,5.2-0.4,5.2-2.3c0-2.2-1.8-2.5-3.4-2.5c-2.1,0-3.7,0.7-3.8,2.9H108
		c0.1-3.8,3.1-5.1,6.5-5.1c2.8,0,5.7,0.6,5.7,4.2v7.9c0,1.2,0,1.7,0.8,1.7c0.2,0,0.4,0,0.8-0.1V429.7z M117.7,421.9
		c-1,0.7-2.9,0.7-4.6,1c-1.7,0.3-3.1,0.9-3.1,2.8c0,1.7,1.4,2.3,3,2.3c3.3,0,4.7-2.1,4.7-3.5V421.9z"/>
	<rect id="XMLID_517_" x="123.6" y="408.6" class="st1" width="2.5" height="21.1"/>
	<path id="XMLID_514_" class="st1" d="M-65.4,439.7h7.3c6.5,0,10.2,3.3,10.2,10.1c0,7.1-3.1,11.1-10.2,11.1h-7.3V439.7z
		 M-62.6,458.5h4.7c1.9,0,7.1-0.5,7.1-8.3c0-5-1.9-8.1-7-8.1h-4.7V458.5z"/>
	<path id="XMLID_511_" class="st1" d="M-32.5,456c-0.7,3.4-3.1,5.2-6.5,5.2c-4.9,0-7.2-3.4-7.3-8.1c0-4.6,3-8,7.2-8
		c5.4,0,7.1,5.1,6.9,8.8h-11.5c-0.1,2.7,1.4,5,4.8,5c2.1,0,3.5-1,4-3H-32.5z M-34.9,451.8c-0.1-2.4-1.9-4.3-4.4-4.3
		c-2.6,0-4.2,2-4.4,4.3H-34.9z"/>
	<polygon id="XMLID_510_" class="st1" points="-23.9,460.9 -26.6,460.9 -32.3,445.6 -29.4,445.6 -25.1,458.3 -25.1,458.3
		-20.9,445.6 -18.3,445.6 	"/>
	<path id="XMLID_507_" class="st1" d="M-4.2,456c-0.7,3.4-3.1,5.2-6.5,5.2c-4.9,0-7.2-3.4-7.3-8.1c0-4.6,3-8,7.2-8
		c5.4,0,7.1,5.1,6.9,8.8h-11.5c-0.1,2.7,1.4,5,4.8,5c2.1,0,3.5-1,4-3H-4.2z M-6.6,451.8c-0.1-2.4-1.9-4.3-4.4-4.3
		c-2.6,0-4.2,2-4.4,4.3H-6.6z"/>
	<rect id="XMLID_506_" x="-1.9" y="439.7" class="st1" width="2.5" height="21.1"/>
	<path id="XMLID_503_" class="st1" d="M10.4,445.2c4.9,0,7.4,3.5,7.4,8c0,4.5-2.6,8-7.4,8c-4.9,0-7.4-3.5-7.4-8
		C3,448.7,5.6,445.2,10.4,445.2 M10.4,459c2.6,0,4.8-2.1,4.8-5.8c0-3.7-2.1-5.8-4.8-5.8c-2.6,0-4.8,2.1-4.8,5.8
		C5.7,456.9,7.8,459,10.4,459"/>
	<path id="XMLID_500_" class="st1" d="M20.2,445.6h2.5v2.1h0.1c0.8-1.7,2.8-2.4,4.9-2.4c4.7,0,7,3.7,7,8.1s-2.3,8-7,8
		c-1.6,0-3.8-0.6-4.9-2.4h-0.1v7.9h-2.5V445.6z M27.3,447.4c-3.4,0-4.7,2.9-4.7,5.8c0,3,1.4,5.8,4.8,5.8c3.4,0,4.6-2.9,4.6-5.9
		C32,450.2,30.5,447.4,27.3,447.4"/>
	<path id="XMLID_499_" class="st1" d="M37,445.6h2.4v2.3h0.1c1.1-1.7,2.8-2.6,4.9-2.6c1.9,0,3.6,0.7,4.2,2.6c1-1.6,2.8-2.6,4.8-2.6
		c3.1,0,5.1,1.3,5.1,4.4v11.2h-2.5v-10c0-1.9-0.5-3.4-3-3.4c-2.4,0-4,1.5-4,3.9v9.5h-2.5v-10c0-2-0.6-3.4-2.9-3.4
		c-3,0-4.1,2.8-4.1,3.9v9.5H37V445.6z"/>
	<path id="XMLID_496_" class="st1" d="M74.6,456c-0.7,3.4-3.1,5.2-6.5,5.2c-4.9,0-7.2-3.4-7.3-8.1c0-4.6,3-8,7.2-8
		c5.4,0,7.1,5.1,6.9,8.8H63.4c-0.1,2.7,1.4,5,4.8,5c2.1,0,3.5-1,4-3H74.6z M72.2,451.8c-0.1-2.4-1.9-4.3-4.4-4.3
		c-2.6,0-4.2,2-4.4,4.3H72.2z"/>
	<path id="XMLID_495_" class="st1" d="M76.9,445.6h2.4v2.4h0.1c1.1-1.9,2.8-2.8,5-2.8c4,0,5.3,2.3,5.3,5.6v10.1h-2.5v-10.4
		c0-1.9-1.2-3.1-3.1-3.1c-3.1,0-4.5,2-4.5,4.8v8.6h-2.5V445.6z"/>
	<path id="XMLID_494_" class="st1" d="M96,445.6h3.1v2.2H96v9.5c0,1.2,0.3,1.4,1.9,1.4h1.2v2.2h-1.9c-2.6,0-3.6-0.5-3.6-3.3v-9.7
		h-2.6v-2.2h2.6V441H96V445.6z"/>
	<path id="XMLID_493_" class="st1" d="M-66.7,344.7C-66.8,344.7-66.8,344.7-66.7,344.7C-66.7,344.7-66.7,344.7-66.7,344.7"/>
	<path id="XMLID_490_" class="st1" d="M-37.1,346.3c-0.1-1.1-0.6-2.1-1.2-3c0.1-0.1,0.1-0.1,0.2-0.3c-0.1,0-0.2,0-0.3,0.1
		c0-0.1-0.1-0.1-0.1-0.2c-0.8-1-1.7-1.6-2.7-1.9c0-0.2-0.2-0.2-0.2-0.2c0,0-0.1,0.1-0.1,0.1c0,0,0,0-0.1,0c-0.1-0.1-0.1-0.1-0.2-0.1
		c0,0.1,0,0.2,0.1,0.3v0c-0.1,0-0.1,0-0.1,0.1c0,0.1,0,0.2,0.1,0.3v2.2c-0.1,0-0.2,0-0.3,0.1c0.1,0.1,0.2,0.1,0.3,0.1v2.4
		c-0.1,0-0.2,0.2-0.2,0.3c0,0.1,0.1,0.1,0.2,0.1v0.1c0,0.1-0.1,0.1-0.1,0.2c0.1,0,0.2,0,0.2-0.1h0.1c0,0.1,0,0.1,0.1,0.2
		c0.1,0,0.2,0,0.3-0.2h1.6c0,0.1,0,0.2,0.1,0.3c0.1-0.1,0.1-0.2,0.1-0.3h1.8c0,0.2,0.2,0.2,0.3,0.2c0.1,0,0.1-0.1,0.1-0.2h0
		c0.1,0,0.1,0.1,0.2,0.1c0-0.1,0-0.2-0.1-0.2c0,0,0,0,0-0.1c0.1,0,0.1,0,0.2-0.1C-36.9,346.5-37,346.4-37.1,346.3 M-38.7,343.1
		c0.8,1,1.3,2.3,1.4,3.7h-4.5v-5.6C-40.6,341.3-39.5,342-38.7,343.1"/>
	<path id="XMLID_487_" class="st1" d="M-37.3,346.6c-0.1-1.3-0.6-2.5-1.4-3.5c-0.4-0.5-0.8-0.9-1.3-1.2c-0.5-0.3-1-0.5-1.5-0.7
		l-0.1,0v5.4L-37.3,346.6L-37.3,346.6z M-38.9,343.2c0,0,0,0.1,0,0.1c0,0.1,0.1,0.1,0.2,0.1c-0.1,0.1-0.1,0.1-0.1,0.3
		c0.1,0,0.2,0,0.3-0.1c0,0.1,0,0.2,0.1,0.2c0,0,0.1,0,0.1,0c0.5,0.8,0.8,1.6,0.9,2.5c-0.1,0-0.1,0-0.2,0c0,0.1,0,0.2,0.1,0.2h-1.5
		c0-0.1,0-0.1-0.1-0.2c-0.1,0-0.1,0-0.2,0.1c0-0.1,0-0.2-0.1-0.3c-0.1,0.1-0.1,0.2-0.1,0.3c-0.1-0.1-0.1-0.1-0.2-0.1
		c-0.1,0-0.1,0.1-0.1,0.2h-1.3c0-0.1,0.1-0.1,0.1-0.2c-0.1,0-0.2,0-0.2,0.1v-2.1c0.1,0,0.2,0,0.2-0.1c0-0.1,0-0.1-0.1-0.2
		c0.1,0,0.2,0,0.3-0.1c-0.1-0.1-0.2-0.1-0.3-0.1c0.1-0.1,0.1-0.1,0.1-0.2c0-0.1-0.1-0.1-0.2-0.1v-1.8c0.1,0,0.1,0.1,0.2,0.1
		c0-0.1,0-0.2,0-0.2C-40.4,341.8-39.6,342.3-38.9,343.2"/>
	<path id="XMLID_486_" class="st1" d="M-38.2,345.7L-38.2,345.7c0.1,0,0.2-0.1,0.2-0.2c-0.1,0-0.2,0-0.2,0c0.1,0,0.1,0,0.1-0.1
		c-0.1-0.1-0.1-0.1-0.2,0c-0.1,0.1-0.6,0-0.6-0.4c0,0,0,0,0,0c0,0.1,0.1,0.1,0.2,0.1c0.2,0.2,0.5,0.1,0.5-0.1c0-0.2-0.2-0.3-0.4-0.5
		c-0.1-0.1-0.2-0.1-0.2-0.2c-0.1-0.2,0-0.3-0.2-0.6c0-0.1,0-0.1-0.1-0.2c-0.1,0.2-0.1,0.5,0.1,0.8c0.2,0.2,0.7,0.5,0.7,0.7
		c0,0.1-0.1,0.1-0.1,0.1c-0.1,0-0.2-0.1-0.3-0.2c0,0,0,0,0,0h0c-0.2-0.2-0.4-0.4-0.5-0.6c-0.2-0.3-0.1-0.5-0.1-0.8
		c0.2-0.2-0.1-0.6-0.2-0.7c0,0,0-0.1,0-0.2c0,0-0.1,0-0.1,0c0-0.1-0.1-0.1-0.1-0.1c-0.1,0-0.1-0.1-0.1-0.1c-0.1,0-0.1,0.1-0.1,0.1
		c-0.1,0-0.1,0-0.1,0c-0.1,0-0.1,0.1-0.2,0.1c-0.1,0-0.1,0-0.1,0.1c0,0,0,0.1,0.1,0.1c0,0,0,0,0,0l0.1,0.1l0-0.1c0,0,0,0,0,0
		c0,0,0.2,0,0.2,0c0,0.1,0,0.1,0,0.1c-0.1,0-0.1,0-0.2,0c0,0,0,0.1,0,0.1c0,0.1,0.1,0.1,0.2,0.1c0.1,0,0.3,0,0.3,0
		c0,0.2-0.3,0.2-0.3,0.5c-0.1,0-0.1-0.1-0.2-0.1c0-0.1-0.1-0.2-0.2-0.2c-0.1-0.1-0.1-0.1-0.2-0.2c-0.1-0.1-0.1-0.1-0.1-0.2
		c0-0.1,0-0.2,0-0.2c0,0,0-0.1,0-0.1c0-0.1-0.1-0.1-0.1-0.1c0,0,0,0,0,0.1c0,0,0,0,0,0c0,0,0,0.1,0,0.1c0,0,0,0,0,0c0,0,0,0,0,0
		c0,0,0,0,0,0c0-0.1,0-0.1-0.1-0.1c0,0,0,0,0,0c0,0,0,0,0,0c0-0.1-0.1-0.1-0.1,0c0,0,0,0,0.1,0c0,0,0,0.1,0,0.1c0,0.1,0,0.1,0.1,0.1
		c0,0,0,0,0,0c0,0,0,0,0,0c0,0,0,0,0,0c-0.1,0-0.2,0-0.2,0c0,0,0,0,0,0c0,0,0,0.1,0,0.1c0,0,0-0.1,0-0.1c0,0,0,0,0,0c0,0,0,0,0,0
		c0,0,0,0,0.1,0c0,0,0,0,0,0c0,0,0,0,0,0c0,0,0,0,0,0c-0.1,0.1-0.1,0.1,0,0.2c0,0.1-0.2,0-0.2-0.1c-0.1,0.1,0.1,0.3,0.2,0.2
		c0,0.1,0,0.1,0,0.2c0,0,0,0,0,0c0,0,0,0,0,0c0,0,0,0.1,0.1,0.1c0,0,0,0,0-0.1c0,0,0,0.1,0.1,0.1c0.1,0.1,0.2,0.4,0.5,0.5
		c-0.1,0.1-0.2,0.2-0.3,0.3c-0.1,0.1-0.2,0.2-0.3,0.1c0,0,0,0-0.1-0.1c0,0-0.1,0-0.1,0c0,0,0,0,0,0c0,0-0.1,0-0.1,0c0,0,0.1,0,0.1,0
		c0,0,0,0,0,0c0,0,0,0.1,0.2,0.1c0,0,0,0,0,0c0,0,0,0-0.1,0c-0.1,0-0.1-0.1-0.1,0c0,0,0,0,0,0c0,0,0,0,0,0c-0.1,0-0.1,0.1,0,0.2
		c0,0,0-0.1,0-0.1c0,0,0,0,0,0c0,0.1,0.1,0.1,0.2,0c0,0,0,0,0,0c0,0.1-0.1,0.2,0,0.2c0,0,0,0,0,0c0,0,0,0,0,0c0,0.1,0.1,0.1,0.2,0.1
		c0,0-0.1,0-0.1-0.1c0,0,0,0,0,0c0.1-0.1,0-0.1,0-0.2c0,0,0,0,0,0c0,0,0.1,0.1,0.1,0.1c0,0,0.1-0.1,0.1-0.1c0.1,0,0.2-0.1,0.2,0
		c0,0,0-0.1,0.1-0.1c0.1,0,0.1,0,0.2,0c0,0,0.1-0.1,0.1-0.2c0,0.4,0.5,0.4,0.7,0.6c-0.2-0.1-0.3-0.1-0.4-0.1c-0.1,0-0.4,0.1-0.4,0.3
		c0,0.1,0.1,0.3,0.2,0.4c-0.2,0-0.2,0-0.4,0c0,0,0,0,0,0c-0.1,0-0.1-0.2-0.3-0.2c0,0,0,0,0,0c-0.1,0-0.1,0.1-0.1,0.1
		c0,0,0,0,0.1-0.1c0,0,0,0,0,0c0,0,0,0,0.1,0c0,0,0,0,0.1,0c0,0,0,0,0,0c0,0.1-0.2,0-0.2,0.1c0,0,0,0,0,0c0,0,0,0.1,0.1,0.1
		c0,0,0,0,0-0.1c0,0,0,0,0,0c0,0,0,0,0,0c0,0,0,0,0,0c0,0,0,0,0,0c0,0,0,0,0,0c0,0,0,0,0,0c0,0.1,0.1,0.1,0.2,0.1c0,0-0.1,0-0.1,0
		c0,0,0,0,0,0c0,0,0,0,0-0.1c0,0,0,0,0,0c0,0,0,0,0,0c0,0,0,0,0,0c0,0,0.1,0.1,0.1,0c0,0,0,0,0.1,0c0,0,0,0,0.1,0c0-0.1,0-0.1,0.2,0
		l0.1-0.1c0,0,0.1,0,0.2,0c0.1-0.1,0-0.1,0-0.1c-0.1-0.1-0.1-0.1-0.1-0.2c0-0.2,0.2-0.3,0.4-0.3c0,0.1,0.2,0.5,0.5,0.6
		c0.2,0.1,0.3-0.1,0.3-0.1c0,0,0,0,0,0c0,0.1,0,0.2,0,0.2c0,0-0.1,0-0.2,0c0,0-0.1,0-0.1,0c-0.1,0-0.1,0.1-0.1,0.1
		c0,0,0.1,0,0.1-0.1c0,0,0,0,0,0c0,0.1,0.1,0.1,0.1,0.1c0,0,0,0,0,0c0,0-0.1,0.1-0.1,0.1c0,0,0,0,0,0c0,0,0,0.1,0.1,0.1
		c0,0,0,0,0-0.1c0,0,0,0,0,0c0.1,0,0-0.1,0.1-0.1c0,0,0,0,0,0c0,0.1,0,0.1,0,0.1c0,0,0,0,0,0c0,0,0.1,0.1,0.1,0c0,0-0.1,0-0.1,0
		c0,0,0,0,0-0.1c0-0.1-0.1-0.1-0.1-0.2c0-0.1,0.1,0,0.1-0.1c0,0,0,0,0,0c0.1,0,0.1-0.1,0.1-0.1C-38.1,345.8-38.2,345.7-38.2,345.7"
		/>
	<polyline id="XMLID_485_" class="st1" points="-40.3,342.8 -40.3,342.8 -40.3,342.8 	"/>
	<path id="XMLID_479_" class="st1" d="M-43.3,348.9l-0.1,0l0-0.1c0-0.4-0.2-0.7-0.6-0.7c-0.4,0-1.1,0.5-2,0.5
		c-0.4,0-0.9-0.2-1.2-0.4l-0.1,0.3c0,0,0,0,0,0c0-0.1-0.1-0.2-0.2-0.2c-0.1,0-0.2,0.1-0.2,0.2c0,0.1,0.1,0.2,0.2,0.2
		c0.1,0,0.1,0,0.2-0.1l-0.1,0.3c0,0,0.1,0,0.1,0.1c-0.1,1.5,0.9,3.3,2.8,3.9c0.3-0.1,0.6,0,0.6,0.3c0,0.2-0.1,0.3-0.3,0.3
		c-0.1,0-0.2-0.1-0.2-0.1c0-0.1,0.2-0.1,0.3-0.1c0-0.1,0-0.2-0.2-0.2c-0.1,0-0.3,0.1-0.3,0.3c0,0.3,0.2,0.4,0.4,0.4
		c0.2,0,0.7-0.1,0.6-0.6c0.1,0,0.2,0,0.2-0.1l0-0.3l-0.1,0l0.1-3.4l0.1,0c0.1,0,0.2,0,0.2-0.2C-43.1,348.9-43.2,348.9-43.3,348.9
		 M-46.8,349.1l2.3,3.4C-45.7,352-46.9,350.9-46.8,349.1 M-44.3,352.2l-2.1-3.1c0.1,0,0.1,0,0.2,0c0.1,0,0.2,0,0.3,0l1.7,2.5
		C-44.3,351.8-44.3,352-44.3,352.2 M-45.7,349c0.2,0,0.3-0.1,0.5-0.1l1.1,1.6c0,0.2-0.1,0.5-0.1,0.7L-45.7,349z M-43.8,348.8
		L-43.8,348.8c-0.2,0-0.3,0-0.3,0.2c0,0.1,0.1,0.2,0.2,0.2l0.1,0l-0.1,1l-1-1.4c0.4-0.2,0.8-0.4,1-0.4
		C-43.8,348.4-43.8,348.5-43.8,348.8"/>
	<polyline id="XMLID_478_" class="st1" points="-44,341.7 -44,341.7 -44,341.7 	"/>
	<path id="XMLID_473_" class="st1" d="M-43.5,342.6c0.5,0,0.7-0.2,0.7-0.3c0-0.5-1.3-0.2-1.3-0.5c0-0.1,0-0.1,0.1-0.1c0,0,0,0,0,0
		c0.7,0,0.7-0.5,1.2-0.6c-0.6-0.1-0.6,0.4-0.9,0.4c0.1-0.1,0.2-0.2,0.2-0.3c-0.1,0.2-0.4,0.2-0.5,0.3c0,0,0,0.1,0,0.1
		c-0.1,0.1-0.1,0.1-0.1,0.2c0,0.5,1.3,0.2,1.3,0.5C-43,342.4-43.2,342.5-43.5,342.6c-0.3-0.1-0.5-0.3-1-0.2c0-0.1,0.2-0.2,0.1-0.3
		c0,0,0.1-0.1,0.1-0.1c0,0-0.1,0-0.1,0c0,0,0-0.1,0-0.1c0,0,0-0.1,0-0.1c0,0-0.1,0-0.1-0.1c-0.1,0-0.1,0-0.1,0c0,0-0.1,0-0.1,0
		c0,0-0.1,0-0.1,0c0,0-0.1,0-0.1,0c0,0,0,0.1,0,0.1c0,0-0.1,0.1-0.1,0.1c0,0,0,0,0,0.1c0,0.1-0.1,0.2-0.1,0.2c0,0,0,0,0,0
		c0,0.1-0.1,0.2-0.1,0.3h0c0,0-0.1-0.1-0.1-0.1c-0.1,0-0.1-0.1-0.1-0.2c0-0.1,0.1-0.1,0.1-0.2c0,0,0,0,0-0.1c0,0-0.1-0.1-0.1-0.1
		c0,0,0,0,0,0.1c0,0,0,0,0,0c0,0,0,0,0,0.1c0,0,0,0,0,0c0,0,0,0,0,0c0,0,0,0,0,0c0,0,0-0.1-0.1-0.1c0,0,0,0,0,0c0,0,0,0,0,0
		c0-0.1,0-0.1-0.1,0c0,0,0,0,0,0c0,0,0,0,0,0c0,0,0,0.1,0.1,0.1c0,0,0,0,0,0s0,0,0,0c0,0,0,0,0,0c-0.1,0-0.1,0-0.1,0c0,0,0,0,0,0
		c0,0-0.1,0.1,0,0.1c0,0,0,0,0-0.1c0,0,0,0,0,0c0,0,0,0,0,0c0,0,0,0,0.1,0c0,0,0,0,0,0c0,0,0,0,0,0c0,0,0,0,0,0
		c-0.1,0.1-0.1,0.1,0,0.1c0,0,0,0,0,0c0,0.1-0.2,0.1-0.2,0c-0.1,0.1,0,0.2,0.2,0.2c0,0,0,0,0,0c0,0,0,0,0,0c0,0,0,0,0,0c0,0,0,0,0,0
		c0,0,0,0.1,0,0.1c0,0,0,0,0,0c0,0,0.1,0.1,0.1,0.2c-0.1,0-0.3,0.1-0.3,0.1c0,0-0.2,0-0.2,0c-0.1,0-0.3,0.1-0.3,0c0,0,0-0.1,0-0.1
		c0,0,0,0-0.1,0c0,0,0,0,0,0c0,0-0.1,0-0.1,0c0,0,0,0,0.1,0c0,0,0,0,0,0c0,0,0,0.1,0.1,0.1c0,0,0,0,0,0c0,0,0,0-0.1,0
		c0,0-0.1-0.1-0.1-0.1c0,0,0,0,0,0c0,0,0,0,0,0c-0.1,0-0.1,0.1-0.1,0.1c0,0,0,0,0.1-0.1c0,0,0,0,0,0c0,0.1,0,0.1,0.2,0c0,0,0,0,0,0
		c0,0.1-0.1,0.1,0,0.1c0,0,0,0,0,0c0,0,0,0,0,0c0,0.1,0.1,0.1,0.1,0.1c0,0,0-0.1,0-0.1c0,0,0,0,0,0c0.1,0,0-0.1,0.1-0.1c0,0,0,0,0,0
		c0,0,0,0.1,0.1,0.1c0.1,0,0.1-0.1,0.1-0.1c0,0,0,0,0,0c0,0,0,0,0,0.1c0,0,0,0,0.1-0.1c0,0,0,0.1,0,0.1c0,0,0.1,0,0.1-0.1
		c0,0,0,0,0,0c0,0,0,0,0,0c0,0,0.1,0,0.1,0c0,0,0,0,0,0c0,0,0,0.1,0,0.1c0,0,0,0,0,0c0,0,0,0.1,0,0.1c0-0.2,0.1-0.1,0.2-0.2
		c0,0,0,0,0,0c0,0,0,0,0,0.1c0,0,0.1,0,0.1-0.1c0,0,0,0,0.1-0.1c0,0,0.1,0,0.1-0.1c0,0,0,0.1,0,0.1c0.1,0,0.2-0.1,0.3-0.1
		c0.2-0.1-0.2-0.2,0.4-0.2c0,0,0.1,0,0.1-0.1c0,0.1,0,0.2,0,0.2c0,0,0.1,0,0.1,0.1c0,0,0,0,0,0c0,0-0.1,0-0.1,0
		c-0.1,0.1-0.1-0.2-0.2-0.1c0,0,0,0,0,0c-0.1,0-0.1,0.1-0.1,0.1c0,0,0,0,0.1,0c0,0,0,0,0,0c0,0,0,0,0,0c0,0,0,0,0.1,0c0,0,0,0,0,0
		c0,0.1-0.2,0-0.1,0.1c0,0,0,0,0,0c0,0,0,0.1,0.1,0.1c0,0,0,0,0,0c0,0,0,0,0,0c0,0,0,0,0,0c0,0,0,0,0,0c0,0,0,0,0,0c0,0,0,0,0,0
		c0,0,0,0,0,0c0,0.1,0.1,0.1,0.1,0.1c0,0-0.1,0-0.1,0c0,0,0,0,0,0c0,0,0,0,0,0c0,0,0,0,0,0c0,0,0,0,0,0c0,0,0,0,0,0
		c0,0,0.1,0.1,0.1,0c0.1,0,0-0.1,0.1-0.1c0,0,0,0,0.1,0c0.1,0,0.2,0,0.2,0c0,0,0-0.2-0.1-0.2c0,0,0-0.1,0-0.1c0.1,0,0.2,0.1,0.2,0.1
		c0.2,0,0,0,0.1-0.1c0.1-0.1,0.2,0,0.2,0c0,0,0,0,0,0c0,0.1,0,0.1,0,0.1c0,0-0.1,0-0.1,0c0,0-0.1,0-0.1,0c0,0-0.1,0.1-0.1,0.1
		c0,0,0,0,0.1,0c0,0,0,0,0,0c0,0.1,0.1,0.1,0.1,0c0,0,0,0,0,0c0,0-0.1,0.1,0,0.1c0,0,0,0,0,0c0,0,0,0.1,0.1,0.1c0,0,0,0,0-0.1
		c0,0,0,0,0,0c0,0,0-0.1,0.1-0.1c0,0,0,0,0,0c0,0,0,0.1,0,0.1c0,0,0,0,0,0c0,0,0.1,0.1,0.1,0c0,0,0,0,0,0c0,0,0,0,0,0
		c0-0.1-0.1-0.1-0.1-0.1c0,0,0.1,0,0.1-0.1c0,0,0,0,0-0.1c0,0,0,0,0,0h0c0,0,0.1,0,0.1,0c-0.1,0,0-0.1-0.1-0.1c0,0,0,0,0,0
		c0,0,0,0,0-0.1c0,0-0.1,0.1-0.1,0c0,0,0,0-0.1,0C-43.3,342.7-43.3,342.7-43.5,342.6C-43.6,342.6-43.6,342.6-43.5,342.6 M-44.8,342
		C-44.8,342-44.8,342-44.8,342c-0.1,0-0.1,0-0.1-0.1C-44.8,341.9-44.8,342-44.8,342 M-44.7,342.2C-44.7,342.2-44.7,342.2-44.7,342.2
		C-44.7,342.2-44.7,342.2-44.7,342.2c-0.1,0-0.1,0-0.1,0c0,0,0,0,0,0.1c0,0,0,0,0,0.1c0,0,0,0.1-0.1,0c0,0,0-0.1,0-0.1
		c0,0,0-0.1,0-0.1c0,0,0,0,0.1,0c0,0,0,0,0-0.1c0,0,0,0,0,0c0,0,0,0-0.1,0c0,0,0,0,0,0c0,0,0,0,0,0L-44.7,342.2
		C-44.7,342.1-44.7,342.1-44.7,342.2C-44.7,342.2-44.7,342.2-44.7,342.2 M-44.6,342.1c0,0-0.1-0.1-0.1-0.1c0,0,0.1,0,0.2,0.1
		C-44.6,342.1-44.6,342.1-44.6,342.1"/>
	<path id="XMLID_467_" class="st1" d="M-46.4,344.2c0,0-0.1-0.1-0.2-0.2c-0.1,0-0.1-0.1-0.1-0.2c0-0.1,0-0.1,0-0.2c0,0,0,0,0-0.1
		c0,0-0.1-0.1-0.1-0.1c0,0,0,0,0,0.1c0,0,0,0,0,0c0,0,0,0.1,0,0.1c0,0,0,0,0,0c0,0,0,0,0,0c0,0,0,0,0,0c0-0.1,0-0.1-0.1-0.1
		c0,0,0,0,0,0c0,0,0,0,0,0c0-0.1-0.1-0.1-0.1,0c0,0,0,0,0.1,0c0,0,0,0.1,0,0.1c0,0.1,0,0.1,0.1,0.1c0,0,0,0,0,0c0,0,0,0,0,0
		c0,0,0,0,0,0c-0.1,0-0.1,0-0.1,0c0,0,0,0,0,0c0,0,0,0.1,0,0.1c0,0,0-0.1,0-0.1c0,0,0,0,0,0c0,0,0,0,0,0c0,0,0,0,0.1,0c0,0,0,0,0,0
		c0,0,0,0,0,0c0,0,0,0,0,0c-0.1,0.1-0.1,0.1,0,0.1c0,0,0,0,0,0c0,0.1-0.2,0.1-0.2,0c-0.1,0.1,0.1,0.2,0.2,0.2c0,0,0,0,0,0
		c0,0,0,0,0,0c0,0,0,0,0,0c0,0,0,0,0,0c0,0,0,0.1,0.1,0.1c0,0,0,0,0,0c0,0,0.1,0.1,0.2,0.2c0.1,0,0.1,0.1,0.2,0.1
		c0,0.1,0.1,0.2,0.1,0.2c0,0-0.3,0-0.3,0c-0.1,0-0.3,0.1-0.3,0c0,0,0-0.1,0-0.1c0,0,0-0.1-0.1-0.1c0,0,0,0,0,0c0,0-0.1,0-0.1,0
		c0,0,0.1,0,0.1,0.1c0,0,0,0,0,0c0,0,0,0.1,0.1,0.1c0,0,0,0,0,0c0,0,0,0-0.1,0c-0.1,0-0.1-0.1-0.1-0.1c0,0,0,0,0,0c0,0,0,0,0,0
		c-0.1,0-0.1,0.1-0.1,0.1c0,0,0-0.1,0.1-0.1c0,0,0,0,0,0c0,0.1,0,0.1,0.2,0c0,0,0,0,0,0c0,0.1-0.1,0.1-0.1,0.2c0,0,0,0,0,0
		c0,0,0,0,0,0c0,0.1,0.1,0.1,0.1,0.1c0,0-0.1-0.1,0-0.1c0,0,0,0,0,0c0.1,0,0-0.1,0.1-0.1c0,0,0,0,0,0c0,0,0,0.1,0.1,0.1
		c0.1,0,0.1-0.1,0.1-0.1c0,0,0,0,0,0c0,0,0,0,0,0.1c0,0,0,0,0.1-0.1c0,0,0,0.1,0,0.1c0,0,0.1,0,0.1-0.1c0,0,0,0,0,0c0,0,0,0,0,0
		c0,0,0.1,0,0.2,0c0,0,0,0,0,0c0,0,0,0.1,0,0.1c0,0,0,0,0,0c0,0,0,0.1,0,0.1c0-0.2,0.1-0.1,0.2-0.2c0,0,0,0,0,0c0,0,0,0.1-0.1,0.1
		c0.1,0,0.3-0.2,0.4-0.3c0.1,0,0.1,0,0.1,0c0.4,0,0.1-0.3,0.7-0.2c0,0,0.1,0,0.2-0.1c0,0.1,0,0.2,0,0.3c0,0,0.1,0,0.1,0.1
		c0,0,0,0,0,0c-0.1,0-0.1,0-0.1,0c-0.1,0.1-0.1-0.2-0.3-0.1c0,0,0,0,0,0c-0.1,0-0.1,0.1-0.1,0.1c0,0,0,0,0.1-0.1c0,0,0,0,0,0
		c0,0,0,0,0.1,0c0,0,0,0,0.1,0c0,0,0,0,0,0c0,0.1-0.2,0-0.1,0.1c0,0,0,0,0,0c0,0,0,0.1,0.1,0.1c0,0,0,0,0-0.1c0,0,0,0,0,0
		c0,0,0,0,0,0c0,0,0,0,0,0c0,0,0,0,0,0c0,0,0,0,0,0c0,0,0,0,0,0c0,0.1,0.1,0.1,0.1,0.1c0,0-0.1,0-0.1,0c0,0,0,0,0,0c0,0,0,0,0-0.1
		c0,0,0,0,0,0c0,0,0,0,0,0c0,0,0,0,0,0c0,0,0.1,0.1,0.1,0c0.1,0,0-0.1,0.1-0.1c0,0,0,0,0.1,0c0.1,0,0.2,0,0.2,0c0,0,0-0.2-0.1-0.2
		c0,0,0-0.1,0-0.1c0.1,0,0.2,0.1,0.3,0.1c0.2,0,0.3,0,0.3-0.1c0.1-0.1,0.2,0,0.2,0c0,0,0,0,0,0c0,0.1,0,0.1,0,0.2c0,0-0.1,0-0.2,0
		c0,0-0.1,0-0.1,0c-0.1,0-0.1,0.1-0.1,0.1c0,0,0.1,0,0.1,0c0,0,0,0,0,0c0,0.1,0.1,0.1,0.1,0c0,0,0,0,0,0c0,0-0.1,0.1-0.1,0.1
		c0,0,0,0,0,0c0,0,0,0.1,0.1,0.1c0,0,0,0,0-0.1c0,0,0,0,0,0c0,0,0-0.1,0.1-0.1c0,0,0,0,0,0c0,0.1,0,0.1,0,0.1c0,0,0,0,0,0
		c0,0,0.1,0.1,0.1,0c0,0,0,0-0.1,0c0,0,0,0,0,0c0-0.1-0.1-0.1-0.1-0.2c0-0.1,0.1,0,0.1-0.1c0,0,0-0.1,0-0.1c0,0,0,0,0,0l0,0
		c0,0,0.1,0,0.1,0c-0.1,0-0.1-0.1-0.1-0.1c0,0,0,0,0,0c0,0,0-0.1,0-0.1c0,0-0.1,0.1-0.1,0c0,0,0-0.1-0.1,0c-0.1,0-0.2,0-0.5,0
		c0.3,0,0.7-0.1,0.7-0.2c0-0.1-0.1-0.2-0.6-0.2c-0.4,0-1.4,0.2-1.4-0.1c0-0.1,0.2-0.1,0.4-0.1c0,0,0,0,0.1,0.1
		c0.6,0.2,1.2-0.1,1.6,0c-0.4-0.3-0.7,0-1.2-0.1c0.3,0,0.3-0.1,0.4-0.1c-0.2,0.1-0.6-0.1-0.8,0.1c0,0,0,0,0,0c-0.3,0-0.6,0-0.6,0.2
		c0,0.4,1.2,0.2,1.6,0.2s0.4,0,0.4,0.1c0,0.1-0.4,0.1-0.6,0.1c-0.3,0-1.3-0.2-1.9-0.1c0-0.1,0.2-0.2,0.1-0.3c0.1,0,0.1-0.1,0.1-0.1
		c0,0-0.1,0-0.1-0.1c0,0,0-0.1,0-0.1c0,0,0-0.1,0-0.1c0,0-0.1-0.1-0.1-0.1c-0.1,0-0.1,0-0.1,0c0,0-0.1,0-0.1,0c0,0-0.1,0-0.1,0
		c0,0-0.1,0-0.1,0c0,0.1,0,0.1,0,0.2c-0.1,0-0.1,0.1-0.2,0.1c0,0,0,0.1,0,0.1c0,0.1-0.1,0.2-0.1,0.2c0,0,0.1,0.1,0.1,0.1
		c0,0.1,0,0.1,0,0.2L-46.4,344.2L-46.4,344.2z M-45.7,343.8c0,0,0.1,0.1,0.2,0.1c-0.1,0-0.1,0-0.1,0
		C-45.7,343.9-45.7,343.8-45.7,343.8 M-45.8,343.7c0,0-0.1,0.1-0.1,0c0,0,0,0,0-0.1C-45.9,343.7-45.8,343.7-45.8,343.7 M-46,344.1
		C-46,344.1-45.9,344-46,344.1c0.1-0.1,0.1-0.1,0.1-0.1c0,0,0,0-0.1-0.1c0,0,0,0,0,0c0,0-0.1,0-0.1,0c0,0,0,0,0,0c0,0,0,0,0,0
		l0.1,0.1c0,0,0,0,0,0c0,0,0,0,0,0c0,0,0,0,0,0c0,0,0,0,0,0c0,0-0.1,0-0.1,0c0,0,0,0,0,0.1c0,0,0,0,0,0.1c0,0-0.1,0.1-0.1,0.1
		C-46,344.2-46,344.1-46,344.1 M-45.6,344.9C-45.6,344.9-45.6,344.9-45.6,344.9C-45.6,344.9-45.6,344.9-45.6,344.9"/>
	<path id="XMLID_462_" class="st1" d="M-46.1,346.8C-46.1,346.8-46.1,346.7-46.1,346.8C-46,346.7-46.1,346.8-46.1,346.8
		c0.2,0,0.2-0.1,0.2-0.1c0.7,0.1,0.3-0.3,1.2-0.2c0,0,0.1,0,0.1,0c0,0.1,0,0.2,0,0.2c0,0,0.1,0,0.1,0.1c0,0,0,0,0,0c0,0-0.1,0-0.1,0
		c-0.1,0.1-0.1-0.2-0.3-0.1c0,0,0,0,0,0c-0.1,0-0.1,0.1-0.1,0.1c0,0,0,0,0.1-0.1c0,0,0,0,0,0c0,0,0,0,0.1,0c0,0,0,0,0.1,0
		c0,0,0,0,0,0c0,0.1-0.2,0-0.1,0.1c0,0,0,0,0,0c0,0,0,0.1,0.1,0.1c0,0,0,0,0-0.1c0,0,0,0,0,0c0,0,0,0,0,0c0,0,0,0,0,0c0,0,0,0,0,0
		c0,0,0,0,0,0c0,0,0,0,0,0c0,0.1,0.1,0.1,0.2,0.1c0,0-0.1,0-0.1,0c0,0,0,0,0,0c0,0,0,0,0-0.1c0,0,0,0,0,0c0,0,0,0,0,0c0,0,0,0,0,0
		c0,0,0.1,0.1,0.1,0c0.1,0,0-0.1,0.1-0.1c0,0,0,0,0.1,0c0.1,0,0.2,0,0.2,0c0,0,0-0.2-0.1-0.2c0,0,0-0.1,0-0.1c0.1,0,0.2,0.1,0.3,0.1
		c0.2,0,0.3,0,0.3-0.1c0.1-0.1,0.2,0,0.2,0c0,0,0,0,0,0.1c0,0.1,0,0.1,0,0.2c0,0-0.1,0-0.2,0c0,0-0.1,0-0.1,0
		c-0.1,0-0.1,0.1-0.1,0.1c0,0,0.1,0,0.1-0.1c0,0,0,0,0,0c0,0.1,0.1,0.1,0.1,0c0,0,0,0,0,0c0,0-0.1,0.1-0.1,0.1c0,0,0,0,0,0
		c0,0,0,0.1,0.1,0.1c0,0,0,0,0-0.1c0,0,0,0,0,0c0,0,0-0.1,0.1-0.1c0,0,0,0,0,0c0,0.1,0,0.1,0,0.1c0,0,0,0,0,0c0,0,0.1,0.1,0.1,0
		c0,0,0,0-0.1,0c0,0,0,0,0,0c0-0.1-0.1-0.1-0.1-0.2c0-0.1,0.1,0,0.1-0.1c0,0,0-0.1,0-0.1c0,0,0,0,0,0v0c0,0,0.1,0,0.1,0
		c-0.1,0-0.1-0.1-0.1-0.1c0,0,0,0,0,0c0,0,0-0.1,0-0.1c0,0-0.1,0.1-0.1,0c0,0,0-0.1-0.1,0c-0.1,0-0.2,0-0.5,0c0.3,0,0.7-0.1,0.7-0.2
		c0-0.1-0.1-0.2-0.6-0.2c-0.4,0-1.8,0.2-1.8-0.1c0-0.2,0.5-0.1,0.8-0.1c0,0,0,0,0.1,0.1c0.6,0.2,1.2-0.2,1.6-0.1
		c-0.3-0.3-0.7,0-1.2-0.1c0.3,0,0.5-0.1,0.5-0.1c-0.2,0.1-0.8-0.1-1,0.1c0,0,0,0,0,0c-0.4,0-0.9-0.1-0.9,0.2c0,0.4,1.5,0.2,1.9,0.2
		c0.4,0,0.5,0,0.5,0.1c0,0.1-0.4,0.1-0.6,0.1c-0.3,0-1.8-0.2-2.4,0c0-0.1,0.2-0.2,0.1-0.3c0.1,0,0.1-0.1,0.1-0.1c0,0-0.1,0-0.1-0.1
		c0,0,0-0.1,0-0.1c0,0,0-0.1,0-0.1c0,0-0.1-0.1-0.1-0.1c-0.1,0-0.1,0-0.1,0c0,0-0.1,0-0.1,0c0,0-0.1,0-0.1,0c0,0-0.1,0-0.1,0
		c0,0,0,0.1,0,0.2c-0.1,0-0.1,0.1-0.2,0.1c0,0,0,0.1,0,0.1c0,0.1-0.1,0.2-0.1,0.2c0,0,0,0,0,0.1c0,0,0,0.1,0,0.1l0,0
		c0,0-0.1,0-0.1,0c0,0,0,0-0.1,0c-0.1,0-0.1-0.1-0.2-0.2c-0.1,0-0.1-0.1-0.1-0.2c0-0.1,0-0.1,0-0.2c0,0,0,0,0-0.1
		c0-0.1-0.1-0.1-0.1-0.1c0,0,0,0,0,0.1c0,0,0,0,0,0c0,0,0,0.1,0,0.1c0,0,0,0,0,0c0,0,0,0,0,0c0,0,0,0,0,0c0-0.1,0-0.1-0.1-0.1
		c0,0,0,0,0,0c0,0,0,0,0,0c0-0.1-0.1-0.1-0.1,0c0,0,0,0,0.1,0c0,0,0,0.1,0,0.1c0,0.1,0,0.1,0.1,0.1c0,0,0,0,0,0c0,0,0,0,0,0
		c0,0,0,0,0,0c-0.1,0-0.1,0-0.1,0c0,0,0,0,0,0c0,0,0,0.1,0,0.1c0,0,0-0.1,0-0.1c0,0,0,0,0,0c0,0,0,0,0,0c0,0,0,0,0.1,0c0,0,0,0,0,0
		c0,0,0,0,0,0c0,0,0,0,0,0c-0.1,0.1-0.1,0.1,0,0.1c0,0,0,0,0,0c0,0.1-0.2,0.1-0.2,0c-0.1,0.1,0.1,0.2,0.2,0.2c0,0,0,0,0,0
		c0,0,0,0,0,0c0,0,0,0,0,0c0,0,0,0,0,0c0,0,0,0.1,0.1,0.1c0,0,0-0.1,0-0.1c0,0,0.1,0.2,0.3,0.3c0,0,0.1,0,0.1-0.1c0,0,0,0,0,0
		c0,0.1,0.1,0.2,0,0.2c0,0-0.3,0-0.4,0c-0.1,0-0.3,0.1-0.3,0c0,0,0-0.1,0-0.1c0,0,0-0.1-0.1-0.1c0,0,0,0,0,0c0,0-0.1,0-0.1,0
		c0,0,0.1,0,0.1,0.1c0,0,0,0,0,0c0,0,0,0.1,0.1,0.1c0,0,0,0,0,0c0,0,0,0-0.1,0c0,0-0.1-0.1-0.1-0.1c0,0,0,0,0,0c0,0,0,0,0,0
		c-0.1,0-0.1,0.1-0.1,0.1c0,0,0-0.1,0.1-0.1c0,0,0,0,0,0c0,0.1,0,0.1,0.2,0c0,0,0,0,0,0c0,0.1-0.1,0.1-0.1,0.2c0,0,0,0,0,0
		c0,0,0,0,0,0c0,0.1,0.1,0.1,0.1,0.1c0,0-0.1-0.1,0-0.1c0,0,0,0,0,0c0.1,0,0-0.1,0.1-0.1c0,0,0,0,0,0c0,0,0,0.1,0.1,0.1
		c0.1,0,0.1-0.1,0.1-0.1c0,0,0,0,0,0c0,0,0,0,0,0.1c0,0,0,0,0.1-0.1c0,0,0,0.1,0,0.1c0,0,0.1,0,0.1-0.1c0,0,0,0,0,0c0,0,0,0,0,0
		c0,0,0.1,0,0.2,0c0,0,0,0,0,0c0,0,0,0.1,0,0.1c0,0,0,0,0,0c0,0,0,0.1,0,0.1c0-0.2,0.2-0.1,0.4-0.2c0,0,0,0,0,0c0,0,0,0-0.1,0.1
		c0,0,0.1,0,0.1,0C-46.2,346.9-46.1,346.8-46.1,346.8 M-46.4,345.6c0,0-0.1,0.1-0.1,0c0,0,0,0,0-0.1
		C-46.5,345.5-46.4,345.6-46.4,345.6 M-46.3,345.9C-46.3,345.9-46.3,345.8-46.3,345.9C-46.3,345.8-46.3,345.8-46.3,345.9
		c-0.1,0-0.1,0-0.1,0c0,0,0,0,0,0.1c0,0,0,0,0,0.1c0,0-0.1,0.1-0.1,0.1c-0.1,0,0-0.1,0-0.1c0,0,0-0.1,0-0.1c0,0,0,0,0.1,0
		c0,0,0-0.1-0.1-0.1c0,0,0.1,0,0,0c0,0-0.1,0-0.1,0c0,0,0,0,0,0c0,0,0,0,0,0L-46.3,345.9C-46.3,345.8-46.3,345.8-46.3,345.9
		C-46.3,345.8-46.2,345.8-46.3,345.9 M-46.2,345.8c-0.1,0-0.1-0.1-0.1-0.1c0,0,0.1,0.1,0.2,0.1C-46.2,345.7-46.1,345.8-46.2,345.8"
		/>
	<path id="XMLID_457_" class="st1" d="M-37.4,349.1C-37.4,349.1-37.4,349.1-37.4,349.1c0,0,0.1-0.1,0.1-0.1c0,0-0.1,0.1-0.1,0
		c0,0,0-0.1-0.1,0c-0.1,0-0.3,0-0.5,0c0,0,0,0,0,0c0.3,0,0.7-0.1,0.7-0.2c0-0.1-0.2-0.2-0.6-0.2c-0.4,0-1.8,0.2-1.8-0.1
		c0-0.2,0.5-0.1,0.8-0.1c0,0,0,0,0.1,0.1c0.6,0.2,1.2-0.3,1.6-0.2c-0.4-0.2-0.7,0.1-1.2,0c0.3,0,0.5-0.1,0.5-0.1
		c-0.2,0.1-0.7-0.1-1,0.1c0,0,0,0,0,0c-0.4,0-0.9-0.1-0.9,0.2c0,0.4,1.5,0.2,1.9,0.2c0.4,0,0.4,0,0.4,0.1c0,0.1-0.4,0.1-0.6,0.1
		c-0.3,0-1.8-0.2-2.4,0c0-0.1,0.2-0.2,0.1-0.3c0.1,0,0.1-0.1,0.1-0.1c0,0-0.1,0-0.1,0c0,0,0-0.1,0-0.1c0,0,0-0.1,0-0.1
		c0,0-0.1-0.1-0.1-0.1c-0.1,0-0.1,0-0.1,0c0,0-0.1,0-0.1,0c0,0-0.1,0-0.1,0c0,0-0.1,0-0.1,0c0,0.1,0,0.1,0,0.2
		c-0.1,0-0.1,0.1-0.2,0.1c0,0,0,0.1,0,0.1c0,0.1-0.1,0.2-0.1,0.2c0,0,0.1,0.1,0.1,0.1c0,0,0,0.1,0,0.1l-0.1,0c0,0-0.1,0-0.1,0
		c0,0,0,0-0.1,0c-0.1,0-0.1-0.1-0.2-0.2c-0.1-0.1-0.1-0.1-0.1-0.2c0-0.1,0-0.1,0-0.2c0,0,0-0.1,0-0.1c0,0-0.1-0.1-0.1-0.1
		c0,0,0,0,0,0.1c0,0,0,0,0,0c0,0,0,0.1,0,0.1c0,0,0,0,0,0c0,0,0,0,0,0c0,0,0,0,0,0c0-0.1,0-0.1-0.1-0.1c0,0,0,0,0,0c0,0,0,0,0,0
		c0-0.1-0.1-0.1-0.1,0c0,0,0,0,0.1,0c0,0,0,0.1,0,0.1c0,0.1,0,0.1,0.1,0.1c0,0,0,0,0,0c0,0,0,0,0,0c0,0,0,0,0,0c-0.1,0-0.1,0-0.1,0
		c0,0,0,0,0,0c0,0,0,0.1,0,0.1c0,0,0-0.1,0-0.1c0,0,0,0,0,0c0,0,0,0,0,0c0,0,0,0,0.1,0c0,0,0,0,0,0c0,0,0,0,0,0c0,0,0,0,0,0
		c-0.1,0.1-0.1,0.1,0,0.1c0,0,0,0,0,0c0,0.1-0.2,0.1-0.2,0c-0.1,0.1,0.1,0.3,0.2,0.2c0,0,0,0,0,0c0,0,0,0,0,0c0,0,0,0,0,0
		c0,0,0,0,0,0c0,0,0,0.1,0.1,0.1c0,0,0-0.1,0-0.1c0,0,0.1,0.2,0.3,0.3c0,0,0.1,0,0.1-0.1c0,0,0,0.1,0.1,0.1l0,0
		c0,0.1,0.1,0.2,0.1,0.2c0,0-0.2,0-0.3,0c-0.1,0-0.3,0.1-0.3,0c0,0,0-0.1,0-0.1c0,0,0-0.1-0.1-0.1c0,0,0,0,0,0c0,0-0.1,0-0.1,0
		c0,0,0.1,0,0.1,0.1c0,0,0,0,0,0c0,0,0,0.1,0.1,0.1c0,0,0,0,0,0c0,0,0,0-0.1,0c-0.1,0-0.1-0.1-0.1-0.1c0,0,0,0,0,0c0,0,0,0,0,0
		c-0.1,0-0.1,0.1-0.1,0.1c0,0,0-0.1,0.1-0.1c0,0,0,0,0,0c0,0.1,0,0.1,0.2,0c0,0,0,0,0,0c0,0.1-0.1,0.1-0.1,0.2c0,0,0,0,0,0
		c0,0,0,0,0,0c0,0.1,0.1,0.1,0.1,0.1c0,0,0-0.1,0-0.1c0,0,0,0,0,0c0.1,0,0-0.1,0.1-0.1c0,0,0,0,0,0c0,0,0,0.1,0.1,0.1
		c0.1,0,0.1-0.1,0.1-0.1c0,0,0,0,0,0c0,0,0,0,0,0.1c0,0,0,0,0.1-0.1c0,0,0,0.1,0,0.1c0,0,0.1,0,0.1-0.1c0,0,0,0,0,0c0,0,0,0,0,0
		c0,0,0.1,0,0.2,0c0,0,0,0,0,0c0,0,0,0.1,0,0.1c0,0,0,0,0,0c0,0,0,0.1,0,0.1c0-0.2,0.1-0.1,0.2-0.2c0,0,0,0,0,0c0,0,0,0-0.1,0.1
		c0,0,0.2-0.1,0.2-0.1c0,0,0.1,0,0.1,0c0.1,0,0.1-0.1,0.2-0.1c0.7,0.1,0.3-0.3,1.2-0.2c0,0,0.1,0,0.1-0.1c0,0.1,0,0.3,0,0.3
		c0,0,0.1,0,0.1,0.1c0,0,0,0,0,0c-0.1,0-0.1,0-0.1,0c-0.1,0.1-0.1-0.2-0.3-0.1c0,0,0,0,0,0c-0.1,0-0.1,0.1-0.1,0.1c0,0,0,0,0.1-0.1
		c0,0,0,0,0,0c0,0,0,0,0.1,0c0,0,0,0,0.1,0c0,0,0,0,0,0c0,0.1-0.2,0-0.1,0.1c0,0,0,0,0,0c0,0,0,0.1,0.1,0.1c0,0,0,0,0-0.1
		c0,0,0,0,0,0c0,0,0,0,0,0c0,0,0,0,0,0c0,0,0,0,0,0c0,0,0,0,0,0c0,0,0,0,0,0c0,0.1,0.1,0.1,0.1,0.1c0,0-0.1,0-0.1,0c0,0,0,0,0,0
		c0,0,0,0,0-0.1c0,0,0,0,0,0c0,0,0,0,0,0c0,0,0,0,0,0c0,0,0.1,0.1,0.1,0c0.1,0,0-0.1,0.1-0.1c0,0,0,0,0.1,0c0.1,0,0.2,0,0.2,0
		c0,0,0-0.2-0.1-0.2c0,0,0-0.1,0-0.1c0.1,0,0.2,0.1,0.3,0.1c0.2,0,0.3,0,0.4-0.1c0.1-0.1,0.2,0,0.2,0c0,0,0,0,0,0.1
		c0,0.1,0,0.1,0,0.2c0,0-0.1,0-0.2,0c0,0-0.1,0-0.1,0c-0.1,0-0.1,0.1-0.1,0.1c0,0,0.1,0,0.1,0v0c0,0.1,0.1,0.1,0.1,0c0,0,0,0,0,0
		c0,0-0.1,0.1-0.1,0.1c0,0,0,0,0,0c0,0,0,0.1,0.1,0.1c0,0,0,0,0-0.1h0c0,0,0-0.1,0.1-0.1c0,0,0,0,0,0c0,0,0,0.1,0,0.1c0,0,0,0,0,0
		c0,0,0.1,0.1,0.1,0c0,0,0,0-0.1,0c0,0,0,0,0,0c0-0.1-0.1-0.1,0-0.2c0-0.1,0.1,0,0.1-0.1c0,0,0,0,0-0.1c0,0,0,0,0,0h0
		c0,0,0.1,0,0.1,0C-37.4,349.2-37.3,349.2-37.4,349.1 M-40.5,348.3c0,0,0.1,0.1,0.2,0.1c-0.1,0-0.1,0-0.1,0
		C-40.5,348.4-40.6,348.3-40.5,348.3 M-40.6,348.2c0,0-0.1,0.1-0.1,0c0,0,0,0,0-0.1C-40.8,348.2-40.7,348.2-40.6,348.2 M-40.8,348.6
		C-40.8,348.6-40.8,348.5-40.8,348.6c0.1-0.1,0.1-0.1,0.1-0.1c0,0,0,0,0-0.1c0,0,0,0,0,0c0,0-0.1,0-0.1,0c0,0,0,0,0,0c0,0,0,0,0,0
		l0.1,0.1c0,0,0,0,0,0c0,0,0,0,0,0c0,0,0,0,0,0c0,0,0,0,0,0.1c0,0-0.1,0-0.1,0c0,0,0,0,0,0.1c0,0,0,0,0,0.1c0,0-0.1,0.1-0.1,0
		C-40.8,348.7-40.8,348.6-40.8,348.6"/>
	<path id="XMLID_452_" class="st1" d="M-39.3,350c0,0,0,0.1,0.1,0.1c0.5,0.2,1.2-0.2,1.5-0.2c-0.4-0.2-0.7,0.1-1.1,0
		c0.2,0,0.5,0,0.5-0.1c-0.2,0.1-0.7-0.1-0.9,0.1C-39.3,349.9-39.3,349.9-39.3,350c-0.2-0.1-0.5-0.1-0.5,0.1c0,0.4,1.1,0.2,1.5,0.2
		c0.3,0,0.3,0,0.3,0.1c0,0.1-0.4,0.1-0.6,0.1c-0.3,0-1.2-0.2-1.8,0c0-0.1,0.1-0.2,0.1-0.3c0.1,0,0.1-0.1,0.1-0.1c0,0-0.1,0-0.1,0
		c0,0,0-0.1,0-0.1c0,0,0-0.1,0-0.1c0,0-0.1-0.1-0.1-0.1c-0.1,0-0.1,0-0.1,0c0,0-0.1,0-0.1,0c0,0-0.1,0-0.1,0c0,0-0.1,0-0.1,0
		c0,0,0,0.1,0,0.1c-0.1,0-0.1,0.1-0.1,0.1c0,0,0,0.1,0,0.1c0,0.1-0.1,0.2-0.1,0.2c0,0,0,0,0,0c0,0.1,0,0.1,0,0.2l0,0c0,0,0,0,0,0
		c-0.1,0-0.1,0-0.2-0.1c-0.1,0-0.1-0.1-0.1-0.2c0-0.1,0-0.1,0-0.2c0,0,0,0,0-0.1c0,0-0.1-0.1-0.1-0.1c0,0,0,0,0,0.1c0,0,0,0,0,0
		c0,0,0,0.1,0,0.1c0,0,0,0,0,0c0,0,0,0,0,0c0,0,0,0,0,0c0-0.1,0-0.1-0.1-0.1c0,0,0,0,0,0c0,0,0,0,0,0c0-0.1-0.1-0.1-0.1,0
		c0,0,0,0,0,0c0,0,0,0,0,0.1c0,0.1,0,0.1,0.1,0.1c0,0,0,0,0,0c0,0,0,0,0,0c0,0,0,0,0,0c-0.1,0-0.1,0-0.1,0c0,0,0,0,0,0
		c0,0,0,0.1,0,0.1c0,0,0-0.1,0-0.1c0,0,0,0,0,0c0,0,0,0,0,0c0,0,0,0,0.1,0c0,0,0,0,0,0c0,0,0,0,0,0c0,0,0,0,0,0
		c-0.1,0.1-0.1,0.1,0,0.1c0,0,0,0,0,0c0,0.1-0.2,0.1-0.2,0c-0.1,0.1,0.1,0.2,0.2,0.2c0,0,0,0,0,0c0,0,0,0,0,0c0,0,0,0,0,0
		c0,0,0,0,0,0c0,0,0,0.1,0.1,0.1c0,0,0,0,0,0c0,0,0-0.1,0.2,0c0,0,0,0,0.1,0.1l0.1,0c0,0.1,0,0.2,0,0.2c0,0-0.2,0-0.2,0
		c-0.1,0-0.3,0.1-0.3,0c0,0,0-0.1,0-0.1c0,0,0,0-0.1-0.1c0,0,0,0,0,0c0,0-0.1,0-0.1,0c0,0,0.1,0,0.1,0c0,0,0,0,0,0
		c0,0,0,0.1,0.1,0.1c0,0,0,0,0,0c0,0,0,0-0.1,0c0,0-0.1-0.1-0.1-0.1c0,0,0,0,0,0c0,0,0,0,0,0c-0.1,0-0.1,0.1-0.1,0.1
		c0,0,0-0.1,0.1-0.1c0,0,0,0,0,0c0,0.1,0,0.1,0.2,0c0,0,0,0,0,0c0,0.1-0.1,0.1-0.1,0.1c0,0,0,0,0,0c0,0,0,0,0,0
		c0,0.1,0.1,0.1,0.1,0.1c0,0,0-0.1,0-0.1c0,0,0,0,0,0c0.1,0,0-0.1,0.1-0.1c0,0,0,0,0,0c0,0,0,0.1,0.1,0.1c0.1,0,0.1-0.1,0.1-0.1
		c0,0,0,0,0,0c0,0,0,0,0,0.1c0,0,0,0,0.1-0.1c0,0,0,0.1,0,0.1c0,0,0.1,0,0.1-0.1c0,0,0,0,0,0c0,0,0,0,0,0c0,0,0.1,0,0.1,0
		c0,0,0,0,0,0c0,0,0,0.1,0,0.1c0,0,0,0,0,0c0,0,0,0.1,0,0.1c0-0.2,0.2-0.1,0.3-0.2c0,0,0,0,0,0c0,0,0,0,0,0.1
		c0.1,0.1,0.3-0.1,0.3-0.2c0,0,0,0,0,0c0,0,0,0,0,0.1c0.1,0,0.1-0.1,0.2-0.1c0.4,0,0.1-0.3,0.7-0.2c0,0,0.1,0,0.1-0.1
		c0,0.1,0,0.2,0,0.3c0,0,0.1,0,0.1,0.1c0,0,0,0,0,0c0,0-0.1,0-0.1,0c-0.1,0.1-0.1-0.2-0.3-0.1c0,0,0,0,0,0c-0.1,0-0.1,0.1-0.1,0.1
		c0,0,0,0,0.1-0.1c0,0,0,0,0,0c0,0,0,0,0.1,0c0,0,0,0,0.1,0c0,0,0,0,0,0c0,0.1-0.2,0-0.1,0.1c0,0,0,0,0,0c0,0,0,0.1,0.1,0.1
		c0,0,0,0,0-0.1c0,0,0,0,0,0c0,0,0,0,0,0c0,0,0,0,0,0c0,0,0,0,0,0c0,0,0,0,0,0c0,0,0,0,0,0c0,0.1,0.1,0.1,0.1,0.1c0,0-0.1,0-0.1,0
		c0,0,0,0,0,0c0,0,0,0,0,0c0,0,0,0,0,0c0,0,0,0,0,0c0,0,0,0,0,0c0,0,0.1,0.1,0.1,0c0.1,0,0-0.1,0.1-0.1c0,0,0,0,0.1,0
		c0.1,0,0.2,0,0.2,0c0,0,0-0.2-0.1-0.2c0,0,0-0.1,0-0.1c0.1,0,0.2,0.1,0.3,0.1c0.2,0,0.3,0,0.4-0.1c0.1-0.1,0.2,0,0.2,0c0,0,0,0,0,0
		c0,0.1,0,0.1,0,0.2c0,0-0.1,0-0.2,0c0,0-0.1,0-0.1,0c-0.1,0-0.1,0.1-0.1,0.1c0,0,0.1,0,0.1,0c0,0,0,0,0,0c0,0.1,0.1,0.1,0.1,0
		c0,0,0,0,0,0c0,0-0.1,0.1-0.1,0.1c0,0,0,0,0,0c0,0,0,0.1,0,0.1c0,0,0,0,0-0.1c0,0,0,0,0,0c0,0,0-0.1,0.1-0.1c0,0,0,0,0,0
		c0,0-0.1,0.1,0,0.1c0,0,0,0,0,0c0,0,0,0.1,0.1,0c0,0,0,0,0,0c0,0,0,0,0,0c0.1-0.1,0-0.1,0-0.1c0,0,0.1,0,0.1-0.1c0,0,0-0.1,0-0.1
		c0,0,0,0,0,0h0c0,0,0.1,0,0.1,0c-0.1,0,0-0.1,0-0.1c0,0,0,0,0,0c0,0,0.1-0.1,0.1-0.1c0,0-0.1,0.1-0.1,0c0,0,0-0.1-0.1,0
		c-0.1,0-0.3,0-0.6,0c0,0,0,0,0,0c0.2,0,0.7,0,0.7-0.2c0-0.1-0.1-0.2-0.5-0.2c-0.4,0-1.4,0.2-1.4-0.1C-39.7,350-39.5,350-39.3,350
		 M-40.6,350.1c0,0,0.1,0.1,0.2,0.1c-0.1,0-0.1,0-0.1,0C-40.6,350.2-40.6,350.1-40.6,350.1 M-40.7,350c0,0-0.1,0.1-0.1,0
		c0,0,0,0,0-0.1C-40.8,350-40.7,350-40.7,350 M-40.8,350.3C-40.8,350.3-40.8,350.3-40.8,350.3C-40.8,350.3-40.8,350.3-40.8,350.3
		c0.1-0.1,0.1-0.1,0-0.2c0,0,0,0,0,0c0,0,0,0-0.1,0c0,0,0,0,0,0c0,0,0,0,0,0l0.1,0.1c0,0,0,0,0,0c0,0,0,0,0,0c0,0,0,0,0,0
		c0,0,0,0,0,0.1c0,0-0.1,0-0.1,0c0,0,0,0,0,0.1c0,0,0,0,0,0.1c0,0,0,0.1-0.1,0.1C-40.9,350.4-40.9,350.4-40.8,350.3"/>
	<path id="XMLID_447_" class="st1" d="M-39.7,351.8c0,0,0,0.1,0.1,0.1c0.5,0.2,1.2-0.3,1.5-0.2c-0.4-0.1-0.7,0.1-1.1,0
		c0.2,0,0.5-0.1,0.5-0.1c-0.2,0.1-0.7-0.1-0.9,0.1C-39.7,351.7-39.7,351.7-39.7,351.8c-0.2,0-0.3,0-0.3,0.2c0,0.2,0.2,0.2,0.6,0.2
		c0.4,0,0.8-0.1,0.8,0c0,0.1-0.3,0.2-0.6,0.2c-0.3,0-0.8-0.2-1.4,0v0c0-0.1,0.2-0.3,0.1-0.3c0,0,0.1-0.1,0.1-0.1c0,0-0.1,0-0.1,0
		c0,0,0-0.1,0-0.1c0,0,0-0.1,0-0.1c0,0-0.1-0.1-0.1-0.1c-0.1,0-0.1,0-0.1,0c0,0-0.1,0-0.1,0c0,0-0.1,0-0.1,0c0,0-0.1,0-0.1,0
		c0,0,0,0.1,0,0.1c0,0-0.1,0.1-0.1,0.1c0,0,0,0,0,0c0,0.1-0.1,0.2-0.1,0.2c0,0,0,0,0.1,0.1c0,0.1,0,0.2,0,0.3
		c-0.1-0.1-0.2-0.3-0.3-0.3c-0.1,0-0.1-0.1-0.1-0.2c0-0.1,0-0.1,0-0.2c0,0,0,0,0-0.1c0,0-0.1-0.1-0.1-0.1c0,0,0,0,0,0.1c0,0,0,0,0,0
		c0,0,0,0,0,0.1c0,0,0,0,0,0c0,0,0,0,0,0c0,0,0,0,0,0c0-0.1,0-0.1-0.1-0.1c0,0,0,0,0,0c0,0,0,0,0,0c0,0-0.1-0.1-0.1,0c0,0,0,0,0,0
		c0,0,0,0.1,0,0.1c0,0.1,0,0.1,0.1,0.1c0,0,0,0,0,0c0,0,0,0,0,0c0,0,0,0,0,0c-0.1,0-0.1,0-0.1,0c0,0,0,0,0,0c0,0,0,0.1,0,0.1
		c0,0,0-0.1,0-0.1c0,0,0,0,0,0c0,0,0,0,0,0c0,0,0,0,0.1,0c0,0,0,0,0,0c0,0,0,0,0,0c0,0,0,0,0,0c-0.1,0.1-0.1,0.1,0,0.1c0,0,0,0,0,0
		c0,0.1-0.2,0.1-0.2,0c-0.1,0.1,0.1,0.2,0.2,0.2c0,0,0,0,0,0c0,0,0,0,0,0c0,0,0,0,0,0c0,0,0,0,0,0c0,0,0,0.1,0.1,0.1c0,0,0,0,0,0
		c0,0,0,0.2,0.2,0.3c0,0.1,0.1,0.1,0.2,0.1c0,0.1,0.1,0.1,0.1,0.1c0,0-0.2,0-0.3,0c0,0-0.1,0-0.1,0.1c0,0,0,0,0,0
		c-0.1,0-0.1,0-0.1,0c0,0,0-0.1,0-0.1c0,0,0,0-0.1-0.1c0,0,0,0,0,0c0,0-0.1,0-0.1,0c0,0,0,0,0.1,0c0,0,0,0,0,0c0,0,0,0.1,0.1,0.1
		c0,0,0,0,0,0c0,0,0,0-0.1,0c0,0-0.1-0.1-0.1-0.1c0,0,0,0,0,0c0,0,0,0,0,0c-0.1,0-0.1,0.1-0.1,0.1c0,0,0,0,0.1-0.1c0,0,0,0,0,0
		c0,0.1,0,0.1,0.2,0c0,0,0,0,0,0c0,0.1-0.1,0.1,0,0.1c0,0,0,0,0,0c0,0,0,0,0,0c0,0.1,0.1,0.1,0.1,0.1c0,0,0-0.1,0-0.1c0,0,0,0,0,0
		c0.1,0,0-0.1,0.1-0.1c0,0,0,0,0,0c0,0,0,0.1,0.1,0.1c0.1,0,0.1-0.1,0.1-0.1c0,0,0,0,0,0c0,0,0,0,0,0.1c0,0,0,0,0.1-0.1
		c0,0,0,0.1,0,0.1c0,0,0.1,0,0.1-0.1c0,0,0,0,0,0c0,0,0,0,0,0c0,0,0.1,0,0.1,0c0,0,0,0,0,0c0,0,0,0.1,0,0.1c0,0,0,0,0,0
		c0,0,0,0.1,0,0.1c0-0.2,0.1-0.1,0.2-0.2c0,0,0,0,0,0c0,0,0,0,0,0.1c0,0,0.2-0.1,0.2-0.1c0,0,0.1-0.1,0.1-0.3c0,0,0,0,0,0
		c0.1,0,0.2-0.1,0.4-0.1c0,0-0.1,0.1,0,0.2c0,0.1,0.1,0.2,0.1,0.2c0,0,0,0,0,0c0,0-0.1,0-0.1,0c-0.1,0.1-0.1-0.2-0.2-0.1
		c0,0,0,0,0,0c-0.1,0-0.1,0.1-0.1,0.1c0,0,0,0,0.1,0c0,0,0,0,0,0c0,0,0,0,0,0c0,0,0,0,0,0c0,0,0,0,0,0c0,0-0.2,0-0.1,0.1
		c0,0,0,0,0,0c0,0,0,0.1,0.1,0.1c0,0,0,0,0-0.1c0,0,0,0,0,0c0,0,0,0,0,0c0,0,0,0,0,0c0,0,0,0,0,0c0,0,0,0,0,0c0,0,0,0,0,0
		c0,0,0.1,0.1,0.1,0c0,0-0.1,0-0.1,0c0,0,0,0,0,0c0,0,0,0,0,0c0,0,0,0,0,0c0,0,0,0,0,0c0,0,0,0,0,0c0,0,0.1,0.1,0.1,0
		c0.1,0,0-0.1,0.1-0.1c0,0,0,0,0.1,0c0.1,0,0.1,0,0.1,0c0,0,0-0.2-0.1-0.2c0,0,0.1-0.3-0.1-0.4c0.1,0,0.4,0.1,0.5,0
		c0.1,0,0.2,0.1,0.2,0.1c0,0,0,0,0,0.1c-0.1,0.1-0.1,0.1-0.1,0.1l0,0c0,0-0.1-0.1-0.1-0.1c0,0-0.1,0-0.1,0c0,0-0.1,0-0.1,0.1
		c0,0,0.1,0,0.1,0c0,0,0,0,0,0c0,0,0,0,0,0h0h0c0,0,0,0,0,0c0,0,0,0,0,0c0,0-0.1,0-0.1,0c0,0,0,0,0,0c0,0,0,0.1,0,0.1
		c0,0,0,0,0.1-0.1c0,0,0,0,0,0c0,0,0.1,0,0.1,0c0,0,0,0,0,0c0,0-0.1,0.1-0.1,0.1c0,0,0,0,0,0c0,0,0,0.1,0.1,0.1c0,0,0,0,0-0.1
		c0,0,0,0,0.1,0c0.1,0,0-0.1,0.1-0.1c0,0,0.1,0.1,0.1,0c0,0,0,0,0-0.1c0,0,0,0,0,0v0c0,0,0,0,0.1,0c-0.1,0,0-0.1,0-0.1c0,0,0,0,0,0
		c0,0,0.1,0,0.1-0.1c0,0-0.1-0.1-0.1-0.1c0.1,0,0.1-0.1,0.1-0.1c-0.1-0.1-0.2-0.1-0.2-0.2c0.1,0,0.1,0,0.1,0c0.5,0,0.8-0.1,0.8-0.3
		c0-0.1-0.1-0.2-0.5-0.1c-0.4,0-0.9,0.1-0.9-0.1C-39.9,351.9-39.8,351.8-39.7,351.8 M-40.8,351.8C-40.9,351.8-40.9,351.8-40.8,351.8
		c-0.1,0-0.1,0-0.1-0.1C-40.9,351.7-40.9,351.8-40.8,351.8 M-40.8,352C-40.8,352-40.8,352-40.8,352C-40.8,352-40.8,352-40.8,352
		c-0.1,0-0.1,0-0.1,0c0,0,0,0,0,0.1c0,0,0,0,0,0.1c0,0,0,0.1-0.1,0c0,0,0-0.1,0-0.1c0,0,0,0,0,0c0,0,0,0,0.1,0c0,0,0,0,0-0.1
		c0,0,0,0,0,0c0,0,0,0-0.1,0c0,0,0,0,0,0c0,0,0,0,0,0L-40.8,352C-40.8,352-40.8,352-40.8,352C-40.8,352-40.7,352-40.8,352
		 M-40.7,351.9c0,0-0.1-0.1-0.1-0.1c0,0,0.1,0.1,0.2,0.1C-40.7,351.9-40.6,351.9-40.7,351.9"/>
	<path id="XMLID_442_" class="st1" d="M-49.6,346.6c-0.1-0.5,0-0.9-0.5-1.5c-0.5-0.6-2.3-2.5-2.8-3.1c0.1,0,0.3,0,0.6,0.3
		c0.2,0.2,0.7,0.7,1.1,1.1c0.5-1.2,1.1-2.3,2-3.3c0.2-0.2,0.3-0.3,0.5-0.5c-0.4,0.1-0.8,0.3-1.1,0.5c0-0.5-0.1-1-0.5-1.4
		c0.1-0.7,0-1.6-1.6-2.7c0.9,0.2,1.4,1,2,0.4c-0.6,0-0.6-1.3-2.7-2.4c0.8,0,1.4,1.3,2.4,0.5c-0.9-0.1-1.2-1.7-2.8-2.2
		c0.5,0.1,1.1,0.3,1.6-0.3c-0.5,0.1-0.9-0.4-1.5-0.4c0.2-0.7,0.2-1.1-0.1-1.6c-0.4,0-0.8,0.2-1.1,0.4c0-0.4-0.4-0.4-0.8-0.4
		c0,0.2,0.1,0.4-0.1,0.4c-0.3,0.1-1.2,0.3-2,0.6c-0.7,0.3-1.6,0.8-1.8,1c-0.1,0.1-0.3-0.1-0.4-0.2c-0.3,0.2-0.5,0.5-0.3,0.8
		c-0.4,0-0.9,0.1-1.2,0.4c0,0.5,0.4,0.9,1,1.2c-1,1-0.1,1.9-1,2.7c1.2,0,1-1.6,1.6-1.9c-0.1,1.2-0.7,1.4-0.7,2.7
		c0,0.7,0.4,1.4,0,1.9c1-0.3,0.7-2.5,1.4-3.2c0.1,0.4,0,0.8-0.1,1.1c-0.4,1,0,2.5-0.5,2.9c0.9-0.1,1.1-1.4,1.7-2.1
		c-0.6,1.7-1.3,4.6-2.3,6c-1.8,2.4-2.8,5.3-4.4,5.3c-0.7,0-1.2-0.4-1.2-1.3c0-2.7,4.6-4.6,4.6-7.5c0-1.3-1-1.8-1.7-1.8
		c-0.4,0-1,0.2-1.4,0.6c-0.2-0.1-0.4-0.1-0.5-0.1c-1.6,0-1.2,2.9-2.6,2.9c0.6,0.3,1.5-0.3,2.1-1.1c-0.2,1.9-3,1.4-2.8,3.7
		c0.4-1.8,4.8-1.5,4.8-4.3c0-0.3-0.2-0.6-0.4-0.8c0.3-0.2,0.6-0.3,0.9-0.3c0.5,0,1,0.4,1,1.2c0,2.4-4.6,4.5-4.6,7.4
		c0,0.5,0.1,0.9,0.4,1.2c-0.3,0.1-0.7,0.1-0.9-0.3c0,0.8,1.1,1.2,1.8,0.9c0.2,0.1,0.3,0.1,0.5,0.1c-0.2,0.6-0.9,0.7-1.3,0.7
		c1.1,0.9,3.1-0.3,3-1.3c0.9-0.7,1.5-2,2.1-2.8c0,0.2-0.1,0.4-0.1,0.6c-0.7,1.2-1.3,2.3-1.5,3.9c-0.1,1.3-0.8,2.5-1.7,2.5
		c-0.2,0-0.5-0.3-0.7-0.1c-0.3,0.2,0,0.5,0,0.8c0,0.4-0.7,0.8-0.7,1.9c0,0.5,0.3,1.2,0.2,1.5c0.3-0.2,0.7-0.6,0.9-1.3
		c0.3,1.5-0.7,1.5,0,2.8c0.1-0.5,0.5-0.6,0.8-0.5c0.3,0.2,0.1,0.3-0.1,0.5c-0.2,0.2-0.4,1.2,0.5,1.2c-0.2-0.1-0.2-0.4,0.3-0.5
		c0.6-0.1,0.8,0.2,1.5,0.2c0.4,0,0.5-0.6,0.9-0.6c0.3,0,0.3,0.3,0.2,0.5c0.5-0.1,0.6-0.4,0.6-0.7c0-0.3-0.2-0.5-0.1-0.6
		c0.2-0.1,0.8,0,0.6,0.5c0.3-0.1,0.5-0.3,0.5-0.7c0-0.4-0.5-0.6-0.9-0.6c-0.1-0.2-0.4-0.4-0.8-0.4c-0.8,0-0.6,0.6-1.2,0.6
		c-0.8,0-1.6-1.1-1.6-2.9c0-1,1-1.2,1.8-1.5c0.7-0.3,2-1.1,2.8-2.4c0.6-1,0.6-2.1,0.6-3.5c1,0.6,1.2,1.5,1.2,2.1
		c0,0.8-0.4,1.1-0.8,1.3c-0.3,0.1-0.4,0.1-0.4,0.2c0,0.2,0.1,0.3,0.2,0.4c0.4,0.2,0.3,0.6,0.4,0.9c0.1,0.4,0.5,1,1,1.5
		c0.1-0.2,0-0.6,0-1.1c0.8,0.4,0.2,2,1.7,2c-0.3-0.2-0.2-0.6,0-0.6c0.2-0.1,0.4,0.1,0.7,0.5c0.3,0.4,0.2,0.4,1,0.4
		c0.7,0,0.4-0.3,0.8-0.3c0.4,0,0.4,0.5,0.2,0.8c0.7-0.2,0.9-0.7,0.6-1.2c0.6-0.3,0.9,0.1,1,0.4c0.6-0.6,0-1.3-0.4-1.3
		c0-0.2-0.2-0.4-0.4-0.5c-0.2,0-0.5,0-0.7,0c-0.3,0-0.4,0.4-0.7,0.4c-1,0-2.9-1.8-2.9-2.5s1.9-1.2,1.9-2.4c0-1.6-1.5-2.1-2.8-3.1
		c0.5-0.5,1.8-0.6,2.6-0.3c0.1-0.4,0.4-0.3,0.5-1.1c0.3,0.7-0.1,1.2,0.2,1.5c0.2-0.3,0.8-0.3,0.7-1.1c0.2,0.5-0.2,1.3,0.2,1.6
		c0.1-0.4,0.3-0.5,0.5-0.5c0.2,0,0.3,0.1,0.3,0.4c0,0.6-0.7,0.5-0.7,1.2c0,0.3,0.4,0.4,0.4,0.6c0,0.2-0.3,0.5-0.7,0.2
		c0.1,0.3,0.4,0.5,0.7,0.5c0.3,0,0.7-0.3,0.8-0.6c0.2,0.4,0,0.9-0.3,1c0.3,0.2,1.1,0,1-1c0.5,0.1,0.7,0.4,0.4,0.9
		c0.4-0.1,0.7-0.3,0.7-0.7c0-0.3-0.3-0.5-0.2-0.9C-49.1,347.4-49.6,347.1-49.6,346.6 M-57.8,333.8c-0.4,0-0.4-0.4-1.2-0.5
		c0.5-0.1,1.2-0.4,1.8-0.6C-57,333.1-57.2,333.7-57.8,333.8 M-54.8,337c-0.5,0.2-1-0.2-1.1-0.6c-0.1-0.3-0.2-0.6-0.1-0.7
		c0.2-0.2,0.3-0.4,0.2-0.7c-0.2-0.3-0.5-0.2-0.9-0.1c0.2-0.3,0.2-0.5-0.1-0.5c-0.3,0-0.3,0.5-0.5,0.4c-0.2-0.1-0.1-0.3-0.1-0.5
		c0-0.2,0.1-0.3,0.3-0.4l1.6-0.6c0.2-0.1,0.3-0.1,0.5,0c0.1,0.1,0.4,0.2,0.3,0.4c-0.1,0.2-0.4-0.2-0.6,0c-0.2,0.1,0,0.3,0.3,0.4
		c-0.3,0.2-0.7,0.3-0.6,0.7c0.1,0.3,0.3,0.4,0.6,0.4c0.2,0,0.3,0.3,0.5,0.6C-54.2,336.1-54.2,336.7-54.8,337 M-54.7,332.6
		c-0.4,0.3-1,0-1.2-0.4c0.6-0.2,1.3-0.5,1.7-0.8C-54.6,332-54.4,332.3-54.7,332.6"/>
	<path id="XMLID_441_" class="st1" d="M-60,330.1c0-0.2-0.1-0.3-0.3-0.3c-0.2,0-0.3,0.1-0.3,0.3c0,0.2,0.1,0.3,0.3,0.3
		C-60.1,330.4-60,330.2-60,330.1"/>
	<path id="XMLID_440_" class="st1" d="M-60.1,329.3c0-0.2-0.1-0.3-0.3-0.3s-0.3,0.1-0.3,0.3c0,0.2,0.1,0.3,0.3,0.3
		S-60.1,329.4-60.1,329.3"/>
	<path id="XMLID_439_" class="st1" d="M-59.9,328.9c0.2,0,0.3-0.1,0.3-0.3c0-0.2-0.1-0.3-0.3-0.3c-0.2,0-0.3,0.1-0.3,0.3
		C-60.2,328.8-60.1,328.9-59.9,328.9"/>
	<path id="XMLID_438_" class="st1" d="M-59.1,328.9c0.2,0,0.3-0.1,0.3-0.3c0-0.2-0.1-0.3-0.3-0.3c-0.2,0-0.3,0.1-0.3,0.3
		C-59.4,328.7-59.3,328.9-59.1,328.9"/>
	<path id="XMLID_437_" class="st1" d="M-55.7,328.3c0.1,0.1,0.3,0.1,0.4,0c0.1-0.1,0.1-0.3,0-0.4c-0.1-0.1-0.3-0.1-0.4,0
		C-55.8,328-55.8,328.2-55.7,328.3"/>
	<path id="XMLID_436_" class="st1" d="M-55.7,327.7c0.1-0.1,0.1-0.3,0-0.4c-0.1-0.1-0.3-0.1-0.4,0c-0.1,0.1-0.1,0.3,0,0.4
		C-56,327.8-55.8,327.8-55.7,327.7"/>
	<path id="XMLID_435_" class="st1" d="M-56.5,327.5c0.1-0.1,0.1-0.3,0-0.4c-0.1-0.1-0.3-0.1-0.4,0c-0.1,0.1-0.1,0.3,0,0.4
		C-56.8,327.6-56.6,327.6-56.5,327.5"/>
	<path id="XMLID_434_" class="st1" d="M-57.2,328c0.1-0.1,0.1-0.3,0-0.4c-0.1-0.1-0.3-0.1-0.4,0c-0.1,0.1-0.1,0.3,0,0.4
		C-57.5,328.2-57.3,328.2-57.2,328"/>
	<path id="XMLID_433_" class="st1" d="M-59.1,327.6l0.2,0.5l0.3-0.4c0,0,0,0,0,0c0,0.2,0,0.5,0,0.7c0,0.2,0.2,0.4,0.4,0.4
		c0.2,0,0.4-0.2,0.4-0.4c0-0.1-0.1-0.3-0.2-0.3c-0.1-0.1-0.3-0.3-0.4-0.4c0,0,0,0,0,0l0.5,0l-0.2-0.5l-0.4,0.3c0,0,0,0,0,0l0-0.6
		l-0.5,0.2l0.4,0.4c0,0,0,0,0,0L-59.1,327.6z"/>
	<path id="XMLID_432_" class="st1" d="M-55.6,328.6c0.1,0.2,0.2,0.3,0.2,0.4c-0.1,0-0.2-0.1-0.3-0.3l0.1,0.7
		c0.1-0.1,0.2-0.2,0.3-0.3c0,0.5-0.2,0.6-0.4,0.7c-0.2,0-0.3-0.1-0.4-0.2c0-0.2,0.1-0.3,0.3-0.1c0-0.4-0.3-0.4-0.5-0.2
		c0.2-0.4,0.1-0.7-0.3-0.9c-0.2,0.4-0.1,0.6,0.2,0.9c-0.3-0.1-0.5,0.1-0.3,0.4c0.1-0.3,0.3-0.2,0.3,0c0,0.2-0.1,0.4-0.4,0.5
		c-0.4,0.1-0.6-0.1-0.7-0.4c0.1-0.1,0.3,0,0.6,0.1l-0.2-0.7c-0.1,0.2-0.2,0.3-0.4,0.4c0-0.2,0.1-0.6,0.1-0.6l-0.8,0.3
		c0,0,0.4,0.2,0.5,0.3c-0.2,0.1-0.3,0.1-0.6,0l0.3,0.6c0.1-0.3,0.2-0.5,0.3-0.5c0.1,0.2,0.2,0.5-0.2,0.7c-0.3,0.1-0.6,0.1-0.7-0.1
		c-0.1-0.2,0-0.4,0.2-0.2c0-0.4-0.4-0.4-0.5-0.1c0-0.4-0.1-0.7-0.5-0.8c-0.1,0.4,0,0.7,0.4,0.8c-0.2,0-0.5,0.2-0.2,0.5
		c0-0.3,0.2-0.3,0.3-0.1c0.1,0.1,0.1,0.3-0.1,0.4c-0.1,0.1-0.4,0.1-0.7-0.2c0.1,0,0.2,0,0.4,0l-0.4-0.5c0,0.2,0,0.3,0,0.4
		c-0.1-0.1-0.1-0.2-0.2-0.4l-0.3,0.3c0.3,0.2,0.7,0.5,1.1,1.1c0.5-0.3,1.3-0.7,1.8-0.9c0.5-0.2,1.4-0.5,2-0.6
		c-0.1-0.8-0.1-1.2,0-1.6L-55.6,328.6z"/>
	<path id="XMLID_429_" class="st1" d="M-19.6,355.2c0,0.7,0.6,1.3,1.3,1.3c0.7,0,1.3-0.6,1.3-1.3c0-0.7-0.6-1.3-1.3-1.3
		C-19,353.9-19.6,354.4-19.6,355.2 M-19.2,355.2c0-0.5,0.4-1,1-1c0.5,0,1,0.4,1,1c0,0.5-0.4,1-1,1
		C-18.8,356.1-19.2,355.7-19.2,355.2"/>
	<path id="XMLID_426_" class="st1" d="M-24.4,356.4c-0.2,0.1-0.3,0.3-0.3,0.5c0,0.2,0,0.5,0.2,0.7c0.2,0.2,0.4,0.3,0.7,0.4
		c0.3,0,0.5,0,0.7-0.1c0.2-0.1,0.4-0.3,0.4-0.5h0c0.1-0.5-0.3-0.9-0.9-1C-23.9,356.2-24.2,356.2-24.4,356.4 M-23.8,357.5
		c-0.4-0.1-0.6-0.3-0.6-0.6c0-0.1,0.1-0.2,0.2-0.3c0.2-0.1,0.4-0.1,0.6-0.1c0.3,0.1,0.6,0.3,0.6,0.6c0,0,0,0,0,0.1
		C-23.1,357.4-23.5,357.6-23.8,357.5"/>
	<path id="XMLID_423_" class="st1" d="M-31.6,338.1c-0.4,0.3-0.5,0.8-0.3,1.2c0.3,0.3,0.8,0.4,1.2,0c0.2-0.2,0.4-0.4,0.4-0.7
		c0-0.2,0-0.4-0.1-0.5c-0.1-0.1-0.3-0.2-0.5-0.3C-31.1,337.8-31.4,337.9-31.6,338.1 M-31.7,338.8c0-0.2,0.1-0.4,0.3-0.5
		c0.2-0.1,0.3-0.2,0.5-0.2c0.1,0,0.2,0,0.2,0.1c0.1,0.1,0.1,0.2,0.1,0.3c0,0.2-0.1,0.3-0.3,0.4c-0.3,0.2-0.6,0.2-0.7,0
		C-31.7,339-31.7,338.9-31.7,338.8"/>
	<path id="XMLID_420_" class="st1" d="M-26,354.2c-0.2,0.2-0.3,0.5-0.3,0.8v0c0,0.3,0.1,0.6,0.3,0.8c0.1,0.2,0.3,0.2,0.5,0.2
		c0.2,0,0.4-0.1,0.5-0.2c0.2-0.2,0.3-0.5,0.3-0.8c0-0.3-0.1-0.5-0.2-0.7c-0.2-0.2-0.4-0.3-0.6-0.3C-25.6,354-25.8,354.1-26,354.2
		 M-25.5,355.7L-25.5,355.7c-0.1,0-0.2-0.1-0.3-0.1c-0.1-0.1-0.2-0.3-0.2-0.6c0-0.2,0.1-0.4,0.2-0.5c0.1-0.1,0.2-0.1,0.3-0.1
		c0.3,0,0.5,0.3,0.5,0.7c0,0.2-0.1,0.4-0.2,0.5C-25.2,355.6-25.3,355.7-25.5,355.7"/>
	<path id="XMLID_417_" class="st1" d="M-32.4,343.7c-0.2,0.1-0.4,0.2-0.4,0.4c-0.2,0.4,0,1,0.6,1.2c0.3,0.1,0.6,0.2,0.8,0.1
		c0.2-0.1,0.4-0.2,0.4-0.4c0.1-0.2,0.1-0.4,0-0.6c-0.1-0.3-0.3-0.5-0.6-0.6C-31.8,343.6-32.1,343.6-32.4,343.7 M-32.1,344.9
		c-0.3-0.2-0.5-0.5-0.4-0.8c0.1-0.1,0.2-0.2,0.2-0.2c0.2-0.1,0.4,0,0.6,0.1c0.2,0.1,0.3,0.3,0.4,0.4c0,0.1,0.1,0.2,0,0.3
		c-0.1,0.1-0.2,0.2-0.2,0.2C-31.7,345.1-31.9,345-32.1,344.9"/>
	<path id="XMLID_408_" class="st1" d="M-18.6,342.3c0.4,1.2,1.3,1.6,1.9,1.3c-1.4-0.2-0.3-2.6-2.1-2.6c-0.1,0-0.2,0-0.3,0
		c-0.3-0.3-0.7-0.5-1.2-0.5c-0.8,0-2.1,0.8-2.1,2.3c0,3.4,3.9,3.7,3.9,6.6c0,0.9-0.7,1.4-1.4,1.4c-0.7,0-1.2-0.7-1.7-1.9
		c-0.3-0.5-0.8-1.3-1.4-2.1c0.2,0.1,0.4,0.2,0.6,0.2c0.2,0,0.4-0.1,0.5-0.2c0.1-0.1,0.2-0.3,0.2-0.5c0,0,0,0,0,0
		c0-0.3-0.1-0.5-0.3-0.8c-0.2-0.2-0.5-0.4-0.8-0.4c-0.2,0-0.4,0.1-0.5,0.2c-0.1,0.1-0.2,0.3-0.2,0.5c0,0,0,0,0,0
		c0,0.1,0,0.2,0.1,0.3c-0.8-1.1-1.6-2.2-1.6-2.8c0-0.5,0.4-1,0.8-1.5c0,0,0.2,0.1,0.2,0.1l0.1-0.1c0.2-0.2,0.5-0.5,1.2-1.3l0,0l0,0
		l0.2-0.2l-0.4-0.3c0.1-0.3,0.2-0.5,0.3-0.8c0.1,0.5,0.4,0.9,0.8,0.8c-0.3-0.6,0.3-1.3-0.1-2.7c0.3,0.5,0.8,0.8,1.1,0.7
		c-0.9-0.8,0.3-1.8-0.9-3.5c0.4,0.1,0.6,0.1,0.8-0.1c-1-0.1-0.6-1.5-2.4-1.9c0.5-0.1,0.7-0.3,0.6-0.6c-0.5,0.3-0.9-0.6-2.5-0.6
		c-0.1-0.6-0.6-1.2-1.3-1.5c0.1,0.5,0,0.9-0.1,1.2l-5.1-5c-0.1-0.1-0.2-0.2-0.3-0.1c0,0.1,0,0.1,0.1,0.2l4.4,5.5
		c-0.3,0.1-0.7,0.2-1,0.4c-0.2,0.1-0.4,0.3-0.4,0.6c-0.8,0.4-1.5,0.9-1.9,1.2c-0.3,0.2-0.5,0.3-0.2,0.9c0.1,0.2-0.2,0.7,0.4,0.3
		c0.4-0.2,1.4-0.8,1.5-0.4c0.1,0.2-0.4,0.4-0.7,0.5c-0.3,0.1-0.7,0.4-0.6,0.5c0,0.1,0.3,0,0.3,0.1c0,0.1,0.1,0.3,0.2,0.3
		s0.3-0.3,0.4-0.2c0.1,0.1-0.1,0.7-0.2,0.8c0.5-0.1,0.8-0.5,0.8-0.9c0-0.4,0.1-0.5,0.2-0.5c0.1-0.1,0.2,0.4,0.1,0.7
		c0.3-0.1,0.5-0.4,0.5-1c0.1-0.1,0.3-0.2,0.4-0.2c0.2,0,0.5,0.5,1,0.5c0.9,0,1.3-0.7,1.4-1c0-0.3,0-0.5-0.1-0.7
		c0.3,0.2,0.4,0.6,0.4,0.9c0,1.2-2.2,1.8-3.1,2.7c0,0-0.1,0.1-0.1,0.1l-1-0.4l-0.1,0.2c0,0,0,0.1-0.1,0.2c-0.1,0.3-0.3,1.1-0.5,1.5
		c0,0-0.1,0.2-0.1,0.2l0.1,0.1c-0.6,0.8-1.1,1.7-1.2,2.6c-0.2-0.3-0.5-0.5-0.7-0.7c0-0.1,0-0.2,0.1-0.3c0-0.3-0.1-0.5-0.2-0.7
		c-0.1-0.1-0.3-0.2-0.5-0.2c-0.2,0-0.4,0.1-0.5,0.2c0,0-0.1,0.1-0.1,0.1c0,0-0.1-0.1-0.1-0.1c-0.3-0.3-0.8-0.6-1-0.8
		c-0.1-0.1-0.2-0.2-0.4-0.2c-0.1,0-0.3,0-0.5,0c-0.2,0-0.2,0.1-0.4,0.3c-0.1,0.1-0.4,0.3-0.7,0.6c0.2,0.2,0.3,0.3,0.5,0.5
		c0,0,0.1,0.1,0.1,0.1c0.1-0.1,0.3-0.2,0.3-0.3c0.1-0.1,0.2-0.1,0.4-0.1c0.1,0,0.3,0.1,0.4,0.3c0.1,0.1,0.9,1.2,1.6,2
		c-0.1,0-0.2,0.1-0.2,0.1c-0.3,0.1-1,0.1-1.2,0.1c-0.3,0-0.3-0.1-0.5,0.2c-0.1,0.1-0.2,0.3-0.3,0.4c-0.1,0.1-0.2,0.3,0,0.6
		c0.3,0.5,1,1.8,1.3,2.5c0.2,0.6,0.5,0.7,1,0.9c0.5,0.2,1.3,0.7,1.4,0.8l0-0.5c-0.1-0.1-0.6-0.3-0.8-0.4c-0.2-0.1-0.2-0.1,0-0.1
		c0.2,0,0.8,0.2,1.2,0.4c-0.1-0.5-0.6-0.9-0.8-1.2c-0.3-0.1-0.7-0.1-0.8,0c0,0.1-0.1,0.2-0.2,0.2c-0.1,0-0.2-0.1-0.2-0.2
		c0-0.1,0.2-0.2,0.2-0.4c0-0.3-0.4-0.3-0.6-0.3c-0.3-0.4-0.6-1-0.8-1.3c-0.2-0.2-0.1-0.4,0-0.5c0.2-0.2,0.8,0.1,1.8,0.2
		c0.4,0,0.8,0,1.3,0.1c0.1,1.2,0.6,2.3,2.3,2.8c0.8,0.2,1.7,0.8,2,1.6c-3.3-0.1-3.9,1.2-3.9,2.5c0,1.4,1.2,1.3,1.2,2.4
		c0,0.9-2.8,1.3-3.7,1.4c-0.7,0.1-1.1,0.3-1.5,0.6c-0.3,0.3-0.7,0.7-1.3,1.3c0,0,0.3,0.1,0.5,0l0.5-0.6c0.1-0.2,0.2-0.4,0.3-0.4
		c0.1,0,0,0.2-0.1,0.4l-0.4,0.7c1.6,0.1,1.8-0.5,1.8-0.8c0-0.3-0.4-0.4-0.2-0.6c0.2-0.2,0.4,0,0.6,0.2c0.2,0.2,0.2,0.4,0.7,0.2
		c0,0,3.6-1.5,4.1-1.7c0.4-0.2,0.3-0.4,0-0.6c-0.3-0.2-0.3-0.6-0.3-1c0-1.1,0.7-1.4,1.8-1.4c0,0.2,0,0.4,0,0.5
		c0,1.7,2.6,3.4,3.3,3.4c0.3,0,0.7-0.2,0.8,0.8c0,0.8,0.2,1.3,0,2.2c-0.1,0.9-0.4,1-0.9,1.4c-0.5,0.4-1,1.5-1.2,1.8
		c0.2,0.2,0.5,0.2,0.7-0.4c0.2-0.5,0.3-0.8,0.5-0.9c-0.2,0.5-0.4,1.3-0.4,1.5c0.7,0.1,1.7-0.5,1.7-0.9c0-0.5-0.4-0.4-0.4-0.7
		c0-0.1,0.2-0.3,0.4-0.3c0.3,0,0.5,0.2,0.5,0.3c0.3-0.2,0.5-0.4,0.5-1.1c0-0.3,0-0.5,0-0.8c0,0,0,0.1,0.1,0.1
		c0.1,0.2,0.3,0.3,0.6,0.3c0.2,0,0.5,0,0.7-0.2c0.3-0.2,0.4-0.4,0.5-0.7c0-0.1,0-0.1,0-0.2c0-0.1,0-0.3-0.1-0.4
		c-0.1-0.2-0.3-0.3-0.5-0.3c-0.3-0.1-0.6,0-0.8,0.2c-0.2,0.2-0.4,0.4-0.5,0.6c-0.1-0.9-0.1-1.8-0.1-2.1c0-0.5,0.1-0.8-0.1-0.8
		c-0.2-0.1-0.4,0.2-0.6,0.2c-0.3,0-1-0.7-1-1.4c0-0.7,0.8-1.7,0.8-2.7c0-0.3,0.2-0.5,0.3-0.2c0.2,0.3,0.4,0.8,0.7,1.2
		c-0.2,1.3,1.2,2.5,2.3,1.6c-0.6,0.1-1-0.4-1.2-0.9c0.1,0,0.2,0,0.3,0c0.1,0,0.1,0,0.2,0c0.4,0.5,1.7,0.5,2-0.8
		c-0.2,0.3-0.7,0.5-1,0.4c0.5-0.4,0.7-1,0.7-1.6c0-3.2-3.9-3.6-3.9-6.5c0-1.1,0.9-1.8,1.6-1.8c0.3,0,0.4,0.1,0.6,0.2
		c-0.3,0.3-0.4,0.6-0.4,1.1c0.1,2.3,3.9,2.2,3.9,3.3C-15.7,344.1-18.5,344.6-18.6,342.3 M-28.7,333.5c0.2-0.3,0-0.9,0.6-0.9
		c0.3,0,0.6,0.3,1,0.4C-27.7,333.1-28.2,333.2-28.7,333.5 M-32.1,340.5c0,0.2-0.1,0.4-0.2,0.5c-0.1,0-0.1,0.1-0.2,0.1
		c-0.2,0-0.4-0.3-0.4-0.6c0,0,0,0,0,0c0-0.2,0.1-0.4,0.2-0.5c0.1,0,0.1-0.1,0.3-0.1c0.1,0,0.2,0.1,0.2,0.1
		C-32.1,340.2-32.1,340.4-32.1,340.5 M-21,356.7c0-0.2,0.2-0.4,0.3-0.5c0.2-0.1,0.4-0.2,0.6-0.1c0.1,0,0.2,0.1,0.3,0.2h0
		c0.1,0.1,0.1,0.2,0.1,0.3c0,0.2-0.2,0.4-0.3,0.5c-0.3,0.2-0.7,0.2-0.8,0C-21,356.9-21,356.8-21,356.7 M-23.3,346
		c0-0.1,0-0.2,0.1-0.3l0,0c0.1-0.1,0.2-0.1,0.3-0.1c0.2,0,0.4,0.1,0.5,0.3c0.1,0.2,0.2,0.4,0.2,0.5c0,0.1,0,0.2-0.1,0.3
		c-0.1,0.1-0.2,0.1-0.3,0.1c-0.2,0-0.4-0.1-0.5-0.3C-23.2,346.4-23.3,346.2-23.3,346 M-29.8,338.7L-29.8,338.7
		c0.2-0.6,0.5-1.7,0.5-1.7l0,0l0.7,0.3l-0.1,0c-0.1,0.1-0.3,0.2-0.5,0.4c0.1,0,0.3,0,0.4-0.1l0.1-0.1l-0.3,0.8l0-0.1
		c0-0.1-0.2-0.3-0.3-0.3c0,0.1,0,0.1,0,0.2c0,0.3,0.2,0.4,0.4,0.5c0.4,0.2,0.6,0.2,0.6,0.1c0,0,0-0.1,0-0.1c0-0.1,0-0.1-0.1-0.2
		c-0.1-0.1-0.2-0.1-0.3-0.1l0,0l0-0.1c0-0.2,0-0.3,0.1-0.4c0.1-0.1,0.2-0.1,0.3-0.1c0.1,0,0.2,0.1,0.3,0.2c0-0.4,0.3-0.8,0.7-0.9
		l0,0l0,0c0.1,0.1,0.1,0.3,0.1,0.4c0,0.3-0.1,0.5-0.3,0.7c0.2,0,0.3,0,0.4,0.1c0.1,0.1,0.1,0.2,0.1,0.3c0,0.1-0.1,0.2-0.3,0.3l0,0
		l0-0.1c0-0.1-0.1-0.2-0.2-0.2c-0.1,0-0.2,0-0.2,0.1c-0.1,0.2,0,0.4,0.4,0.5c0.4,0.2,0.7,0,0.8-0.2c-0.1,0-0.3,0-0.5,0.1l-0.1,0.1
		l0.5-1l0,0.1c0,0.1,0.1,0.2,0.2,0.4c0-0.1,0.1-0.2,0.1-0.4c0-0.1,0-0.2-0.1-0.3l-0.1-0.1l1.1,0.6l-0.1,0c-0.2,0-0.4,0.1-0.5,0.3
		c0.2,0,0.4,0,0.4,0l0.1,0l-0.6,0.9l0-0.1v0c0-0.2-0.1-0.3-0.1-0.4c0,0.1-0.1,0.2-0.1,0.3c0,0.2,0.1,0.3,0.3,0.5
		c0.3,0.2,0.5,0.2,0.7,0.1c0-0.1,0-0.2,0-0.3c-0.1-0.1-0.2-0.1-0.3-0.1l-0.1,0l0-0.1c0-0.2,0.1-0.3,0.1-0.4c0.1-0.1,0.2-0.1,0.3-0.1
		c0.2,0,0.3,0.1,0.3,0.3c0.1-0.5,0.4-0.7,0.8-0.8l0,0l0,0c0,0.1,0,0.2,0,0.2c0,0.3-0.2,0.6-0.4,0.8c0.1,0,0.3,0.1,0.3,0.2
		c0,0.1,0.1,0.1,0.1,0.2c0,0,0,0.1,0,0.1c0,0.1-0.1,0.2-0.3,0.3l-0.1,0l0-0.1c0-0.2-0.1-0.2-0.2-0.3c-0.1,0-0.2,0-0.2,0.1
		c-0.1,0.1,0,0.3,0.4,0.5c0.2,0.1,0.5,0.3,0.8,0c-0.1-0.1-0.3-0.1-0.4-0.1h-0.1l0.5-0.7l0,0.1c0,0,0,0,0,0c0,0.1,0.1,0.3,0.2,0.4
		c0-0.2,0.1-0.3,0.1-0.5c0-0.1,0-0.1,0-0.1l0-0.1l0.6,0.5l0,0c0,0-0.8,0.9-1.2,1.3l0,0L-29.8,338.7z M-24.4,352
		c-0.2,0.3-0.6,0.4-0.8,0.2c-0.2-0.2-0.3-0.5,0-0.8c0.2-0.3,0.6-0.4,0.8-0.2C-24.2,351.3-24.2,351.7-24.4,352 M-22.9,349.6
		c-0.2,0.3-0.6,0.4-0.8,0.2c-0.2-0.2-0.3-0.5,0-0.8c0.2-0.3,0.6-0.4,0.8-0.2C-22.7,348.9-22.7,349.3-22.9,349.6"/>
	<path id="XMLID_401_" class="st1" d="M-41.1,359.9c-0.1,0-0.2,0-0.3,0v-1.5c-0.7,0-1.5-0.2-2.3-0.4v1.9c-0.1,0-0.2,0-0.3,0
		c-0.6,0-0.9,0.5-0.9,0.9c0,0.4,0.2,0.8,0.4,1c0.1-0.2,0.2-0.4,0.3-0.4c0.3,0,0.2,1.4,1,1.4c0,0.1,0,0.1,0,0.2
		c0,0.3,0.3,0.6,0.6,0.6c0.3,0,0.6-0.3,0.6-0.6c0-0.1,0-0.2,0-0.2c0.8,0,0.7-1.4,0.9-1.4c0.1,0,0.2,0.2,0.3,0.4
		c0.2-0.2,0.4-0.6,0.4-1C-40.2,360.4-40.5,359.9-41.1,359.9 M-42.5,363.4c-0.2,0-0.4-0.2-0.4-0.4c0-0.2,0.2-0.4,0.4-0.4
		c0.2,0,0.4,0.2,0.4,0.4C-42.2,363.2-42.3,363.4-42.5,363.4 M-40.6,361.4c-0.1-0.2-0.2-0.3-0.4-0.3c-0.5,0-0.3,1.4-1,1.4
		c-0.3,0-0.4-0.2-0.4-0.4c0-0.2,0.1-0.3,0.1-0.4c0-0.2-0.1-0.2-0.3-0.2c-0.1,0-0.3,0.1-0.3,0.2c0,0.2,0.1,0.2,0.1,0.4
		c0,0.2-0.2,0.4-0.4,0.4c-0.6,0-0.4-1.4-1-1.4c-0.1,0-0.3,0.1-0.4,0.3c-0.1-0.2-0.2-0.4-0.2-0.6c0-0.3,0.2-0.6,0.6-0.6
		c0.7,0,0.6,1,0.9,1c0.2,0,0.3-0.1,0.3-0.2c0-0.3-0.5-0.5-0.5-0.9c0-0.4,0.4-0.7,0.8-1.1c0.4,0.3,0.8,0.7,0.8,1.1
		c0,0.4-0.5,0.7-0.5,0.9c0,0.2,0.1,0.2,0.3,0.2c0.3,0,0.2-1,0.9-1c0.4,0,0.6,0.4,0.6,0.6C-40.5,361-40.5,361.2-40.6,361.4"/>
	<path id="XMLID_400_" class="st1" d="M-45.6,331.9c-0.2,0.5-0.5,0.7-0.4,1.1c0,0.4,0.4,0.6,0.6,1c0.2-0.4,0.4-0.7,0.4-1.1
		C-45.1,332.5-45.5,332.1-45.6,331.9"/>
	<path id="XMLID_399_" class="st1" d="M-39.4,331.9c0.2,0.5,0.5,0.7,0.4,1.1c0,0.4-0.4,0.6-0.6,1c-0.2-0.4-0.4-0.7-0.4-1.1
		C-39.9,332.5-39.5,332.1-39.4,331.9"/>
	<path id="XMLID_398_" class="st1" d="M-49.2,331.6c0.2,0,0.4-0.2,0.4-0.4c0-0.2-0.2-0.4-0.4-0.4c-0.2,0-0.4,0.2-0.4,0.4
		C-49.6,331.4-49.4,331.6-49.2,331.6"/>
	<path id="XMLID_397_" class="st1" d="M-48.9,332.2c0-0.2-0.2-0.4-0.4-0.4c-0.2,0-0.4,0.2-0.4,0.4c0,0.2,0.2,0.4,0.4,0.4
		C-49.1,332.6-48.9,332.4-48.9,332.2"/>
	<path id="XMLID_396_" class="st1" d="M-48.7,333.2c0-0.2-0.2-0.4-0.4-0.4c-0.2,0-0.4,0.2-0.4,0.4c0,0.2,0.2,0.4,0.4,0.4
		C-48.9,333.6-48.7,333.4-48.7,333.2"/>
	<path id="XMLID_395_" class="st1" d="M-46.9,329.6c0.2,0,0.4-0.2,0.4-0.4c0-0.2-0.2-0.4-0.4-0.4c-0.2,0-0.4,0.2-0.4,0.4
		C-47.3,329.4-47.1,329.6-46.9,329.6"/>
	<path id="XMLID_394_" class="st1" d="M-47.9,329.9c0.2,0,0.4-0.2,0.4-0.4c0-0.2-0.2-0.4-0.4-0.4c-0.2,0-0.4,0.2-0.4,0.4
		C-48.3,329.7-48.2,329.9-47.9,329.9"/>
	<path id="XMLID_393_" class="st1" d="M-48.7,330.6c0.2,0,0.4-0.2,0.4-0.4s-0.2-0.4-0.4-0.4c-0.2,0-0.4,0.2-0.4,0.4
		S-49,330.6-48.7,330.6"/>
	<path id="XMLID_392_" class="st1" d="M-45.8,329.7c0.2,0,0.4-0.2,0.4-0.4c0-0.2-0.2-0.4-0.4-0.4c-0.2,0-0.4,0.2-0.4,0.4
		C-46.2,329.5-46,329.7-45.8,329.7"/>
	<path id="XMLID_391_" class="st1" d="M-44.7,330c0.2,0,0.4-0.2,0.4-0.4c0-0.2-0.2-0.4-0.4-0.4c-0.2,0-0.4,0.2-0.4,0.4
		C-45.2,329.8-45,330-44.7,330"/>
	<path id="XMLID_390_" class="st1" d="M-43.8,330.4c0.2,0,0.4-0.2,0.4-0.4c0-0.2-0.2-0.4-0.4-0.4c-0.2,0-0.4,0.2-0.4,0.4
		C-44.2,330.3-44,330.4-43.8,330.4"/>
	<path id="XMLID_389_" class="st1" d="M-36.3,331.2c0,0.2,0.2,0.4,0.4,0.4c0.2,0,0.4-0.2,0.4-0.4c0-0.2-0.2-0.4-0.4-0.4
		C-36.1,330.7-36.3,330.9-36.3,331.2"/>
	<path id="XMLID_388_" class="st1" d="M-35.7,331.8c-0.2,0-0.4,0.2-0.4,0.4c0,0.2,0.2,0.4,0.4,0.4c0.2,0,0.4-0.2,0.4-0.4
		C-35.3,332-35.5,331.8-35.7,331.8"/>
	<path id="XMLID_387_" class="st1" d="M-35.9,332.8c-0.2,0-0.4,0.2-0.4,0.4c0,0.2,0.2,0.4,0.4,0.4c0.2,0,0.4-0.2,0.4-0.4
		C-35.5,333-35.7,332.8-35.9,332.8"/>
	<path id="XMLID_386_" class="st1" d="M-38.2,329.6c0.2,0,0.4-0.2,0.4-0.4c0-0.2-0.2-0.4-0.4-0.4c-0.2,0-0.4,0.2-0.4,0.4
		C-38.6,329.4-38.4,329.6-38.2,329.6"/>
	<path id="XMLID_385_" class="st1" d="M-37.1,329.9c0.2,0,0.4-0.2,0.4-0.4c0-0.2-0.2-0.4-0.4-0.4c-0.2,0-0.4,0.2-0.4,0.4
		C-37.5,329.7-37.4,329.9-37.1,329.9"/>
	<path id="XMLID_384_" class="st1" d="M-36.3,330.6c0.2,0,0.4-0.2,0.4-0.4s-0.2-0.4-0.4-0.4c-0.2,0-0.4,0.2-0.4,0.4
		S-36.5,330.6-36.3,330.6"/>
	<path id="XMLID_383_" class="st1" d="M-39.3,329.7c0.2,0,0.4-0.2,0.4-0.4c0-0.2-0.2-0.4-0.4-0.4c-0.2,0-0.4,0.2-0.4,0.4
		C-39.7,329.5-39.5,329.7-39.3,329.7"/>
	<path id="XMLID_382_" class="st1" d="M-40.3,330c0.2,0,0.4-0.2,0.4-0.4c0-0.2-0.2-0.4-0.4-0.4c-0.2,0-0.4,0.2-0.4,0.4
		C-40.7,329.8-40.5,330-40.3,330"/>
	<path id="XMLID_381_" class="st1" d="M-41.7,330c0,0.2,0.2,0.4,0.4,0.4c0.2,0,0.4-0.2,0.4-0.4c0-0.2-0.2-0.4-0.4-0.4
		C-41.5,329.6-41.7,329.8-41.7,330"/>
	<path id="XMLID_380_" class="st1" d="M-43.2,332.3h0.5v-1.8c-0.2,0-0.3-0.1-0.5-0.1V332.3z"/>
	<path id="XMLID_379_" class="st1" d="M-41.8,330.4c-0.1,0.1-0.3,0.1-0.5,0.1v1.8h0.5V330.4z"/>
	<path id="XMLID_378_" class="st1" d="M-42.8,328.4v-1.1c-0.5,0.1-0.9,0.5-1,1.1H-42.8z"/>
	<path id="XMLID_377_" class="st1" d="M-42.2,328.4h1c-0.1-0.5-0.5-1-1-1.1V328.4z"/>
	<path id="XMLID_376_" class="st1" d="M-43.8,328.9c0.1,0.6,0.7,1,1.3,1c0.6,0,1.2-0.4,1.3-1H-43.8z"/>
	<path id="XMLID_375_" class="st1" d="M-41.8,327.1c-0.3-0.2-0.5-0.6-0.6-0.9c0.3,0.1,0.7,0.3,1,0.6v-1.4c-0.2,0.3-0.6,0.5-1,0.6
		c0-0.4,0.3-0.7,0.5-1h-1.4c0.3,0.4,0.5,0.7,0.5,1c-0.3-0.1-0.7-0.3-1-0.6v1.4c0.2-0.3,0.6-0.5,1-0.6c0,0.4-0.3,0.7-0.6,0.9H-41.8z"
		/>
	<path id="XMLID_368_" class="st1" d="M-40.3,356c-1.3-0.3-2.9-0.9-4.4-1.6l0,0c0-0.3-0.1-0.6-0.3-0.9c-0.2-0.3-0.5-0.4-0.8-0.4
		c-0.1,0-0.3,0-0.4,0.1c-0.2-0.2-0.4-0.4-0.6-0.6c-0.6-0.7-1-1.4-1.3-2.3c-0.2-0.5-0.3-1-0.4-1.5c-0.1,0.4-0.6,0.9-1.4,0.9
		c0-0.1,0-0.2-0.1-0.2c-0.2,0.2-0.5,0.5-1.3,0.2c0.1,0.6,0.3,1.2,0.5,1.7c0.4,1.2,1.1,2.3,1.9,3.2c0.3,0.3,0.6,0.6,0.8,0.8
		c0,0.1,0,0.1,0,0.2c0,0.3,0.3,0.8,0.7,1c0.4,0.2,0.7,0.1,1.1-0.1c0.6,0.3,1.5,0.7,2.3,0.9c1,0.3,1.9,0.4,2.7,0.4
		c0.6,0,1.5-0.3,2.3-0.8c0.3-0.2,0.7-0.4,0.9-0.7c0,0,0.1-0.1,0.1-0.1C-38.5,356.4-39.4,356.2-40.3,356 M-50.3,351.3
		c-0.1-0.3-0.1-0.6,0-0.8c0.1-0.2,0.3-0.4,0.5-0.5c0.2-0.1,0.5-0.1,0.8,0c0.2,0.1,0.4,0.3,0.5,0.6c0.1,0.1,0.1,0.3,0.1,0.4
		c0,0.1,0,0.3-0.1,0.4c-0.1,0.2-0.3,0.4-0.5,0.5c-0.2,0.1-0.5,0.1-0.7,0C-50,351.8-50.2,351.6-50.3,351.3 M-48.7,354.1l-0.3-0.5
		c0,0,0.5-0.4,0.6-0.4c0-0.1-0.3-0.4-0.3-0.5c-0.1,0-0.6,0.4-0.6,0.4l-0.3-0.5l1.6-1.1l0.3,0.5c0,0-0.5,0.4-0.6,0.4
		c0,0.1,0.3,0.4,0.3,0.5c0.1,0,0.6-0.4,0.6-0.4l0.3,0.5L-48.7,354.1z M-45.1,354l-0.1-0.1c-0.3-0.2-0.5-0.2-0.7,0
		c-0.1,0.1-0.2,0.2-0.3,0.3l-0.1,0.2l0.1,0.1c0.3,0.2,0.3,0.5,0.2,0.6c0,0.1-0.1,0.1-0.1,0.1c-0.1,0-0.3,0-0.5-0.1l-0.1-0.1
		l-0.1,0.1c0,0,0,0.1,0,0.1c0,0,0,0.1-0.1,0.1c-0.1,0.2-0.2,0.4-0.2,0.5c0,0,0,0.1,0,0.1c0,0.1,0.2,0.2,0.3,0.3l0.1,0
		c0.1,0.1,0.3,0.2,0.4,0.3c-0.2,0.1-0.5,0.1-0.7,0c-0.4-0.2-0.6-0.6-0.6-0.8c0-0.3,0.1-0.7,0.4-1.1l0-0.1l0-0.1
		c-0.1-0.1-0.1-0.2-0.2-0.4c0.1,0,0.3,0,0.4,0.1l0.1,0l0-0.1c0.2-0.2,0.7-0.7,1.2-0.7c0.2,0,0.5,0.1,0.7,0.3
		c0.1,0.2,0.2,0.3,0.2,0.5C-44.9,354.1-45,354.1-45.1,354 M-44.2,356.5c-0.3,0-0.6-0.3-0.6-0.6c0-0.3,0.3-0.6,0.6-0.6
		c0.3,0,0.6,0.3,0.6,0.6C-43.7,356.3-43.9,356.5-44.2,356.5 M-41.8,357.3c-0.3,0-0.5-0.2-0.5-0.5c0-0.3,0.2-0.5,0.5-0.5
		c0.3,0,0.5,0.2,0.5,0.5C-41.2,357.1-41.5,357.3-41.8,357.3"/>
	<path id="XMLID_367_" class="st1" d="M-48.9,351L-48.9,351c0-0.1,0-0.1,0-0.2c-0.1-0.2-0.3-0.4-0.6-0.3c-0.2,0.1-0.3,0.3-0.2,0.6
		c0,0.1,0.1,0.2,0.2,0.3c0.1,0,0.2,0,0.3,0C-49,351.3-48.9,351.2-48.9,351"/>
	<path id="XMLID_366_" class="st1" d="M-48.6,342.6c-0.2-0.1-0.4,0-0.6,0.2c-0.1,0.1-0.1,0.2,0,0.3c0,0.1,0.1,0.2,0.2,0.2
		c0.1,0.1,0.2,0.1,0.3,0c0.1,0,0.2-0.1,0.3-0.2c0-0.1,0-0.1,0-0.2C-48.4,342.8-48.5,342.6-48.6,342.6"/>
	<polygon id="XMLID_365_" class="st1" points="-37,341.5 -37.3,341.6 -37.1,341.7 	"/>
	<path id="XMLID_364_" class="st1" d="M-34.5,345.5l-0.2-0.4l0,0c0,0-0.1,0.1-0.1,0.1c0,0,0,0.1-0.1,0.1c0,0,0.1,0,0.1,0
		C-34.7,345.4-34.6,345.4-34.5,345.5"/>
	<path id="XMLID_363_" class="st1" d="M-34.7,347.9C-34.7,347.9-34.6,347.9-34.7,347.9c0.1-0.1,0.1-0.2,0.1-0.2c0,0-0.1,0-0.2,0v0.1
		C-34.8,347.9-34.8,347.9-34.7,347.9C-34.8,347.9-34.7,347.9-34.7,347.9"/>
	<path id="XMLID_362_" class="st1" d="M-44.5,338.8c-0.1,0-0.2-0.1-0.3,0c-0.1,0.1-0.2,0.1-0.3,0.2c-0.1,0.1,0,0.3,0,0.3
		c0,0.1,0.2,0.4,0.6,0.2c0.1,0,0.2-0.1,0.2-0.2c0-0.1,0-0.1,0-0.2c0,0,0-0.1,0-0.2C-44.3,339-44.4,338.9-44.5,338.8"/>
	<path id="XMLID_344_" class="st1" d="M-33.6,346.8c-0.2-0.1-0.4-0.3-0.6-0.6c-0.2-0.1-0.8-0.3-1-0.4c0,0-0.1,0-0.1,0l-0.8,0.2
		l-0.1-0.5l0.8-0.2c0,0,0-0.1,0.1-0.1c0.1-0.2,0.3-0.4,0.4-0.5c-0.2-0.4-0.4-0.7-0.5-0.9c-0.1-0.2-0.2-0.4-0.2-0.6l-0.7,0.4
		c0,0.1,0.3,0.6,0.3,0.6l-0.5,0.2l-0.6-1.2l1.7-0.8l0.1,0.1c0-0.1,0.1-0.1,0.1-0.2c0.1-0.1,0.1-0.2,0.2-0.2
		c-0.3-0.6-0.7-1.1-1.2-1.6c-0.5-0.6-1.1-1.1-1.8-1.6c0.4-0.2,0.7-0.6,0.7-1.1c0-0.3-0.1-0.6-0.4-0.8c0.4-1.2,1-2.6,1.6-3.2
		l-1.2-0.5c0.3,0.5,0.3,1,0.3,1.3c-0.3-0.2-0.6-0.5-0.7-0.9c-0.1,0.4-0.3,0.9-0.4,1.3c0.3-0.2,0.6-0.2,1-0.1
		c-0.2,0.3-0.7,0.7-1.5,0.5c-0.4-0.1-0.8-0.3-0.8-0.7c0-0.2,0.2-0.4,0.4-0.4c0.3,0,0.3,0.4,0.2,0.6c0.3-0.2,0.7-1.2,0.2-1.3
		c-0.4-0.1-0.8,0.5-0.9,0.9c-0.1-0.5-0.3-1-0.7-1c-0.5,0-0.4,1-0.2,1.3c0-0.4,0.2-0.5,0.4-0.5c0.1,0,0.3,0.1,0.3,0.4
		c0,0.3-0.5,0.5-1,0.5c-0.5,0-1.4-0.2-1.5-1.1c0.3,0.1,0.8,0.3,1.1,0.6c-0.1-0.6-0.1-1,0-1.6c-0.3,0.4-0.7,0.6-1,0.6
		c0.1-0.4,0.4-0.9,0.9-1.1h-2.2c0.4,0.3,0.8,0.7,0.9,1.1c-0.3-0.1-0.8-0.3-1-0.6c0.1,0.6,0.1,1,0,1.6c0.2-0.3,0.7-0.6,1-0.6
		c-0.1,1-1,1.1-1.5,1.1c-0.5,0-1-0.2-1-0.5c0-0.3,0.2-0.4,0.3-0.4c0.2,0,0.4,0.2,0.4,0.5c0.2-0.3,0.4-1.3-0.2-1.3
		c-0.4,0-0.6,0.5-0.7,1c-0.1-0.4-0.5-1-0.9-0.9c-0.5,0.1-0.2,1.1,0.2,1.3c-0.1-0.2-0.1-0.6,0.2-0.6c0.3,0,0.4,0.2,0.4,0.4
		c0,0.3-0.4,0.6-0.8,0.7c-0.8,0.2-1.3-0.2-1.5-0.5c0.4-0.1,0.6-0.1,1,0.1c-0.2-0.4-0.4-0.9-0.4-1.3c-0.1,0.4-0.4,0.7-0.7,0.9
		c-0.1-0.3-0.1-0.9,0.3-1.4l-1.2,0.5c0.6,0.6,1.2,2.1,1.6,3.3c-0.2,0.2-0.4,0.5-0.4,0.8c0,0.6,0.4,0.9,0.7,1.1
		c-0.7,0.4-1.3,0.9-1.8,1.6c-0.8,0.9-1.5,2-1.9,3.2c0,0.1,0,0.1-0.1,0.2c0.1,0.1,0.3,0.3,0.4,0.4c0,0,0,0,0-0.1
		c0.1-0.1,0.2-0.3,0.4-0.4l0.6,0.2c-0.2,0.2-0.5,0.4-0.5,0.5c0,0,0.2-0.1,0.2-0.1c0.2-0.1,0.4-0.4,0.8-0.2c0.2,0.1,0.3,0.2,0.3,0.3
		c0.1,0.1,0.1,0.3,0,0.5c-0.1,0.2-0.2,0.4-0.4,0.5l-0.5-0.2c0.2-0.1,0.4-0.4,0.5-0.4c0,0,0-0.1,0-0.1c0,0-0.2,0.1-0.3,0.1
		c-0.1,0.1-0.3,0.2-0.4,0.2c0.3,0.4,0.4,0.7,0.4,1c0,0.5,0.1,0.8,0.4,1.1c0.4,0.5,0,0.5,0.4,1.2c0-0.2,0-0.4,0-0.6h5.9v6.5
		c-0.2,0-0.5,0-0.7,0.3c0.7,0.3,1.4,0.5,2,0.7c0.1-0.4,0.2-0.6,0.4-0.9c0,0-0.9-0.1-1.4-0.1v-6.5h5.8c0,0.9-0.2,1.8-0.5,2.6
		c-0.3,0.8-0.7,1.6-1.3,2.3c-0.6,0.7-1.2,1.1-1.9,1.5c-0.2,0.1-0.3,0.4-0.4,0.6c-0.1,0.2-0.1,0.4-0.2,0.6c0.3,0.1,0.3,0.1,0.6,0.2
		c2,0.5,2.6,0.4,2.7,0.3h0c0.5-0.4,0.9-0.8,1.3-1.2c0.8-0.9,1.5-2,1.9-3.2c0.5-1.2,0.7-2.5,0.7-3.9
		C-33.6,347.3-33.6,347.1-33.6,346.8 M-36.4,340.8l0.2,0.3l-1,2l-0.4-0.5l0.2-0.3l-0.4-0.5l-0.3,0.1l-0.5-0.4L-36.4,340.8z
		 M-37.7,339.5l0.3,0.3l-1.2,1.6l-0.5-0.3l0.6-0.8l-0.6,0.1l-0.1-0.6l-0.5,0.8l-0.5-0.3l1.1-1.6l0.4,0.2l0.1,0.8L-37.7,339.5z
		 M-47.3,337.8c0-1.1,3.2-1.2,4.8-1.2h0h0c1.6,0,4.8,0.1,4.8,1.2c0,0.3-0.2,0.6-0.7,0.8c-0.8-0.5-2.1-1.1-4.1-1.1
		c-2,0-3.3,0.6-4.1,1.1C-47.1,338.4-47.3,338.1-47.3,337.8 M-40.5,338.3l-0.4,1.9l-0.6-0.1l0.4-1.9L-40.5,338.3z M-43.4,339.7
		l-0.2,0.5c-0.4,0.1-0.9,0-1,0c-0.5,0.1-0.9-0.2-1-0.6c-0.1-0.3-0.1-0.5,0-0.7c0.1-0.2,0.3-0.4,0.6-0.5c0.5-0.2,1.1,0.1,1.3,0.6
		c0,0.1,0.1,0.2,0.1,0.3c0,0.2-0.1,0.4-0.2,0.5C-43.7,339.8-43.5,339.8-43.4,339.7 M-47.1,339.5l0.4,0.4l-0.4,0.4
		c0.1,0.1,0.9,1,0.9,1l-0.4,0.4l-0.9-1l-0.4,0.4l-0.4-0.4L-47.1,339.5z M-48.5,340.9l1.5,1.1l-0.3,0.4l-1.5-1.1L-48.5,340.9z
		 M-48.6,343.9c-0.2,0.1-0.5,0-0.7-0.1c-0.2-0.1-0.4-0.3-0.5-0.6c-0.1-0.2,0-0.5,0.1-0.8c0.1-0.2,0.3-0.4,0.6-0.5
		c0.2-0.1,0.5,0,0.7,0.1c0.2,0.1,0.4,0.3,0.5,0.6c0,0.1,0,0.2,0,0.3c0,0.2,0,0.3-0.1,0.5C-48.1,343.6-48.3,343.8-48.6,343.9
		 M-48.5,347.4c0-0.9,0.2-1.8,0.5-2.6c0.3-0.8,0.7-1.6,1.3-2.3c0.6-0.6,1.2-1.2,1.9-1.5c0.7-0.4,1.5-0.5,2.2-0.5v6.9H-48.5z
		 M-42.5,340c-0.4,0-0.8-0.2-0.8-0.8l0-1.2l0.6,0v1.1c0,0.2,0,0.2,0.1,0.2c0.1,0.1,0.1,0.1,0.2,0.1c0.1,0,0.2,0,0.3-0.1
		c0,0,0.1-0.1,0-0.2l0-1.1l0.6,0v1.1c0,0.2-0.1,0.4-0.2,0.6C-42,339.9-42.2,340-42.5,340 M-42.3,347.4v-6.9c0.7,0,1.4,0.2,2.1,0.5
		c0.7,0.4,1.4,0.9,1.9,1.5c0.6,0.7,1,1.4,1.3,2.3c0.3,0.8,0.5,1.7,0.5,2.6H-42.3z M-37.4,355.2l-0.4-0.4l0.5-0.5l-0.1-0.1l-0.5,0.5
		l-0.4-0.4l0.5-0.5l-0.1-0.1l-0.5,0.5l-0.4-0.4l0.9-0.9l1.4,1.4L-37.4,355.2z M-35.8,353.4c-0.1,0.1-0.3,0.3-0.5,0.3l0,0l-0.5-0.4
		c0.6-0.2,0.6-0.3,0.6-0.4c0,0-0.1,0-0.2,0.1c-0.2,0.1-0.5,0.3-0.8,0c-0.1-0.1-0.2-0.2-0.3-0.4c0-0.2,0-0.3,0.1-0.5
		c0.1-0.2,0.3-0.3,0.5-0.4l0.5,0.4l-0.1,0c-0.3,0.1-0.5,0.2-0.5,0.3c0,0,0,0.1,0,0.1c0,0,0,0,0,0c0,0,0.2,0,0.3-0.1
		c0.2-0.1,0.5-0.2,0.8,0c0.1,0.1,0.2,0.2,0.3,0.4c0,0,0,0.1,0,0.1C-35.7,353.2-35.8,353.3-35.8,353.4 M-34.7,351.1l-1.2,0.4l0.9,0.4
		l-0.2,0.5l-1.8-0.7l0.2-0.4l1.2-0.4l-0.9-0.4l0.2-0.5l1.8,0.7L-34.7,351.1z M-34.4,350.2l-0.5-0.1l0.1-0.7l-0.1,0l-0.1,0.6
		l-0.5-0.1l0.1-0.6l-0.2,0l-0.1,0.7l-0.5-0.1l0.2-1.2l1.9,0.3L-34.4,350.2z M-34.1,347.9c0,0.2-0.1,0.4-0.2,0.5
		c-0.1,0.1-0.3,0.2-0.4,0.2c-0.2,0-0.3-0.1-0.4-0.2c-0.1-0.1-0.2-0.3-0.2-0.5v-0.1c-0.1,0-0.7,0-0.7,0l0-0.6l1.9,0L-34.1,347.9z"/>
	<path id="XMLID_343_" class="st1" d="M-57.8,361.3c0,0-0.1,0-0.1,0.1c0,0.1,0.4,0.7,0.5,0.8c0,0,0.1-0.1,0.1-0.1
		c0.4-0.2,0.4-0.5,0.3-0.7C-57.3,361.1-57.6,361.2-57.8,361.3"/>
	<path id="XMLID_342_" class="st1" d="M-31.4,358.8C-31.4,358.8-31.4,358.8-31.4,358.8c0.1-0.1,0.1-0.1,0.1-0.1c0,0,0-0.1-0.1-0.1
		c0,0-0.2-0.1-0.2-0.1c0,0-0.1,0.2-0.1,0.2c0.1,0,0.1,0.1,0.1,0.1C-31.5,358.8-31.5,358.8-31.4,358.8"/>
	<path id="XMLID_341_" class="st1" d="M-34,358.5c0.4,0.1,0.6,0,0.8-0.3c0.1-0.3,0-0.5-0.4-0.6h0c0,0,0,0-0.1,0
		c0,0.1-0.3,0.9-0.3,0.9C-34.1,358.5-34,358.5-34,358.5"/>
	<path id="XMLID_340_" class="st1" d="M-30.1,360.6c0.1,0.1,0.3,0.1,0.4,0.1c0.1,0,0.2-0.1,0.3-0.2c0.1-0.1,0.1-0.2,0.1-0.4
		c0-0.1-0.1-0.2-0.2-0.3c-0.1-0.1-0.3-0.1-0.4-0.1c-0.1,0-0.2,0.1-0.3,0.2c-0.1,0.1-0.1,0.2-0.1,0.4
		C-30.4,360.5-30.3,360.6-30.1,360.6"/>
	<path id="XMLID_339_" class="st1" d="M-39.7,365c-0.1-0.1-0.2-0.1-0.4-0.1c-0.2,0-0.3,0.1-0.4,0.2c-0.1,0.1-0.2,0.2-0.2,0.4
		c0,0.2,0,0.3,0.2,0.4c0.1,0.1,0.2,0.1,0.4,0.1c0.2,0,0.3-0.1,0.4-0.2c0.1-0.1,0.2-0.2,0.2-0.4C-39.6,365.3-39.6,365.1-39.7,365"/>
	<path id="XMLID_184_" class="st1" d="M-26.1,363.5c1.1,0,2.1-1.4,3.5-2c-3.5,1-8.3-4.9-11.6-4.9c-0.9,0-2,0.4-2.5,1.6
		c-0.6,1.3-1.2,1.8-1.2,2.4c0,0.5,0.5,0.9,1.3,1.3c0.5,0.3,1,0.4,1,0.9c-1.5,0.7-4,1.2-6.9,1.2c-2.9,0-5.4-0.5-6.9-1.2
		c0-0.5,0.5-0.6,1-0.9c0.8-0.4,1.3-0.8,1.3-1.3c0-0.6-0.6-1-1.2-2.4c-0.5-1.3-1.6-1.6-2.5-1.6c-3.3,0-8.1,5.9-11.6,4.9
		c1.4,0.6,2.4,2,3.5,2c2.8,0,6.1-4.2,9.2-4.2c0,0,0.1,0,0.1,0c-0.7,0.9-1.7,1.1-1.7,2c0,0.6,0.5,1,0.9,1.8c0.2,0.5,0.3,0.9,0.5,1.6
		c0.2,0.7,0.6,2.3,7.4,2.3c6.8,0,7.2-1.7,7.4-2.3c0.2-0.7,0.2-1.1,0.5-1.6c0.4-0.8,0.9-1.2,0.9-1.8c0-0.9-1-1.1-1.7-2
		c0,0,0.1,0,0.1,0C-32.2,359.2-28.9,363.5-26.1,363.5 M-25.6,361.5l-0.3,0.5c-0.2-0.1-0.4-0.2-0.6-0.3c-0.2,0.3-0.7,1.1-0.8,1.3
		l-0.5-0.2c0,0,0.6-1,0.8-1.3c-0.2-0.1-0.4-0.2-0.6-0.3l0.3-0.5C-26.9,360.8-26,361.3-25.6,361.5 M-27.6,360.4l-1.1,1.8l-0.5-0.3
		l1.1-1.8L-27.6,360.4z M-30.2,359.1c0.3-0.1,0.6,0,0.9,0.1c0.3,0.2,0.5,0.4,0.5,0.7c0,0.1,0,0.2,0,0.3c0,0.2-0.1,0.4-0.2,0.5
		c-0.2,0.3-0.4,0.4-0.7,0.5c-0.3,0.1-0.6,0-0.9-0.1c-0.3-0.2-0.4-0.4-0.5-0.7c-0.1-0.3,0-0.6,0.1-0.8
		C-30.7,359.4-30.5,359.2-30.2,359.1 M-31.1,358.1L-31.1,358.1c0.1,0.1,0.2,0.2,0.3,0.3c0.1,0.2,0.1,0.4,0,0.6
		c-0.1,0.1-0.2,0.2-0.3,0.3c-0.1,0-0.1,0-0.2,0c0,0.1,0,0.2,0,0.3c0,0.4,0.1,0.9,0.1,0.9c-0.1-0.1-0.6-0.4-0.7-0.4l-0.1-0.6
		c0-0.2,0-0.3-0.1-0.4c-0.1,0.1-0.4,0.7-0.4,0.7l-0.5-0.3l1.1-1.9C-31.7,357.8-31.3,358-31.1,358.1 M-34.2,356.9l0.8,0.2
		c0.5,0.1,1,0.6,0.7,1.3c-0.3,0.8-0.9,0.8-1.5,0.7l-0.7-0.2L-34.2,356.9z M-57.1,362.6l-0.6,0.3l-1.1-1.8l0.7-0.4
		c0.2-0.1,0.4-0.2,0.6-0.2c0.2,0,0.4,0,0.5,0.1c0.2,0.1,0.3,0.2,0.4,0.4C-56.3,361.6-56.3,362.2-57.1,362.6 M-55.4,361.7l-1.1-1.8
		l0.5-0.3l1.1,1.8L-55.4,361.7z M-54.3,360.9l-1.1-1.8l1.2-0.8l0.3,0.5l-0.7,0.5c0,0.1,0.1,0.1,0.1,0.2l0.7-0.4l0.3,0.5l-0.7,0.4
		c0,0.1,0.1,0.1,0.1,0.2l0.7-0.5l0.3,0.5L-54.3,360.9z M-51.8,359.5c-0.6,0.3-1,0-1.2-0.4l-0.5-1.1l0.5-0.3c0,0,0.5,1.1,0.5,1.1
		c0.1,0.2,0.2,0.3,0.5,0.2c0.3-0.1,0.3-0.2,0.2-0.5l-0.5-1.2l0.6-0.2l0.5,1.2C-51.1,358.8-51.2,359.2-51.8,359.5 M-49.7,362.7
		c-0.8-0.4-1.3-0.9-1.3-1.4c0-0.8,1.3-1.3,1.8-2c0.8,0.1,1.8,0.5,1.8,1.2C-47.3,361.3-49.9,361.6-49.7,362.7 M-48.3,365.8l-0.1-2.2
		c0.3,0.1,1.1,0.3,1.4,0.4l0,0.6c-0.2,0-0.5-0.1-0.8-0.2c0,0,0,0.1,0,0.2c0.1,0,0.7,0.2,0.7,0.2l0,0.6c0,0-0.6-0.1-0.7-0.2
		c0,0,0,0.2,0,0.2c0.2,0.1,0.5,0.1,0.8,0.2l0,0.6C-47.4,366.2-48,366-48.3,365.8 M-44.9,364.9c-0.2,0-0.5-0.1-0.6-0.1v1.6l-0.6-0.1
		v-1.7c-0.2,0-0.4-0.1-0.6-0.1V364c0.5,0.1,1.3,0.2,1.9,0.3V364.9z M-41.5,366.6l-0.6,0v-1.2c-0.1,0.2-0.5,0.6-0.5,0.6
		s-0.4-0.4-0.5-0.6v1.2l-0.6,0v-2.2l0.5,0c0,0,0.5,0.6,0.6,0.7c0.1-0.1,0.6-0.7,0.6-0.7l0.5,0V366.6z M-39.3,366.2
		c-0.2,0.2-0.5,0.3-0.9,0.3c-0.3,0-0.6-0.1-0.8-0.3c-0.2-0.2-0.3-0.5-0.3-0.8c0-0.3,0.1-0.6,0.3-0.8c0.2-0.2,0.5-0.3,0.8-0.3
		c0.3,0,0.6,0.1,0.9,0.3c0.2,0.2,0.3,0.5,0.3,0.8S-39,366-39.3,366.2 M-36.7,365.8l-0.5,0.2c0,0-0.7-0.8-0.9-0.9
		c0,0.2-0.1,1.2-0.1,1.2l-0.6,0.1l0.1-2.3l0.4-0.1l0.9,0.9c0-0.2,0.1-1.2,0.1-1.2l0.6-0.2L-36.7,365.8z M-34.1,361.3
		c0,0.5-0.5,1-1.3,1.4c0.2-1.1-2.4-1.4-2.4-2.2c0-0.7,1-1.1,1.8-1.2C-35.4,360-34.1,360.4-34.1,361.3"/>
</g>
<g id="XMLID_1_">
	<path id="XMLID_70_" class="st0" d="M143.9,418.6h6.1v17.6c0,2,0.2,3.4,0.7,4.3c0.7,1.6,2.3,2.4,4.7,2.4c2.4,0,4-0.8,4.7-2.4
		c0.5-0.9,0.7-2.3,0.7-4.3v-17.6h6.1v17.6c0,3.1-0.5,5.4-1.4,7.1c-1.8,3.1-5.1,4.7-10.1,4.7c-5,0-8.3-1.6-10.1-4.7
		c-0.9-1.7-1.4-4.1-1.4-7.1V418.6z"/>
	<polygon id="XMLID_69_" class="st0" points="172.8,418.6 178.7,418.6 178.7,430.4 189.8,418.6 197.5,418.6 185.8,430.4
		198.1,447.3 190.4,447.3 181.6,434.7 178.7,437.7 178.7,447.3 172.8,447.3 	"/>
	<path id="XMLID_66_" class="st2" d="M214.5,430.3c1.4-0.2,2.3-0.4,2.9-0.6c1-0.4,1.6-1.1,1.6-2.1c0-1.1-0.4-1.9-1.2-2.4
		c-0.8-0.4-2-0.7-3.5-0.7c-1.7,0-3,0.4-3.7,1.3c-0.5,0.6-0.9,1.5-1,2.6h-7c0.2-2.4,0.8-4.5,2.1-6c1.9-2.5,5.3-3.7,10-3.7
		c3.1,0,5.8,0.6,8.2,1.8c2.4,1.2,3.6,3.5,3.6,6.9v12.8c0,0.9,0,2,0.1,3.2c0.1,1,0.2,1.6,0.4,1.9c0.2,0.3,0.6,0.6,1.1,0.8v1.1h-7.9
		c-0.2-0.6-0.4-1.1-0.5-1.6c-0.1-0.5-0.2-1.1-0.2-1.7c-1,1.1-2.2,2-3.5,2.8c-1.6,0.9-3.4,1.4-5.4,1.4c-2.5,0-4.6-0.7-6.3-2.2
		c-1.7-1.4-2.5-3.5-2.5-6.1c0-3.4,1.3-5.9,4-7.5c1.5-0.8,3.6-1.4,6.5-1.8L214.5,430.3z M219,433.7c-0.5,0.3-0.9,0.5-1.4,0.7
		c-0.5,0.2-1.1,0.3-2,0.5l-1.7,0.3c-1.6,0.3-2.7,0.6-3.4,1c-1.2,0.7-1.7,1.7-1.7,3.1c0,1.2,0.4,2.1,1.1,2.7c0.7,0.6,1.6,0.8,2.6,0.8
		c1.6,0,3.1-0.5,4.4-1.4c1.3-0.9,2-2.6,2.1-5V433.7z"/>
	<rect id="XMLID_65_" x="232.1" y="409.5" class="st2" width="7.4" height="7.4"/>
	<rect id="XMLID_64_" x="232.1" y="419.3" class="st2" width="7.4" height="27.9"/>
	<path id="XMLID_61_" class="st2" d="M260.5,419.8c1.3,0.7,2.4,1.8,3.2,3.1v-13.3h7.4v37.7H264v-3.9c-1,1.7-2.2,2.9-3.6,3.6
		c-1.3,0.8-3,1.1-5,1.1c-3.3,0-6-1.3-8.2-4c-2.2-2.6-3.3-6-3.3-10.2c0-4.8,1.1-8.5,3.3-11.3c2.2-2.7,5.1-4.1,8.8-4.1
		C257.6,418.7,259.2,419,260.5,419.8 M262.3,439.7c1.1-1.5,1.6-3.5,1.6-6c0-3.4-0.9-5.9-2.6-7.3c-1.1-0.9-2.3-1.3-3.7-1.3
		c-2.1,0-3.7,0.8-4.7,2.4c-1,1.6-1.5,3.6-1.5,6c0,2.6,0.5,4.6,1.5,6.2c1,1.5,2.6,2.3,4.6,2.3C259.6,442,261.2,441.2,262.3,439.7"/>
	<rect id="XMLID_60_" x="143.9" y="326.2" class="st3" width="127.2" height="75.9"/>
	<polygon id="XMLID_59_" class="st4" points="271.1,351.5 271.1,335.1 243.5,351.5 	"/>
	<polygon id="XMLID_58_" class="st4" points="194.8,326.2 158.7,326.2 194.8,347.7 	"/>
	<polygon id="XMLID_57_" class="st4" points="143.9,376.8 143.9,393.3 171.5,376.8 	"/>
	<polygon id="XMLID_56_" class="st4" points="220.2,326.2 220.2,347.7 256.3,326.2 	"/>
	<polygon id="XMLID_55_" class="st4" points="143.9,335.1 143.9,351.5 171.5,351.5 	"/>
	<polygon id="XMLID_54_" class="st4" points="271.1,393.3 271.1,376.8 243.5,376.8 	"/>
	<polygon id="XMLID_53_" class="st4" points="158.7,402.1 194.8,402.1 194.8,380.6 	"/>
	<polygon id="XMLID_52_" class="st4" points="220.2,402.1 256.3,402.1 220.2,380.6 	"/>
	<path id="XMLID_47_" class="st2" d="M176.4,351.5l-32.5-19.4v-5.9l42.4,25.3H176.4z M238.6,376.8l32.5,19.4v5.9l-42.4-25.3H238.6z
		 M220.2,350.7l41-24.5h9.9l-42.4,25.3h-8.5V350.7z M143.9,402.1l42.4-25.3h8.5v0.8l-41,24.5H143.9z"/>
	<polygon id="XMLID_46_" class="st2" points="199.9,402.1 199.9,371.8 143.9,371.8 143.9,356.6 199.9,356.6 199.9,326.2
		215.1,326.2 215.1,356.6 271.1,356.6 271.1,371.8 215.1,371.8 215.1,402.1 	"/>
	<path id="XMLID_45_" class="st0" d="M143.8,458.2v-1h1.1v-1c0-0.5,0.2-0.9,0.5-1.2c0.3-0.3,0.8-0.4,1.4-0.4c0.1,0,0.2,0,0.4,0
		c0.1,0,0.2,0,0.4,0.1v0.9c-0.1,0-0.2-0.1-0.3-0.1c-0.1,0-0.2,0-0.3,0c-0.3,0-0.5,0.1-0.6,0.2c-0.1,0.1-0.2,0.3-0.2,0.6v0.9h1.3v1
		H146v5.7h-1.1v-5.7H143.8z"/>
	<path id="XMLID_44_" class="st0" d="M149.1,457.3v1.4h0c0.3-0.5,0.6-0.9,1-1.2c0.4-0.3,0.9-0.4,1.5-0.4v1.2c-0.4,0-0.8,0.1-1.1,0.2
		c-0.3,0.1-0.6,0.3-0.7,0.5c-0.2,0.2-0.3,0.5-0.4,0.8c-0.1,0.3-0.1,0.7-0.1,1.1v2.9h-1.1v-6.6H149.1z"/>
	<path id="XMLID_41_" class="st0" d="M152,459.2c0.1-0.4,0.3-0.8,0.6-1.1c0.3-0.3,0.6-0.6,1-0.7c0.4-0.2,0.9-0.3,1.4-0.3
		c0.5,0,1,0.1,1.4,0.3c0.4,0.2,0.7,0.4,1,0.7c0.3,0.3,0.5,0.7,0.6,1.1c0.1,0.4,0.2,0.9,0.2,1.4c0,0.5-0.1,0.9-0.2,1.4
		c-0.1,0.4-0.3,0.8-0.6,1.1c-0.3,0.3-0.6,0.6-1,0.7c-0.4,0.2-0.9,0.3-1.4,0.3c-0.5,0-1-0.1-1.4-0.3c-0.4-0.2-0.7-0.4-1-0.7
		c-0.3-0.3-0.5-0.7-0.6-1.1c-0.1-0.4-0.2-0.9-0.2-1.4C151.8,460.1,151.9,459.6,152,459.2 M153.1,461.6c0.1,0.3,0.3,0.6,0.4,0.8
		c0.2,0.2,0.4,0.4,0.7,0.5c0.3,0.1,0.5,0.2,0.8,0.2c0.3,0,0.5-0.1,0.8-0.2c0.3-0.1,0.5-0.3,0.7-0.5c0.2-0.2,0.3-0.5,0.4-0.8
		c0.1-0.3,0.2-0.7,0.2-1.1c0-0.4-0.1-0.8-0.2-1.1c-0.1-0.3-0.3-0.6-0.4-0.8c-0.2-0.2-0.4-0.4-0.7-0.5c-0.3-0.1-0.5-0.2-0.8-0.2
		c-0.3,0-0.5,0.1-0.8,0.2c-0.3,0.1-0.5,0.3-0.7,0.5c-0.2,0.2-0.3,0.5-0.4,0.8c-0.1,0.3-0.2,0.7-0.2,1.1
		C152.9,461,153,461.3,153.1,461.6"/>
	<path id="XMLID_40_" class="st0" d="M160.3,457.3v1h0c0.5-0.8,1.2-1.1,2.1-1.1c0.4,0,0.8,0.1,1.1,0.3c0.3,0.2,0.6,0.5,0.7,0.9
		c0.2-0.4,0.5-0.6,0.9-0.8c0.4-0.2,0.8-0.3,1.2-0.3c0.3,0,0.6,0,0.9,0.1c0.3,0.1,0.5,0.2,0.7,0.3c0.2,0.2,0.3,0.4,0.4,0.6
		c0.1,0.2,0.2,0.5,0.2,0.9v4.8h-1.1v-4.3c0-0.2,0-0.4-0.1-0.6c0-0.2-0.1-0.3-0.2-0.5c-0.1-0.1-0.2-0.2-0.4-0.3
		c-0.2-0.1-0.4-0.1-0.6-0.1c-0.5,0-1,0.2-1.3,0.5c-0.3,0.3-0.5,0.7-0.5,1.2v4.1h-1.1v-4.3c0-0.2,0-0.4-0.1-0.6
		c0-0.2-0.1-0.3-0.2-0.5c-0.1-0.1-0.2-0.2-0.4-0.3c-0.2-0.1-0.4-0.1-0.6-0.1c-0.3,0-0.6,0.1-0.8,0.2c-0.2,0.1-0.4,0.3-0.6,0.5
		c-0.1,0.2-0.2,0.4-0.3,0.6c-0.1,0.2-0.1,0.4-0.1,0.5v4.1h-1.1v-6.6H160.3z"/>
	<path id="XMLID_39_" class="st0" d="M176.6,457.3v1h-1.3v4.1c0,0.1,0,0.2,0,0.3c0,0.1,0.1,0.1,0.1,0.2c0.1,0,0.1,0.1,0.2,0.1
		c0.1,0,0.2,0,0.4,0h0.5v1h-0.8c-0.3,0-0.5,0-0.7-0.1c-0.2,0-0.4-0.1-0.5-0.2c-0.1-0.1-0.2-0.2-0.3-0.4c-0.1-0.2-0.1-0.4-0.1-0.7
		v-4.2h-1.1v-1h1.1v-2h1.1v2H176.6z"/>
	<path id="XMLID_38_" class="st0" d="M178.6,454.7v3.5h0c0.1-0.2,0.2-0.4,0.4-0.5c0.2-0.1,0.3-0.3,0.5-0.3c0.2-0.1,0.4-0.2,0.6-0.2
		c0.2,0,0.4-0.1,0.6-0.1c0.4,0,0.8,0.1,1.1,0.2c0.3,0.1,0.5,0.3,0.7,0.5c0.2,0.2,0.3,0.5,0.4,0.8c0.1,0.3,0.1,0.6,0.1,1v4.3h-1.1
		v-4.5c0-0.4-0.1-0.7-0.4-1c-0.2-0.2-0.6-0.4-1-0.4c-0.3,0-0.6,0.1-0.9,0.2c-0.2,0.1-0.4,0.2-0.6,0.4c-0.2,0.2-0.3,0.4-0.4,0.7
		c-0.1,0.3-0.1,0.5-0.1,0.8v3.7h-1.1v-9.1H178.6z"/>
	<path id="XMLID_35_" class="st0" d="M189.1,463.5c-0.5,0.4-1.1,0.6-1.9,0.6c-0.5,0-1-0.1-1.4-0.3c-0.4-0.2-0.7-0.4-1-0.7
		c-0.3-0.3-0.5-0.7-0.6-1.1c-0.1-0.4-0.2-0.9-0.2-1.4c0-0.5,0.1-1,0.2-1.4c0.2-0.4,0.4-0.8,0.6-1.1c0.3-0.3,0.6-0.5,1-0.7
		c0.4-0.2,0.8-0.3,1.2-0.3c0.6,0,1.1,0.1,1.5,0.4c0.4,0.2,0.7,0.6,0.9,0.9c0.2,0.4,0.4,0.8,0.5,1.2c0.1,0.4,0.1,0.9,0.1,1.3h-4.9
		c0,0.3,0,0.6,0.1,0.8c0.1,0.3,0.2,0.5,0.4,0.7c0.2,0.2,0.4,0.4,0.7,0.5c0.3,0.1,0.6,0.2,0.9,0.2c0.5,0,0.8-0.1,1.1-0.3
		c0.3-0.2,0.5-0.5,0.6-1h1.1C190,462.5,189.6,463.1,189.1,463.5 M188.9,459.2c-0.1-0.2-0.2-0.4-0.4-0.6c-0.2-0.2-0.4-0.3-0.6-0.4
		c-0.2-0.1-0.5-0.1-0.7-0.1c-0.3,0-0.5,0-0.8,0.1c-0.2,0.1-0.4,0.2-0.6,0.4c-0.2,0.2-0.3,0.4-0.4,0.6c-0.1,0.2-0.1,0.5-0.2,0.7h3.8
		C189,459.7,189,459.4,188.9,459.2"/>
	<path id="XMLID_31_" class="st0" d="M198.4,454.7c0.2,0,0.4,0,0.6,0c0.2,0,0.4,0,0.7,0c0.2,0,0.4,0.1,0.6,0.1
		c0.2,0,0.4,0.1,0.5,0.2c0.3,0.2,0.6,0.4,0.8,0.7c0.2,0.3,0.3,0.7,0.3,1.2c0,0.5-0.1,0.9-0.4,1.3c-0.2,0.4-0.6,0.6-1,0.8v0
		c0.6,0.1,1,0.4,1.3,0.8c0.3,0.4,0.4,0.9,0.4,1.4c0,0.3-0.1,0.7-0.2,1c-0.1,0.3-0.3,0.6-0.5,0.8c-0.2,0.2-0.5,0.4-0.9,0.6
		c-0.3,0.1-0.7,0.2-1.2,0.2h-4.4v-9.1H198.4z M198.7,458.7c0.7,0,1.2-0.1,1.5-0.4c0.3-0.2,0.5-0.6,0.5-1.1c0-0.3-0.1-0.6-0.2-0.8
		c-0.1-0.2-0.2-0.3-0.4-0.4c-0.2-0.1-0.4-0.2-0.6-0.2c-0.2,0-0.5,0-0.7,0h-2.4v2.9H198.7z M199.3,462.9c0.5,0,1-0.1,1.3-0.4
		c0.3-0.3,0.5-0.7,0.5-1.2c0-0.3-0.1-0.5-0.2-0.7c-0.1-0.2-0.3-0.4-0.4-0.5c-0.2-0.1-0.4-0.2-0.6-0.2c-0.2,0-0.5-0.1-0.7-0.1h-2.8
		v3.2H199.3z"/>
	<path id="XMLID_29_" class="st0" d="M204.5,457.3v1.4h0c0.3-0.5,0.6-0.9,1-1.2c0.4-0.3,0.9-0.4,1.5-0.4v1.2c-0.4,0-0.8,0.1-1.1,0.2
		c-0.3,0.1-0.6,0.3-0.7,0.5c-0.2,0.2-0.3,0.5-0.4,0.8c-0.1,0.3-0.1,0.7-0.1,1.1v2.9h-1.1v-6.6H204.5z"/>
	<path id="XMLID_26_" class="st0" d="M207.7,454.7h1.1v1.3h-1.1V454.7z M208.8,463.9h-1.1v-6.6h1.1V463.9z"/>
	<path id="XMLID_25_" class="st0" d="M213.1,457.3v1h-1.3v4.1c0,0.1,0,0.2,0,0.3c0,0.1,0.1,0.1,0.1,0.2c0.1,0,0.1,0.1,0.2,0.1
		c0.1,0,0.2,0,0.4,0h0.5v1h-0.8c-0.3,0-0.5,0-0.7-0.1c-0.2,0-0.4-0.1-0.5-0.2c-0.1-0.1-0.2-0.2-0.3-0.4c-0.1-0.2-0.1-0.4-0.1-0.7
		v-4.2h-1.1v-1h1.1v-2h1.1v2H213.1z"/>
	<path id="XMLID_22_" class="st0" d="M214.1,454.7h1.1v1.3h-1.1V454.7z M215.1,463.9h-1.1v-6.6h1.1V463.9z"/>
	<path id="XMLID_21_" class="st0" d="M217.5,462.4c0.1,0.2,0.2,0.3,0.4,0.4c0.2,0.1,0.4,0.2,0.6,0.2c0.2,0,0.4,0.1,0.6,0.1
		c0.2,0,0.3,0,0.5,0c0.2,0,0.4-0.1,0.5-0.1c0.2-0.1,0.3-0.2,0.4-0.3c0.1-0.1,0.2-0.3,0.2-0.5c0-0.3-0.1-0.5-0.3-0.6
		c-0.2-0.1-0.5-0.3-0.8-0.4s-0.7-0.2-1-0.2c-0.4-0.1-0.7-0.2-1-0.3c-0.3-0.1-0.6-0.3-0.8-0.6c-0.2-0.2-0.3-0.6-0.3-1
		c0-0.3,0.1-0.6,0.2-0.9c0.1-0.2,0.3-0.4,0.6-0.6c0.2-0.1,0.5-0.3,0.8-0.3c0.3-0.1,0.6-0.1,0.9-0.1c0.4,0,0.7,0,1,0.1
		c0.3,0.1,0.6,0.2,0.8,0.3c0.2,0.2,0.4,0.4,0.6,0.6c0.1,0.3,0.2,0.6,0.3,1h-1.1c0-0.2-0.1-0.4-0.2-0.5s-0.2-0.3-0.4-0.3
		c-0.1-0.1-0.3-0.1-0.5-0.2c-0.2,0-0.4-0.1-0.5-0.1c-0.2,0-0.3,0-0.5,0c-0.2,0-0.3,0.1-0.5,0.1c-0.1,0.1-0.2,0.1-0.3,0.3
		c-0.1,0.1-0.1,0.2-0.1,0.4c0,0.2,0.1,0.3,0.2,0.5c0.1,0.1,0.3,0.2,0.5,0.3c0.2,0.1,0.4,0.1,0.7,0.2c0.3,0.1,0.5,0.1,0.8,0.2
		c0.3,0.1,0.5,0.1,0.8,0.2c0.3,0.1,0.5,0.2,0.7,0.3c0.2,0.1,0.4,0.3,0.5,0.5c0.1,0.2,0.2,0.5,0.2,0.8c0,0.4-0.1,0.7-0.2,1
		c-0.2,0.3-0.4,0.5-0.7,0.6c-0.3,0.2-0.6,0.3-0.9,0.3c-0.3,0.1-0.7,0.1-1,0.1c-0.4,0-0.7,0-1-0.1c-0.3-0.1-0.6-0.2-0.9-0.4
		c-0.3-0.2-0.5-0.4-0.6-0.7c-0.2-0.3-0.2-0.6-0.3-1h1.1C217.4,462,217.4,462.2,217.5,462.4"/>
	<path id="XMLID_20_" class="st0" d="M224,454.7v3.5h0c0.1-0.2,0.2-0.4,0.4-0.5c0.2-0.1,0.3-0.3,0.5-0.3c0.2-0.1,0.4-0.2,0.6-0.2
		c0.2,0,0.4-0.1,0.6-0.1c0.4,0,0.8,0.1,1.1,0.2c0.3,0.1,0.5,0.3,0.7,0.5c0.2,0.2,0.3,0.5,0.4,0.8c0.1,0.3,0.1,0.6,0.1,1v4.3h-1.1
		v-4.5c0-0.4-0.1-0.7-0.4-1c-0.2-0.2-0.6-0.4-1-0.4c-0.3,0-0.6,0.1-0.9,0.2c-0.2,0.1-0.4,0.2-0.6,0.4c-0.2,0.2-0.3,0.4-0.4,0.7
		c-0.1,0.3-0.1,0.5-0.1,0.8v3.7h-1.1v-9.1H224z"/>
	<path id="XMLID_17_" class="st0" d="M234.7,457.3v0.9h0c0.2-0.4,0.5-0.6,0.8-0.8c0.4-0.2,0.8-0.2,1.3-0.2c0.5,0,1,0.1,1.3,0.3
		c0.4,0.2,0.7,0.4,0.9,0.8c0.3,0.3,0.4,0.7,0.6,1.1c0.1,0.4,0.2,0.9,0.2,1.3c0,0.5-0.1,0.9-0.2,1.3c-0.1,0.4-0.3,0.8-0.6,1.1
		c-0.3,0.3-0.6,0.6-0.9,0.7c-0.4,0.2-0.8,0.3-1.3,0.3c-0.2,0-0.3,0-0.5-0.1c-0.2,0-0.4-0.1-0.6-0.2c-0.2-0.1-0.4-0.2-0.6-0.3
		c-0.2-0.1-0.3-0.3-0.4-0.5h0v3.4h-1.1v-9.1H234.7z M238.6,459.6c-0.1-0.3-0.2-0.6-0.4-0.8c-0.2-0.2-0.4-0.4-0.6-0.6
		c-0.3-0.1-0.6-0.2-0.9-0.2c-0.4,0-0.7,0.1-0.9,0.2c-0.3,0.1-0.5,0.3-0.6,0.6c-0.2,0.2-0.3,0.5-0.4,0.8c-0.1,0.3-0.1,0.6-0.1,0.9
		c0,0.3,0,0.6,0.1,0.9c0.1,0.3,0.2,0.6,0.4,0.8c0.2,0.2,0.4,0.4,0.6,0.6c0.3,0.1,0.6,0.2,1,0.2s0.7-0.1,0.9-0.2
		c0.3-0.1,0.5-0.3,0.6-0.6c0.2-0.2,0.3-0.5,0.3-0.8c0.1-0.3,0.1-0.6,0.1-0.9C238.7,460.2,238.7,459.9,238.6,459.6"/>
	<path id="XMLID_14_" class="st0" d="M245.7,463.5c-0.5,0.4-1.1,0.6-1.9,0.6c-0.5,0-1-0.1-1.4-0.3c-0.4-0.2-0.7-0.4-1-0.7
		c-0.3-0.3-0.5-0.7-0.6-1.1c-0.1-0.4-0.2-0.9-0.2-1.4c0-0.5,0.1-1,0.2-1.4c0.2-0.4,0.4-0.8,0.6-1.1c0.3-0.3,0.6-0.5,1-0.7
		c0.4-0.2,0.8-0.3,1.2-0.3c0.6,0,1.1,0.1,1.5,0.4c0.4,0.2,0.7,0.6,0.9,0.9c0.2,0.4,0.4,0.8,0.5,1.2c0.1,0.4,0.1,0.9,0.1,1.3h-5
		c0,0.3,0,0.6,0.1,0.8c0.1,0.3,0.2,0.5,0.4,0.7c0.2,0.2,0.4,0.4,0.7,0.5c0.3,0.1,0.6,0.2,0.9,0.2c0.5,0,0.8-0.1,1.1-0.3
		c0.3-0.2,0.5-0.5,0.6-1h1.1C246.5,462.5,246.2,463.1,245.7,463.5 M245.4,459.2c-0.1-0.2-0.2-0.4-0.4-0.6c-0.2-0.2-0.4-0.3-0.6-0.4
		c-0.2-0.1-0.5-0.1-0.7-0.1c-0.3,0-0.5,0-0.8,0.1c-0.2,0.1-0.4,0.2-0.6,0.4c-0.2,0.2-0.3,0.4-0.4,0.6c-0.1,0.2-0.1,0.5-0.2,0.7h3.8
		C245.6,459.7,245.5,459.4,245.4,459.2"/>
	<path id="XMLID_11_" class="st0" d="M247.6,459.2c0.1-0.4,0.3-0.8,0.6-1.1c0.3-0.3,0.6-0.6,1-0.7c0.4-0.2,0.9-0.3,1.4-0.3
		c0.5,0,1,0.1,1.4,0.3c0.4,0.2,0.7,0.4,1,0.7c0.3,0.3,0.5,0.7,0.6,1.1c0.1,0.4,0.2,0.9,0.2,1.4c0,0.5-0.1,0.9-0.2,1.4
		c-0.1,0.4-0.3,0.8-0.6,1.1c-0.3,0.3-0.6,0.6-1,0.7c-0.4,0.2-0.9,0.3-1.4,0.3c-0.5,0-1-0.1-1.4-0.3c-0.4-0.2-0.7-0.4-1-0.7
		c-0.3-0.3-0.5-0.7-0.6-1.1c-0.1-0.4-0.2-0.9-0.2-1.4C247.4,460.1,247.5,459.6,247.6,459.2 M248.7,461.6c0.1,0.3,0.3,0.6,0.4,0.8
		c0.2,0.2,0.4,0.4,0.7,0.5c0.3,0.1,0.5,0.2,0.8,0.2c0.3,0,0.5-0.1,0.8-0.2c0.3-0.1,0.5-0.3,0.7-0.5c0.2-0.2,0.3-0.5,0.4-0.8
		c0.1-0.3,0.2-0.7,0.2-1.1c0-0.4-0.1-0.8-0.2-1.1c-0.1-0.3-0.3-0.6-0.4-0.8c-0.2-0.2-0.4-0.4-0.7-0.5c-0.3-0.1-0.5-0.2-0.8-0.2
		c-0.3,0-0.5,0.1-0.8,0.2c-0.3,0.1-0.5,0.3-0.7,0.5c-0.2,0.2-0.3,0.5-0.4,0.8c-0.1,0.3-0.2,0.7-0.2,1.1
		C248.6,461,248.6,461.3,248.7,461.6"/>
	<path id="XMLID_8_" class="st0" d="M256.1,457.3v0.9h0c0.2-0.4,0.5-0.6,0.8-0.8c0.4-0.2,0.8-0.2,1.3-0.2c0.5,0,1,0.1,1.3,0.3
		c0.4,0.2,0.7,0.4,0.9,0.8c0.3,0.3,0.4,0.7,0.6,1.1c0.1,0.4,0.2,0.9,0.2,1.3c0,0.5-0.1,0.9-0.2,1.3c-0.1,0.4-0.3,0.8-0.6,1.1
		c-0.3,0.3-0.6,0.6-0.9,0.7c-0.4,0.2-0.8,0.3-1.3,0.3c-0.2,0-0.3,0-0.5-0.1c-0.2,0-0.4-0.1-0.6-0.2c-0.2-0.1-0.4-0.2-0.6-0.3
		c-0.2-0.1-0.3-0.3-0.4-0.5h0v3.4H255v-9.1H256.1z M260,459.6c-0.1-0.3-0.2-0.6-0.4-0.8s-0.4-0.4-0.6-0.6c-0.3-0.1-0.6-0.2-0.9-0.2
		c-0.4,0-0.7,0.1-0.9,0.2c-0.3,0.1-0.5,0.3-0.6,0.6c-0.2,0.2-0.3,0.5-0.4,0.8c-0.1,0.3-0.1,0.6-0.1,0.9c0,0.3,0,0.6,0.1,0.9
		c0.1,0.3,0.2,0.6,0.4,0.8c0.2,0.2,0.4,0.4,0.6,0.6c0.3,0.1,0.6,0.2,1,0.2s0.7-0.1,0.9-0.2c0.3-0.1,0.5-0.3,0.6-0.6
		c0.2-0.2,0.3-0.5,0.3-0.8c0.1-0.3,0.1-0.6,0.1-0.9C260.1,460.2,260.1,459.9,260,459.6"/>
	<rect id="XMLID_7_" x="262.4" y="454.7" class="st0" width="1.1" height="9.1"/>
	<path id="XMLID_4_" class="st0" d="M269.7,463.5c-0.5,0.4-1.1,0.6-1.9,0.6c-0.5,0-1-0.1-1.4-0.3c-0.4-0.2-0.7-0.4-1-0.7
		c-0.3-0.3-0.5-0.7-0.6-1.1c-0.1-0.4-0.2-0.9-0.2-1.4c0-0.5,0.1-1,0.2-1.4c0.2-0.4,0.4-0.8,0.6-1.1c0.3-0.3,0.6-0.5,1-0.7
		c0.4-0.2,0.8-0.3,1.2-0.3c0.6,0,1.1,0.1,1.5,0.4c0.4,0.2,0.7,0.6,0.9,0.9c0.2,0.4,0.4,0.8,0.5,1.2c0.1,0.4,0.1,0.9,0.1,1.3h-5
		c0,0.3,0,0.6,0.1,0.8c0.1,0.3,0.2,0.5,0.4,0.7c0.2,0.2,0.4,0.4,0.7,0.5c0.3,0.1,0.6,0.2,0.9,0.2c0.5,0,0.8-0.1,1.1-0.3
		c0.3-0.2,0.5-0.5,0.6-1h1.1C270.5,462.5,270.2,463.1,269.7,463.5 M269.4,459.2c-0.1-0.2-0.2-0.4-0.4-0.6c-0.2-0.2-0.4-0.3-0.6-0.4
		c-0.2-0.1-0.5-0.1-0.7-0.1c-0.3,0-0.5,0-0.8,0.1c-0.2,0.1-0.4,0.2-0.6,0.4s-0.3,0.4-0.4,0.6c-0.1,0.2-0.1,0.5-0.2,0.7h3.8
		C269.6,459.7,269.5,459.4,269.4,459.2"/>
</g>
</svg>
