<?xml version="1.0" encoding="utf-8"?>
<!-- Generator: Adobe Illustrator 19.0.0, SVG Export Plug-In . SVG Version: 6.00 Build 0)  -->
<svg version="1.1" id="Layer_1" xmlns="http://www.w3.org/2000/svg" xmlns:xlink="http://www.w3.org/1999/xlink" x="0px" y="0px"
	 viewBox="-99 75.3 400 150.7" style="enable-background:new -99 75.3 400 150.7;" xml:space="preserve">
<style type="text/css">
	.st0{fill:#022169;}
	.st1{fill:#CF0A2C;}
	.st2{fill:#FFFFFF;}
</style>
<rect id="XMLID_566_" x="-82.2" y="79.6" class="st0" width="2.5" height="136"/>
<path id="XMLID_563_" d="M-67.3,132.2h7.3c6.5,0,10.2,3.3,10.2,10.1c0,7.1-3.1,11.1-10.2,11.1h-7.3V132.2z M-64.5,151h4.7
	c1.9,0,7.1-0.5,7.1-8.3c0-5-1.9-8.1-7-8.1h-4.7L-64.5,151L-64.5,151z"/>
<path id="XMLID_560_" d="M-34.4,148.5c-0.7,3.4-3.1,5.2-6.5,5.2c-4.9,0-7.2-3.4-7.3-8.1c0-4.6,3-8,7.2-8c5.4,0,7.1,5.1,6.9,8.8
	h-11.5c-0.1,2.7,1.4,5,4.8,5c2.1,0,3.5-1,4-3h2.4C-34.4,148.4-34.4,148.5-34.4,148.5z M-36.8,144.2c-0.1-2.4-1.9-4.3-4.4-4.3
	c-2.6,0-4.2,2-4.4,4.3H-36.8z"/>
<path id="XMLID_557_" d="M-32.1,138.1h2.5v2.1h0.1c0.8-1.7,2.8-2.4,4.9-2.4c4.7,0,7,3.7,7,8.1c0,4.3-2.3,8-7,8
	c-1.6,0-3.8-0.6-4.9-2.4h-0.1v7.9h-2.5V138.1z M-24.9,139.9c-3.4,0-4.7,2.9-4.7,5.8c0,3,1.4,5.8,4.8,5.8s4.6-2.9,4.6-5.9
	C-20.2,142.7-21.7,139.9-24.9,139.9"/>
<path id="XMLID_554_" d="M-1.8,153.3c-0.4,0.3-1,0.4-1.8,0.4c-1.3,0-2.1-0.7-2.1-2.4c-1.4,1.6-3.3,2.4-5.4,2.4
	c-2.8,0-5.1-1.2-5.1-4.3c0-3.5,2.6-4.2,5.2-4.7c2.8-0.5,5.2-0.4,5.2-2.3c0-2.2-1.8-2.5-3.4-2.5c-2.1,0-3.7,0.7-3.8,2.9h-2.5
	c0.1-3.8,3.1-5.1,6.5-5.1c2.8,0,5.7,0.6,5.7,4.2v7.9c0,1.2,0,1.7,0.8,1.7c0.2,0,0.4,0,0.8-0.1L-1.8,153.3L-1.8,153.3L-1.8,153.3z
	 M-5.9,145.5c-1,0.7-2.9,0.7-4.6,1s-3.1,0.9-3.1,2.8c0,1.7,1.4,2.3,3,2.3c3.3,0,4.7-2.1,4.7-3.5C-5.9,148.1-5.9,145.5-5.9,145.5z"/>
<path id="XMLID_553_" d="M-0.1,138.1h2.4v3.2h0.1c1.2-2.5,2.9-3.7,5.6-3.6v2.7c-4.1,0-5.5,2.3-5.5,6.2v6.8h-2.6V138.1z"/>
<path id="XMLID_552_" d="M13.7,138.1h3.1v2.2h-3.1v9.5c0,1.2,0.3,1.4,1.9,1.4h1.2v2.2h-1.9c-2.6,0-3.6-0.5-3.6-3.3v-9.7H8.7v-2.2
	h2.6v-4.6h2.5v4.5L13.7,138.1L13.7,138.1z"/>
<path id="XMLID_551_" d="M18.7,138.1h2.4v2.3l0,0c1.1-1.7,2.8-2.6,4.9-2.6c1.9,0,3.6,0.7,4.2,2.6c1-1.6,2.8-2.6,4.8-2.6
	c3.1,0,5.1,1.3,5.1,4.4v11.2h-2.5v-10c0-1.9-0.5-3.4-3-3.4c-2.4,0-4,1.5-4,3.9v9.5h-2.5v-10c0-2-0.6-3.4-2.9-3.4
	c-3,0-4.1,2.8-4.1,3.9v9.5h-2.5v-15.3L18.7,138.1L18.7,138.1z"/>
<path id="XMLID_548_" d="M56.3,148.5c-0.7,3.4-3.1,5.2-6.5,5.2c-4.9,0-7.2-3.4-7.3-8.1c0-4.6,3-8,7.2-8c5.4,0,7.1,5.1,6.9,8.8H45
	c-0.1,2.7,1.4,5,4.8,5c2.1,0,3.5-1,4-3h2.5V148.5z M53.8,144.2c-0.1-2.4-1.9-4.3-4.4-4.3c-2.6,0-4.2,2-4.4,4.3H53.8z"/>
<path id="XMLID_547_" d="M58.6,138.1H61v2.4h0.1c1.1-1.9,2.8-2.8,5-2.8c4,0,5.3,2.3,5.3,5.6v10.1h-2.5v-10.4c0-1.9-1.2-3.1-3.1-3.1
	c-3.1,0-4.5,2-4.5,4.8v8.6h-2.5v-15.2L58.6,138.1L58.6,138.1z"/>
<path id="XMLID_546_" d="M77.7,138.1h3.1v2.2h-3.1v9.5c0,1.2,0.3,1.4,1.9,1.4h1.2v2.2h-1.9c-2.6,0-3.6-0.5-3.6-3.3v-9.7h-2.6v-2.2
	h2.6v-4.6h2.5L77.7,138.1L77.7,138.1z"/>
<path id="XMLID_545_" d="M-66.7,171.4h-2.6v-2.2h2.6v-2.3c0-2.5,1.5-3.8,4.2-3.8c0.5,0,1.2,0.1,1.6,0.2v2.2c-0.4-0.1-1-0.2-1.4-0.2
	c-1.2,0-1.9,0.4-1.9,1.7v2.1h3v2.2h-3v13.1h-2.5C-66.7,184.4-66.7,171.4-66.7,171.4z"/>
<path id="XMLID_542_" d="M-53.3,168.8c4.9,0,7.4,3.5,7.4,8s-2.6,8-7.4,8c-4.9,0-7.4-3.5-7.4-8C-60.8,172.3-58.2,168.8-53.3,168.8
	 M-53.3,182.6c2.6,0,4.8-2.1,4.8-5.8s-2.1-5.8-4.8-5.8c-2.6,0-4.8,2.1-4.8,5.8S-56,182.6-53.3,182.6"/>
<path id="XMLID_540_" d="M-43.7,169.2h2.4v3.2h0.1c1.2-2.5,2.9-3.7,5.6-3.6v2.7c-4.1,0-5.5,2.3-5.5,6.2v6.8h-2.5L-43.7,169.2
	L-43.7,169.2z"/>
<rect id="XMLID_539_" x="-25.6" y="163.3" width="2.8" height="21.1"/>
<path id="XMLID_538_" d="M-19.3,169.2h2.4v2.4h0.1c1.1-1.9,2.8-2.8,5-2.8c4,0,5.3,2.3,5.3,5.6v10.1H-9v-10.4c0-1.9-1.2-3.1-3.1-3.1
	c-3.1,0-4.5,2-4.5,4.8v8.6h-2.5v-15.2L-19.3,169.2L-19.3,169.2z"/>
<path id="XMLID_537_" d="M-0.1,169.2H3v2.2h-3.1v9.5c0,1.2,0.3,1.4,1.9,1.4H3v2.2H1c-2.6,0-3.6-0.5-3.6-3.3v-9.7h-2.6v-2.2h2.6v-4.6
	h2.5C-0.1,164.7-0.1,169.2-0.1,169.2z"/>
<path id="XMLID_534_" d="M17.5,179.6c-0.7,3.4-3.1,5.2-6.5,5.2c-4.9,0-7.2-3.4-7.3-8.1c0-4.6,3-8,7.2-8c5.4,0,7.1,5.1,6.9,8.8H6.3
	c-0.1,2.7,1.4,5,4.8,5c2.1,0,3.5-1,4-3h2.4C17.5,179.5,17.5,179.6,17.5,179.6z M15.1,175.4c-0.1-2.4-1.9-4.3-4.4-4.3
	c-2.6,0-4.2,2-4.4,4.3H15.1z"/>
<path id="XMLID_533_" d="M19.8,169.2h2.3v3.2h0.1c1.2-2.5,2.9-3.7,5.6-3.6v2.7c-4.1,0-5.5,2.3-5.5,6.2v6.8h-2.5V169.2z"/>
<path id="XMLID_532_" d="M29.2,169.2h2.4v2.4h0.1c1.1-1.9,2.8-2.8,5-2.8c4,0,5.3,2.3,5.3,5.6v10.1h-2.5v-10.4c0-1.9-1.2-3.1-3.1-3.1
	c-3,0-4.5,2-4.5,4.8v8.6h-2.5v-15.2L29.2,169.2L29.2,169.2z"/>
<path id="XMLID_529_" d="M58.5,184.4c-0.4,0.3-1,0.4-1.8,0.4c-1.3,0-2.1-0.7-2.1-2.4c-1.4,1.6-3.3,2.4-5.4,2.4
	c-2.8,0-5.1-1.2-5.1-4.3c0-3.5,2.6-4.2,5.2-4.7c2.8-0.5,5.2-0.4,5.2-2.3c0-2.2-1.8-2.5-3.4-2.5c-2.1,0-3.7,0.7-3.8,2.9h-2.5
	c0.1-3.8,3.1-5.1,6.5-5.1c2.8,0,5.7,0.6,5.7,4.2v7.9c0,1.2,0,1.7,0.8,1.7c0.2,0,0.4,0,0.8-0.1L58.5,184.4L58.5,184.4L58.5,184.4z
	 M54.4,176.6c-1,0.7-2.9,0.7-4.6,1c-1.7,0.3-3.1,0.9-3.1,2.8c0,1.7,1.4,2.3,3,2.3c3.3,0,4.7-2.1,4.7-3.5
	C54.4,179.2,54.4,176.6,54.4,176.6z"/>
<path id="XMLID_528_" d="M63.6,169.2h3.1v2.2h-3.1v9.5c0,1.2,0.3,1.4,1.9,1.4h1.2v2.2h-1.9c-2.6,0-3.6-0.5-3.6-3.3v-9.7h-2.6v-2.2
	h2.6v-4.6h2.5L63.6,169.2L63.6,169.2z"/>
<path id="XMLID_525_" d="M71.1,166.4h-2.5v-3.1h2.5V166.4z M68.6,169.2h2.5v15.3h-2.5V169.2z"/>
<path id="XMLID_522_" d="M80.9,168.8c4.9,0,7.4,3.5,7.4,8s-2.6,8-7.4,8c-4.9,0-7.4-3.5-7.4-8S76,168.8,80.9,168.8 M80.9,182.6
	c2.6,0,4.8-2.1,4.8-5.8s-2.1-5.8-4.8-5.8c-2.6,0-4.8,2.1-4.8,5.8S78.2,182.6,80.9,182.6"/>
<path id="XMLID_521_" d="M90.6,169.2H93v2.4h0.1c1.1-1.9,2.8-2.8,5-2.8c4,0,5.3,2.3,5.3,5.6v10.1h-2.5v-10.4c0-1.9-1.2-3.1-3.1-3.1
	c-3,0-4.5,2-4.5,4.8v8.6h-2.5v-15.2L90.6,169.2L90.6,169.2z"/>
<path id="XMLID_518_" d="M119.9,184.4c-0.4,0.3-1,0.4-1.8,0.4c-1.3,0-2.1-0.7-2.1-2.4c-1.4,1.6-3.3,2.4-5.4,2.4
	c-2.8,0-5.1-1.2-5.1-4.3c0-3.5,2.6-4.2,5.2-4.7c2.8-0.5,5.2-0.4,5.2-2.3c0-2.2-1.8-2.5-3.4-2.5c-2.1,0-3.7,0.7-3.8,2.9h-2.6
	c0.1-3.8,3.1-5.1,6.5-5.1c2.8,0,5.7,0.6,5.7,4.2v7.9c0,1.2,0,1.7,0.8,1.7c0.2,0,0.4,0,0.8-0.1C119.9,182.5,119.9,184.4,119.9,184.4z
	 M115.8,176.6c-1,0.7-2.9,0.7-4.6,1s-3.1,0.9-3.1,2.8c0,1.7,1.4,2.3,3,2.3c3.3,0,4.7-2.1,4.7-3.5V176.6z"/>
<rect id="XMLID_517_" x="121.7" y="163.3" width="2.5" height="21.1"/>
<path id="XMLID_514_" d="M-67.3,194.4h7.3c6.5,0,10.2,3.3,10.2,10.1c0,7.1-3.1,11.1-10.2,11.1h-7.3V194.4z M-64.5,213.2h4.7
	c1.9,0,7.1-0.5,7.1-8.3c0-5-1.9-8.1-7-8.1h-4.7L-64.5,213.2L-64.5,213.2z"/>
<path id="XMLID_511_" d="M-34.4,210.7c-0.7,3.4-3.1,5.2-6.5,5.2c-4.9,0-7.2-3.4-7.3-8.1c0-4.6,3-8,7.2-8c5.4,0,7.1,5.1,6.9,8.8
	h-11.5c-0.1,2.7,1.4,5,4.8,5c2.1,0,3.5-1,4-3h2.4C-34.4,210.6-34.4,210.7-34.4,210.7z M-36.8,206.5c-0.1-2.4-1.9-4.3-4.4-4.3
	c-2.6,0-4.2,2-4.4,4.3H-36.8z"/>
<polygon id="XMLID_510_" points="-25.8,215.6 -28.5,215.6 -34.2,200.3 -31.3,200.3 -27,213 -27,213 -22.8,200.3 -20.2,200.3 "/>
<path id="XMLID_507_" d="M-6.1,210.7c-0.7,3.4-3.1,5.2-6.5,5.2c-4.9,0-7.2-3.4-7.3-8.1c0-4.6,3-8,7.2-8c5.4,0,7.1,5.1,6.9,8.8h-11.5
	c-0.1,2.7,1.4,5,4.8,5c2.1,0,3.5-1,4-3h2.4C-6.1,210.6-6.1,210.7-6.1,210.7z M-8.5,206.5c-0.1-2.4-1.9-4.3-4.4-4.3
	c-2.6,0-4.2,2-4.4,4.3H-8.5z"/>
<rect id="XMLID_506_" x="-3.8" y="194.4" width="2.5" height="21.1"/>
<path id="XMLID_503_" d="M8.5,199.9c4.9,0,7.4,3.5,7.4,8s-2.6,8-7.4,8c-4.9,0-7.4-3.5-7.4-8C1.1,203.4,3.7,199.9,8.5,199.9
	 M8.5,213.7c2.6,0,4.8-2.1,4.8-5.8s-2.1-5.8-4.8-5.8c-2.6,0-4.8,2.1-4.8,5.8C3.8,211.6,5.9,213.7,8.5,213.7"/>
<path id="XMLID_500_" d="M18.3,200.3h2.5v2.1h0.1c0.8-1.7,2.8-2.4,4.9-2.4c4.7,0,7,3.7,7,8.1s-2.3,8-7,8c-1.6,0-3.8-0.6-4.9-2.4
	h-0.1v7.9h-2.5V200.3z M25.4,202.1c-3.4,0-4.7,2.9-4.7,5.8c0,3,1.4,5.8,4.8,5.8s4.6-2.9,4.6-5.9C30.1,204.9,28.6,202.1,25.4,202.1"
	/>
<path id="XMLID_499_" d="M35.1,200.3h2.4v2.3h0.1c1.1-1.7,2.8-2.6,4.9-2.6c1.9,0,3.6,0.7,4.2,2.6c1-1.6,2.8-2.6,4.8-2.6
	c3.1,0,5.1,1.3,5.1,4.4v11.2h-2.5v-10c0-1.9-0.5-3.4-3-3.4c-2.4,0-4,1.5-4,3.9v9.5h-2.5v-10c0-2-0.6-3.4-2.9-3.4
	c-3,0-4.1,2.8-4.1,3.9v9.5h-2.5C35.1,215.6,35.1,200.3,35.1,200.3z"/>
<path id="XMLID_496_" d="M72.7,210.7c-0.7,3.4-3.1,5.2-6.5,5.2c-4.9,0-7.2-3.4-7.3-8.1c0-4.6,3-8,7.2-8c5.4,0,7.1,5.1,6.9,8.8H61.5
	c-0.1,2.7,1.4,5,4.8,5c2.1,0,3.5-1,4-3h2.4V210.7z M70.3,206.5c-0.1-2.4-1.9-4.3-4.4-4.3c-2.6,0-4.2,2-4.4,4.3H70.3z"/>
<path id="XMLID_495_" d="M75,200.3h2.4v2.4h0.1c1.1-1.9,2.8-2.8,5-2.8c4,0,5.3,2.3,5.3,5.6v10.1h-2.5v-10.4c0-1.9-1.2-3.1-3.1-3.1
	c-3.1,0-4.5,2-4.5,4.8v8.6h-2.5v-15.2L75,200.3L75,200.3z"/>
<path id="XMLID_494_" d="M94.1,200.3h3.1v2.2h-3.1v9.5c0,1.2,0.3,1.4,1.9,1.4h1.2v2.2h-1.9c-2.6,0-3.6-0.5-3.6-3.3v-9.7h-2.6v-2.2
	h2.6v-4.7h2.4V200.3z"/>
<path id="XMLID_493_" d="M-68.6,99.4C-68.7,99.4-68.7,99.4-68.6,99.4L-68.6,99.4"/>
<path id="XMLID_490_" d="M-39,101c-0.1-1.1-0.6-2.1-1.2-3c0.1-0.1,0.1-0.1,0.2-0.3c-0.1,0-0.2,0-0.3,0.1c0-0.1-0.1-0.1-0.1-0.2
	c-0.8-1-1.7-1.6-2.7-1.9c0-0.2-0.2-0.2-0.2-0.2l-0.1,0.1c0,0,0,0-0.1,0c-0.1-0.1-0.1-0.1-0.2-0.1c0,0.1,0,0.2,0.1,0.3l0,0
	c-0.1,0-0.1,0-0.1,0.1s0,0.2,0.1,0.3v2.2c-0.1,0-0.2,0-0.3,0.1c0.1,0.1,0.2,0.1,0.3,0.1v2.4c-0.1,0-0.2,0.2-0.2,0.3
	c0,0.1,0.1,0.1,0.2,0.1v0.1c0,0.1-0.1,0.1-0.1,0.2c0.1,0,0.2,0,0.2-0.1h0.1c0,0.1,0,0.1,0.1,0.2c0.1,0,0.2,0,0.3-0.2h1.6
	c0,0.1,0,0.2,0.1,0.3c0.1-0.1,0.1-0.2,0.1-0.3h1.8c0,0.2,0.2,0.2,0.3,0.2s0.1-0.1,0.1-0.2l0,0c0.1,0,0.1,0.1,0.2,0.1
	c0-0.1,0-0.2-0.1-0.2c0,0,0,0,0-0.1c0.1,0,0.1,0,0.2-0.1C-38.8,101.2-38.9,101.1-39,101 M-40.6,97.8c0.8,1,1.3,2.3,1.4,3.7h-4.5
	v-5.6C-42.5,96-41.4,96.7-40.6,97.8"/>
<path id="XMLID_487_" d="M-39.2,101.3c-0.1-1.3-0.6-2.5-1.4-3.5c-0.4-0.5-0.8-0.9-1.3-1.2c-0.5-0.3-1-0.5-1.5-0.7h-0.1v5.4
	L-39.2,101.3L-39.2,101.3z M-40.8,97.9L-40.8,97.9c0,0.2,0.1,0.2,0.2,0.2c-0.1,0.1-0.1,0.1-0.1,0.3c0.1,0,0.2,0,0.3-0.1
	c0,0.1,0,0.2,0.1,0.2h0.1c0.5,0.8,0.8,1.6,0.9,2.5c-0.1,0-0.1,0-0.2,0c0,0.1,0,0.2,0.1,0.2h-1.5c0-0.1,0-0.1-0.1-0.2
	c-0.1,0-0.1,0-0.2,0.1c0-0.1,0-0.2-0.1-0.3c-0.1,0.1-0.1,0.2-0.1,0.3c-0.1-0.1-0.1-0.1-0.2-0.1c-0.1,0-0.1,0.1-0.1,0.2H-43
	c0-0.1,0.1-0.1,0.1-0.2c-0.1,0-0.2,0-0.2,0.1V99c0.1,0,0.2,0,0.2-0.1s0-0.1-0.1-0.2c0.1,0,0.2,0,0.3-0.1c-0.1-0.1-0.2-0.1-0.3-0.1
	c0.1-0.1,0.1-0.1,0.1-0.2s-0.1-0.1-0.2-0.1v-1.8c0.1,0,0.1,0.1,0.2,0.1c0-0.1,0-0.2,0-0.2C-42.3,96.5-41.5,97-40.8,97.9"/>
<path id="XMLID_486_" d="M-40.1,100.4L-40.1,100.4c0.1,0,0.2-0.1,0.2-0.2c-0.1,0-0.2,0-0.2,0c0.1,0,0.1,0,0.1-0.1
	c-0.1-0.1-0.1-0.1-0.2,0c-0.1,0.1-0.6,0-0.6-0.4l0,0c0,0.1,0.1,0.1,0.2,0.1c0.2,0.2,0.5,0.1,0.5-0.1s-0.2-0.3-0.4-0.5
	c-0.1-0.1-0.2-0.1-0.2-0.2c-0.1-0.2,0-0.3-0.2-0.6c0-0.1,0-0.1-0.1-0.2c-0.1,0.2-0.1,0.5,0.1,0.8c0.2,0.2,0.7,0.5,0.7,0.7
	c0,0.1-0.1,0.1-0.1,0.1c-0.1,0-0.2-0.1-0.3-0.2l0,0l0,0c-0.2-0.2-0.4-0.4-0.5-0.6c-0.2-0.3-0.1-0.5-0.1-0.8c0.2-0.2-0.1-0.6-0.2-0.7
	c0,0,0-0.1,0-0.2h-0.1c0-0.1-0.1-0.1-0.1-0.1c-0.1,0-0.1-0.1-0.1-0.1c-0.1,0-0.1,0.1-0.1,0.1c-0.1,0-0.1,0-0.1,0
	c-0.1,0-0.1,0.1-0.2,0.1c-0.1,0-0.1,0-0.1,0.1c0,0,0,0.1,0.1,0.1l0,0l0.1,0.1v-0.1l0,0h0.2c0,0.1,0,0.1,0,0.1c-0.1,0-0.1,0-0.2,0
	v0.1c0,0.1,0.1,0.1,0.2,0.1c0.1,0,0.3,0,0.3,0c0,0.2-0.3,0.2-0.3,0.5c-0.1,0-0.1-0.1-0.2-0.1c0-0.1-0.1-0.2-0.2-0.2
	c-0.1-0.1-0.1-0.1-0.2-0.2c-0.1-0.1-0.1-0.1-0.1-0.2s0-0.2,0-0.2v-0.1c0-0.1-0.1-0.1-0.1-0.1s0,0,0,0.1l0,0v0.1l0,0l0,0l0,0
	c0-0.1,0-0.1-0.1-0.1l0,0l0,0c0-0.1-0.1-0.1-0.1,0c0,0,0,0,0.1,0v0.1c0,0.1,0,0.1,0.1,0.1l0,0l0,0l0,0c-0.1,0-0.2,0-0.2,0l0,0v0.1
	v-0.1l0,0l0,0c0,0,0,0,0.1,0l0,0l0,0l0,0c-0.1,0.1-0.1,0.1,0,0.2c0,0.1-0.2,0-0.2-0.1c-0.1,0.1,0.1,0.3,0.2,0.2c0,0.1,0,0.1,0,0.2
	l0,0l0,0c0,0,0,0.1,0.1,0.1c0,0,0,0,0-0.1c0,0,0,0.1,0.1,0.1c0.1,0.1,0.2,0.4,0.5,0.5c-0.1,0.1-0.2,0.2-0.3,0.3
	c-0.1,0.1-0.2,0.2-0.3,0.1c0,0,0,0-0.1-0.1h-0.1l0,0h-0.1h0.1l0,0c0,0,0,0.1,0.2,0.1l0,0c0,0,0,0-0.1,0s-0.1-0.1-0.1,0l0,0l0,0
	c-0.1,0-0.1,0.1,0,0.2v-0.1l0,0c0,0.1,0.1,0.1,0.2,0l0,0c0,0.1-0.1,0.2,0,0.2l0,0l0,0c0,0.1,0.1,0.1,0.2,0.1c0,0-0.1,0-0.1-0.1l0,0
	c0.1-0.1,0-0.1,0-0.2l0,0l0.1,0.1l0.1-0.1c0.1,0,0.2-0.1,0.2,0c0,0,0-0.1,0.1-0.1s0.1,0,0.2,0c0,0,0.1-0.1,0.1-0.2
	c0,0.4,0.5,0.4,0.7,0.6c-0.2-0.1-0.3-0.1-0.4-0.1c-0.1,0-0.4,0.1-0.4,0.3c0,0.1,0.1,0.3,0.2,0.4c-0.2,0-0.2,0-0.4,0l0,0
	c-0.1,0-0.1-0.2-0.3-0.2l0,0c-0.1,0-0.1,0.1-0.1,0.1s0,0,0.1-0.1l0,0c0,0,0,0,0.1,0c0,0,0,0,0.1,0l0,0c0,0.1-0.2,0-0.2,0.1l0,0
	c0,0,0,0.1,0.1,0.1c0,0,0,0,0-0.1l0,0l0,0l0,0l0,0l0,0l0,0c0,0.1,0.1,0.1,0.2,0.1h-0.1l0,0c0,0,0,0,0-0.1l0,0l0,0l0,0
	c0,0,0.1,0.1,0.1,0c0,0,0,0,0.1,0c0,0,0,0,0.1,0c0-0.1,0-0.1,0.2,0l0.1-0.1c0,0,0.1,0,0.2,0c0.1-0.1,0-0.1,0-0.1
	c-0.1-0.1-0.1-0.1-0.1-0.2c0-0.2,0.2-0.3,0.4-0.3c0,0.1,0.2,0.5,0.5,0.6c0.2,0.1,0.3-0.1,0.3-0.1l0,0c0,0.1,0,0.2,0,0.2
	s-0.1,0-0.2,0h-0.1c-0.1,0-0.1,0.1-0.1,0.1s0.1,0,0.1-0.1l0,0c0,0.1,0.1,0.1,0.1,0.1l0,0l-0.1,0.1l0,0c0,0,0,0.1,0.1,0.1
	c0,0,0,0,0-0.1l0,0c0.1,0,0-0.1,0.1-0.1l0,0c0,0.1,0,0.1,0,0.1l0,0c0,0,0.1,0.1,0.1,0h-0.1c0,0,0,0,0-0.1s-0.1-0.1-0.1-0.2
	s0.1,0,0.1-0.1l0,0c0.1,0,0.1-0.1,0.1-0.1C-40,100.5-40.1,100.4-40.1,100.4"/>
<polyline id="XMLID_485_" points="-42.2,97.5 -42.2,97.5 -42.2,97.5 "/>
<path id="XMLID_479_" d="M-45.2,103.6L-45.2,103.6L-45.2,103.6c-0.1-0.5-0.3-0.8-0.7-0.8s-1.1,0.5-2,0.5c-0.4,0-0.9-0.2-1.2-0.4
	l-0.1,0.3l0,0c0-0.1-0.1-0.2-0.2-0.2c-0.1,0-0.2,0.1-0.2,0.2s0.1,0.2,0.2,0.2c0.1,0,0.1,0,0.2-0.1l-0.1,0.3c0,0,0.1,0,0.1,0.1
	c-0.1,1.5,0.9,3.3,2.8,3.9c0.3-0.1,0.6,0,0.6,0.3c0,0.2-0.1,0.3-0.3,0.3c-0.1,0-0.2-0.1-0.2-0.1c0-0.1,0.2-0.1,0.3-0.1
	c0-0.1,0-0.2-0.2-0.2c-0.1,0-0.3,0.1-0.3,0.3c0,0.3,0.2,0.4,0.4,0.4s0.7-0.1,0.6-0.6c0.1,0,0.2,0,0.2-0.1v-0.3h-0.1l0.1-3.4h0.1
	c0.1,0,0.2,0,0.2-0.2C-45,103.6-45.1,103.6-45.2,103.6 M-48.7,103.8l2.3,3.4C-47.6,106.7-48.8,105.6-48.7,103.8 M-46.2,106.9
	l-2.1-3.1c0.1,0,0.1,0,0.2,0c0.1,0,0.2,0,0.3,0l1.7,2.5C-46.2,106.5-46.2,106.7-46.2,106.9 M-47.6,103.7c0.2,0,0.3-0.1,0.5-0.1
	l1.1,1.6c0,0.2-0.1,0.5-0.1,0.7L-47.6,103.7z M-45.7,103.5L-45.7,103.5c-0.2,0-0.3,0-0.3,0.2c0,0.1,0.1,0.2,0.2,0.2h0.1l-0.1,1
	l-1-1.4c0.4-0.2,0.8-0.4,1-0.4C-45.7,103.1-45.7,103.2-45.7,103.5"/>
<polyline id="XMLID_478_" points="-45.9,96.4 -45.9,96.4 -45.9,96.4 "/>
<path id="XMLID_473_" d="M-45.4,97.3c0.5,0,0.7-0.2,0.7-0.3c0-0.5-1.3-0.2-1.3-0.5c0-0.1,0-0.1,0.1-0.1l0,0c0.7,0,0.7-0.5,1.2-0.6
	c-0.6-0.1-0.6,0.4-0.9,0.4c0.1-0.1,0.2-0.2,0.2-0.3c-0.1,0.2-0.4,0.2-0.5,0.3v0.1c-0.1,0.1-0.1,0.1-0.1,0.2c0,0.5,1.3,0.2,1.3,0.5
	C-44.9,97.1-45.1,97.2-45.4,97.3c-0.3-0.1-0.5-0.3-1-0.2c0-0.1,0.2-0.2,0.1-0.3l0.1-0.1h-0.1v-0.1v-0.1c0,0-0.1,0-0.1-0.1
	c-0.1,0-0.1,0-0.1,0h-0.1h-0.1h-0.1v0.1l-0.1,0.1c0,0,0,0,0,0.1s-0.1,0.2-0.1,0.2l0,0c0,0.1-0.1,0.2-0.1,0.3l0,0l-0.1-0.1
	c-0.1,0-0.1-0.1-0.1-0.2s0.1-0.1,0.1-0.2c0,0,0,0,0-0.1l-0.1-0.1c0,0,0,0,0,0.1l0,0c0,0,0,0,0,0.1l0,0l0,0l0,0c0,0,0-0.1-0.1-0.1
	l0,0l0,0c0-0.1,0-0.1-0.1,0l0,0l0,0c0,0,0,0.1,0.1,0.1l0,0l0,0l0,0c-0.1,0-0.1,0-0.1,0l0,0c0,0-0.1,0.1,0,0.1c0,0,0,0,0-0.1l0,0l0,0
	c0,0,0,0,0.1,0l0,0l0,0l0,0c-0.1,0.1-0.1,0.1,0,0.1l0,0c0,0.1-0.2,0.1-0.2,0c-0.1,0.1,0,0.2,0.2,0.2l0,0l0,0l0,0l0,0v0.1l0,0
	c0,0,0.1,0.1,0.1,0.2c-0.1,0-0.3,0.1-0.3,0.1h-0.2c-0.1,0-0.3,0.1-0.3,0v-0.1c0,0,0,0-0.1,0l0,0h-0.1c0,0,0,0,0.1,0l0,0
	c0,0,0,0.1,0.1,0.1l0,0c0,0,0,0-0.1,0l-0.1-0.1l0,0l0,0c-0.1,0-0.1,0.1-0.1,0.1s0,0,0.1-0.1l0,0c0,0.1,0,0.1,0.2,0l0,0
	c0,0.1-0.1,0.1,0,0.1l0,0l0,0c0,0.1,0.1,0.1,0.1,0.1v-0.1l0,0c0.1,0,0-0.1,0.1-0.1l0,0c0,0,0,0.1,0.1,0.1s0.1-0.1,0.1-0.1l0,0
	c0,0,0,0,0,0.1c0,0,0,0,0.1-0.1v0.1c0,0,0.1,0,0.1-0.1l0,0l0,0h0.1l0,0v0.1l0,0v0.1c0-0.2,0.1-0.1,0.2-0.2l0,0c0,0,0,0,0,0.1
	c0,0,0.1,0,0.1-0.1c0,0,0,0,0.1-0.1c0,0,0.1,0,0.1-0.1v0.1c0.1,0,0.2-0.1,0.3-0.1c0.2-0.1-0.2-0.2,0.4-0.2c0,0,0.1,0,0.1-0.1
	c0,0.1,0,0.2,0,0.2s0.1,0,0.1,0.1l0,0h-0.1c-0.1,0.1-0.1-0.2-0.2-0.1l0,0c-0.1,0-0.1,0.1-0.1,0.1s0,0,0.1,0l0,0l0,0c0,0,0,0,0.1,0
	l0,0c0,0.1-0.2,0-0.1,0.1l0,0c0,0,0,0.1,0.1,0.1l0,0l0,0l0,0l0,0l0,0l0,0l0,0c0,0.1,0.1,0.1,0.1,0.1h-0.1l0,0l0,0l0,0l0,0l0,0
	c0,0,0.1,0.1,0.1,0c0.1,0,0-0.1,0.1-0.1c0,0,0,0,0.1,0s0.2,0,0.2,0s0-0.2-0.1-0.2V97c0.1,0,0.2,0.1,0.2,0.1c0.2,0,0,0,0.1-0.1
	s0.2,0,0.2,0l0,0c0,0.1,0,0.1,0,0.1h-0.1h-0.1l-0.1,0.1c0,0,0,0,0.1,0l0,0c0,0.1,0.1,0.1,0.1,0l0,0C-45.4,97.2-45.5,97.3-45.4,97.3
	L-45.4,97.3C-45.4,97.3-45.4,97.4-45.4,97.3C-45.3,97.4-45.3,97.4-45.4,97.3L-45.4,97.3c0.1,0,0.1-0.1,0.2-0.1l0,0v0.1l0,0
	c0,0,0.1,0.1,0.1,0l0,0l0,0c0-0.1-0.1-0.1-0.1-0.1s0.1,0,0.1-0.1c0,0,0,0,0-0.1l0,0l0,0h0.1c-0.1,0,0-0.1-0.1-0.1l0,0c0,0,0,0,0-0.1
	c0,0-0.1,0.1-0.1,0c0,0,0,0-0.1,0C-45.2,97.4-45.2,97.4-45.4,97.3C-45.5,97.3-45.5,97.3-45.4,97.3 M-46.7,96.7L-46.7,96.7
	C-46.8,96.7-46.8,96.7-46.7,96.7C-46.7,96.6-46.7,96.7-46.7,96.7 M-46.6,96.9L-46.6,96.9L-46.6,96.9C-46.7,96.9-46.7,96.9-46.6,96.9
	C-46.7,96.9-46.7,96.9-46.6,96.9c-0.1,0.1-0.1,0.1-0.1,0.2c0,0,0,0.1-0.1,0V97v-0.1C-46.8,96.9-46.8,96.9-46.6,96.9
	C-46.7,96.9-46.7,96.9-46.6,96.9L-46.6,96.9c-0.1-0.1-0.1-0.1-0.2-0.1l0,0l0,0L-46.6,96.9C-46.6,96.8-46.6,96.8-46.6,96.9
	L-46.6,96.9 M-46.5,96.8L-46.5,96.8C-46.6,96.7-46.5,96.7-46.5,96.8C-46.5,96.8-46.5,96.8-46.5,96.8"/>
<path id="XMLID_467_" d="M-48.3,98.9c0,0-0.1-0.1-0.2-0.2c-0.1,0-0.1-0.1-0.1-0.2s0-0.1,0-0.2c0,0,0,0,0-0.1l-0.1-0.1c0,0,0,0,0,0.1
	l0,0v0.1l0,0l0,0l0,0c0-0.1,0-0.1-0.1-0.1l0,0l0,0c0-0.1-0.1-0.1-0.1,0c0,0,0,0,0.1,0v0.1c0,0.1,0,0.1,0.1,0.1l0,0l0,0l0,0
	c-0.1,0-0.1,0-0.1,0l0,0v0.1v-0.1l0,0l0,0c0,0,0,0,0.1,0l0,0l0,0l0,0c-0.1,0.1-0.1,0.1,0,0.1l0,0c0,0.1-0.2,0.1-0.2,0
	c-0.1,0.1,0.1,0.2,0.2,0.2l0,0l0,0l0,0l0,0c0,0,0,0.1,0.1,0.1l0,0C-48.6,98.8-48.5,98.9-48.3,98.9c0,0.1,0,0.2,0.1,0.2
	c0,0.1,0.1,0.2,0.1,0.2h-0.3c-0.1,0-0.3,0.1-0.3,0v-0.1c0,0,0-0.1-0.1-0.1l0,0h-0.1c0,0,0.1,0,0.1,0.1l0,0c0,0,0,0.1,0.1,0.1l0,0
	c0,0,0,0-0.1,0s-0.1-0.1-0.1-0.1l0,0l0,0c-0.1,0-0.1,0.1-0.1,0.1s0-0.1,0.1-0.1l0,0c0,0.1,0,0.1,0.2,0l0,0c0,0.1-0.1,0.1-0.1,0.2
	l0,0l0,0c0,0.1,0.1,0.1,0.1,0.1s-0.1-0.1,0-0.1l0,0c0.1,0,0-0.1,0.1-0.1l0,0c0,0,0,0.1,0.1,0.1s0.1-0.1,0.1-0.1l0,0c0,0,0,0,0,0.1
	c0,0,0,0,0.1-0.1v0.1c0,0,0.1,0,0.1-0.1l0,0l0,0c0,0,0.1,0,0.2,0l0,0v0.1l0,0v0.1c0-0.2,0.1-0.1,0.2-0.2l0,0c0,0,0,0.1-0.1,0.1
	c0.1,0,0.3-0.2,0.4-0.3c0.1,0,0.1,0,0.1,0c0.4,0,0.1-0.3,0.7-0.2c0,0,0.1,0,0.2-0.1c0,0.1,0,0.2,0,0.3c0,0,0.1,0,0.1,0.1l0,0
	c-0.1,0-0.1,0-0.1,0c-0.1,0.1-0.1-0.2-0.3-0.1l0,0c-0.1,0-0.1,0.1-0.1,0.1s0,0,0.1-0.1l0,0c0,0,0,0,0.1,0c0,0,0,0,0.1,0l0,0
	c0,0.1-0.2,0-0.1,0.1l0,0c0,0,0,0.1,0.1,0.1c0,0,0,0,0-0.1l0,0l0,0l0,0l0,0l0,0l0,0c0,0.1,0.1,0.1,0.1,0.1h-0.1l0,0c0,0,0,0,0-0.1
	l0,0l0,0l0,0c0,0,0.1,0.1,0.1,0c0.1,0,0-0.1,0.1-0.1c0,0,0,0,0.1,0s0.2,0,0.2,0s0-0.2-0.1-0.2v-0.1c0.1,0,0.2,0.1,0.3,0.1
	c0.2,0,0.3,0,0.3-0.1c0.1-0.1,0.2,0,0.2,0l0,0c0,0.1,0,0.1,0,0.2c0,0-0.1,0-0.2,0h-0.1c-0.1,0-0.1,0.1-0.1,0.1h0.1l0,0
	c0,0.1,0.1,0.1,0.1,0l0,0l-0.1,0.1l0,0c0,0,0,0.1,0.1,0.1c0,0,0,0,0-0.1l0,0c0,0,0-0.1,0.1-0.1l0,0c0,0.1,0,0.1,0,0.1l0,0
	c0,0,0.1,0.1,0.1,0c0,0,0,0-0.1,0l0,0c0-0.1-0.1-0.1-0.1-0.2s0.1,0,0.1-0.1v-0.1l0,0l0,0h0.1c-0.1,0-0.1-0.1-0.1-0.1l0,0v-0.1
	c0,0-0.1,0.1-0.1,0c0,0,0-0.1-0.1,0c-0.1,0-0.2,0-0.5,0c0.3,0,0.7-0.1,0.7-0.2s-0.1-0.2-0.6-0.2c-0.4,0-1.4,0.2-1.4-0.1
	c0-0.1,0.2-0.1,0.4-0.1c0,0,0,0,0.1,0.1c0.6,0.2,1.2-0.1,1.6,0c-0.4-0.3-0.7,0-1.2-0.1c0.3,0,0.3-0.1,0.4-0.1
	c-0.2,0.1-0.6-0.1-0.8,0.1l0,0c-0.3,0-0.6,0-0.6,0.2c0,0.4,1.2,0.2,1.6,0.2s0.4,0,0.4,0.1s-0.4,0.1-0.6,0.1c-0.3,0-1.3-0.2-1.9-0.1
	c0-0.1,0.2-0.2,0.1-0.3c0.1,0,0.1-0.1,0.1-0.1s-0.1,0-0.1-0.1v-0.1v-0.1l-0.1-0.1c-0.1,0-0.1,0-0.1,0h-0.1h-0.1h-0.1
	c0,0.1,0,0.1,0,0.2c-0.1,0-0.1,0.1-0.2,0.1v0.1c0,0.1-0.1,0.2-0.1,0.2l0.1,0.1c0,0.1,0,0.1,0,0.2L-48.3,98.9L-48.3,98.9z
	 M-47.6,98.5c0,0,0.1,0.1,0.2,0.1c-0.1,0-0.1,0-0.1,0C-47.6,98.6-47.6,98.5-47.6,98.5 M-47.7,98.4C-47.7,98.4-47.8,98.6-47.7,98.4
	C-47.8,98.4-47.8,98.4-47.7,98.4C-47.8,98.4-47.7,98.4-47.7,98.4 M-47.9,98.8C-47.9,98.8-47.8,98.7-47.9,98.8
	C-47.8,98.7-47.8,98.7-47.9,98.8c0.1-0.1,0.1-0.1,0-0.2l0,0H-48l0,0l0,0L-47.9,98.8L-47.9,98.8L-47.9,98.8L-47.9,98.8L-47.9,98.8
	L-47.9,98.8C-48,98.7-48,98.7-47.9,98.8C-48,98.8-48,98.8-47.9,98.8l-0.2,0.2C-47.9,98.9-47.9,98.8-47.9,98.8 M-47.5,99.6
	L-47.5,99.6L-47.5,99.6"/>
<path id="XMLID_462_" d="M-48,101.5C-48,101.5-48,101.4-48,101.5C-47.9,101.4-48,101.5-48,101.5c0.2,0,0.2-0.1,0.2-0.1
	c0.7,0.1,0.3-0.3,1.2-0.2h0.1c0,0.1,0,0.2,0,0.2s0.1,0,0.1,0.1l0,0h-0.1c-0.1,0.1-0.1-0.2-0.3-0.1l0,0c-0.1,0-0.1,0.1-0.1,0.1
	s0,0,0.1-0.1l0,0c0,0,0,0,0.1,0c0,0,0,0,0.1,0l0,0c0,0.1-0.2,0-0.1,0.1l0,0c0,0,0,0.1,0.1,0.1c0,0,0,0,0-0.1l0,0l0,0l0,0l0,0l0,0
	l0,0c0,0.1,0.1,0.1,0.2,0.1h-0.1l0,0c0,0,0,0,0-0.1l0,0l0,0l0,0c0,0,0.1,0.1,0.1,0c0.1,0,0-0.1,0.1-0.1c0,0,0,0,0.1,0s0.2,0,0.2,0
	s0-0.2-0.1-0.2v-0.1c0.1,0,0.2,0.1,0.3,0.1c0.2,0,0.3,0,0.3-0.1c0.1-0.1,0.2,0,0.2,0s0,0,0,0.1s0,0.1,0,0.2c0,0-0.1,0-0.2,0h-0.1
	c-0.1,0-0.1,0.1-0.1,0.1s0.1,0,0.1-0.1l0,0c0,0.1,0.1,0.1,0.1,0l0,0l-0.1,0.1l0,0c0,0,0,0.1,0.1,0.1c0,0,0,0,0-0.1l0,0
	c0,0,0-0.1,0.1-0.1l0,0c0,0.1,0,0.1,0,0.1l0,0c0,0,0.1,0.1,0.1,0c0,0,0,0-0.1,0l0,0c0-0.1-0.1-0.1-0.1-0.2s0.1,0,0.1-0.1v-0.1l0,0
	l0,0h0.1c-0.1,0-0.1-0.1-0.1-0.1l0,0v-0.1c0,0-0.1,0.1-0.1,0c0,0,0-0.1-0.1,0c-0.1,0-0.2,0-0.5,0c0.3,0,0.7-0.1,0.7-0.2
	s-0.1-0.2-0.6-0.2c-0.4,0-1.8,0.2-1.8-0.1c0-0.2,0.5-0.1,0.8-0.1c0,0,0,0,0.1,0.1c0.6,0.2,1.2-0.2,1.6-0.1c-0.3-0.3-0.7,0-1.2-0.1
	c0.3,0,0.5-0.1,0.5-0.1c-0.2,0.1-0.8-0.1-1,0.1l0,0c-0.4,0-0.9-0.1-0.9,0.2c0,0.4,1.5,0.2,1.9,0.2s0.5,0,0.5,0.1s-0.4,0.1-0.6,0.1
	c-0.3,0-1.8-0.2-2.4,0c0-0.1,0.2-0.2,0.1-0.3c0.1,0,0.1-0.1,0.1-0.1s-0.1,0-0.1-0.1v-0.1v-0.1l-0.1-0.1c-0.1,0-0.1,0-0.1,0h-0.1
	h-0.1h-0.1c0,0,0,0.1,0,0.2c-0.1,0-0.1,0.1-0.2,0.1v0.1c0,0.1-0.1,0.2-0.1,0.2s0,0,0,0.1v0.1l0,0h-0.1c0,0,0,0-0.1,0
	s-0.1-0.1-0.2-0.2c-0.1,0-0.1-0.1-0.1-0.2s0-0.1,0-0.2c0,0,0,0,0-0.1s-0.1-0.1-0.1-0.1s0,0,0,0.1l0,0v0.1l0,0l0,0l0,0
	c0-0.1,0-0.1-0.1-0.1l0,0l0,0c0-0.1-0.1-0.1-0.1,0c0,0,0,0,0.1,0v0.1c0,0.1,0,0.1,0.1,0.1l0,0l0,0l0,0c-0.1,0-0.1,0-0.1,0l0,0v0.1
	v-0.1l0,0l0,0c0,0,0,0,0.1,0l0,0l0,0l0,0c-0.1,0.1-0.1,0.1,0,0.1l0,0c0,0.1-0.2,0.1-0.2,0c-0.1,0.1,0.1,0.2,0.2,0.2l0,0l0,0l0,0l0,0
	c0,0,0,0.1,0.1,0.1v-0.1c0,0,0.1,0.2,0.3,0.3c0,0,0.1,0,0.1-0.1l0,0c0,0.1,0.1,0.2,0,0.2c0,0-0.3,0-0.4,0c-0.1,0-0.3,0.1-0.3,0v-0.1
	c0,0,0-0.1-0.1-0.1l0,0h-0.1c0,0,0.1,0,0.1,0.1l0,0c0,0,0,0.1,0.1,0.1l0,0c0,0,0,0-0.1,0l-0.1-0.1l0,0l0,0c-0.1,0-0.1,0.1-0.1,0.1
	s0-0.1,0.1-0.1l0,0c0,0.1,0,0.1,0.2,0l0,0c0,0.1-0.1,0.1-0.1,0.2l0,0l0,0c0,0.1,0.1,0.1,0.1,0.1s-0.1-0.1,0-0.1l0,0
	c0.1,0,0-0.1,0.1-0.1l0,0c0,0,0,0.1,0.1,0.1s0.1-0.1,0.1-0.1l0,0c0,0,0,0,0,0.1c0,0,0,0,0.1-0.1v0.1c0,0,0.1,0,0.1-0.1l0,0l0,0
	c0,0,0.1,0,0.2,0l0,0v0.1l0,0v0.1c0-0.2,0.2-0.1,0.4-0.2l0,0c0,0,0,0-0.1,0.1h0.1C-48.1,101.6-48,101.5-48,101.5 M-48.3,100.3
	C-48.3,100.3-48.4,100.4-48.3,100.3C-48.4,100.3-48.4,100.3-48.3,100.3L-48.3,100.3 M-48.2,100.6C-48.2,100.6-48.2,100.5-48.2,100.6
	C-48.2,100.5-48.2,100.5-48.2,100.6C-48.3,100.6-48.3,100.6-48.2,100.6C-48.3,100.6-48.3,100.6-48.2,100.6c-0.1,0.1-0.1,0.1-0.1,0.2
	l-0.1,0.1c-0.1,0,0-0.1,0-0.1v-0.1C-48.4,100.7-48.4,100.7-48.2,100.6c-0.1,0.1-0.1,0-0.2,0c0,0,0.1,0,0,0h-0.1l0,0l0,0H-48.2
	C-48.2,100.5-48.2,100.5-48.2,100.6C-48.2,100.5-48.1,100.5-48.2,100.6 M-48.1,100.5C-48.2,100.5-48.2,100.4-48.1,100.5
	C-48.2,100.4-48.1,100.5-48.1,100.5C-48.1,100.4-48,100.5-48.1,100.5"/>
<path id="XMLID_457_" d="M-39.3,103.8L-39.3,103.8L-39.3,103.8C-39.2,103.7-39.3,103.8-39.3,103.8
	C-39.3,103.7-39.3,103.6-39.3,103.8c-0.2-0.1-0.4-0.1-0.6-0.1l0,0c0.3,0,0.7-0.1,0.7-0.2s-0.2-0.2-0.6-0.2c-0.4,0-1.8,0.2-1.8-0.1
	c0-0.2,0.5-0.1,0.8-0.1c0,0,0,0,0.1,0.1c0.6,0.2,1.2-0.3,1.6-0.2c-0.4-0.2-0.7,0.1-1.2,0c0.3,0,0.5-0.1,0.5-0.1
	c-0.2,0.1-0.7-0.1-1,0.1l0,0c-0.4,0-0.9-0.1-0.9,0.2c0,0.4,1.5,0.2,1.9,0.2s0.4,0,0.4,0.1s-0.4,0.1-0.6,0.1c-0.3,0-1.8-0.2-2.4,0
	c0-0.1,0.2-0.2,0.1-0.3c0.1,0,0.1-0.1,0.1-0.1h-0.1v-0.1V103l-0.1-0.1c-0.1,0-0.1,0-0.1,0h-0.1h-0.1h-0.1c0,0.1,0,0.1,0,0.2
	c-0.1,0-0.1,0.1-0.2,0.1v0.1c0,0.1-0.1,0.2-0.1,0.2l0.1,0.1v0.1h-0.1h-0.1c0,0,0,0-0.1,0s-0.1-0.1-0.2-0.2c-0.1-0.1-0.1-0.1-0.1-0.2
	s0-0.1,0-0.2V103l-0.1-0.1c0,0,0,0,0,0.1l0,0v0.1l0,0l0,0l0,0c0-0.1,0-0.1-0.1-0.1l0,0l0,0c0-0.1-0.1-0.1-0.1,0c0,0,0,0,0.1,0v0.1
	c0,0.1,0,0.1,0.1,0.1l0,0l0,0l0,0c-0.1,0-0.1,0-0.1,0l0,0v0.1v-0.1l0,0l0,0c0,0,0,0,0.1,0l0,0l0,0l0,0c-0.1,0.1-0.1,0.1,0,0.1l0,0
	c0,0.1-0.2,0.1-0.2,0c-0.1,0.1,0.1,0.3,0.2,0.2l0,0l0,0l0,0l0,0c0,0,0,0.1,0.1,0.1v-0.1c0,0,0.1,0.2,0.3,0.3c0,0,0.1,0,0.1-0.1
	c0,0,0,0.1,0.1,0.1l0,0c0,0.1,0.1,0.2,0.1,0.2s-0.2,0-0.3,0s-0.3,0.1-0.3,0v-0.1c0,0,0-0.1-0.1-0.1l0,0h-0.1c0,0,0.1,0,0.1,0.1l0,0
	c0,0,0,0.1,0.1,0.1l0,0c0,0,0,0-0.1,0s-0.1-0.1-0.1-0.1l0,0l0,0c-0.1,0-0.1,0.1-0.1,0.1s0-0.1,0.1-0.1l0,0c0,0.1,0,0.1,0.2,0l0,0
	c0,0.1-0.1,0.1-0.1,0.2l0,0l0,0c0,0.1,0.1,0.1,0.1,0.1v-0.1l0,0c0.1,0,0-0.1,0.1-0.1l0,0c0,0,0,0.1,0.1,0.1s0.1-0.1,0.1-0.1l0,0
	c0,0,0,0,0,0.1c0,0,0,0,0.1-0.1v0.1c0,0,0.1,0,0.1-0.1l0,0l0,0c0,0,0.1,0,0.2,0l0,0v0.1l0,0v0.1c0-0.2,0.1-0.1,0.2-0.2l0,0
	c0,0,0,0-0.1,0.1l0.2-0.1h0.1c0.1,0,0.1-0.1,0.2-0.1c0.7,0.1,0.3-0.3,1.2-0.2c0,0,0.1,0,0.1-0.1c0,0.1,0,0.3,0,0.3s0.1,0,0.1,0.1
	l0,0c-0.1,0-0.1,0-0.1,0c-0.1,0.1-0.1-0.2-0.3-0.1l0,0c-0.1,0-0.1,0.1-0.1,0.1s0,0,0.1-0.1l0,0c0,0,0,0,0.1,0c0,0,0,0,0.1,0l0,0
	c0,0.1-0.2,0-0.1,0.1l0,0c0,0,0,0.1,0.1,0.1c0,0,0,0,0-0.1l0,0l0,0l0,0l0,0l0,0l0,0c0,0.1,0.1,0.1,0.1,0.1h-0.1l0,0c0,0,0,0,0-0.1
	l0,0l0,0l0,0c0,0,0.1,0.1,0.1,0c0.1,0,0-0.1,0.1-0.1c0,0,0,0,0.1,0s0.2,0,0.2,0s0-0.2-0.1-0.2v-0.1c0.1,0,0.2,0.1,0.3,0.1
	c0.2,0,0.3,0,0.4-0.1c0.1-0.1,0.2,0,0.2,0s0,0,0,0.1s0,0.1,0,0.2c0,0-0.1,0-0.2,0h-0.1c-0.1,0-0.1,0.1-0.1,0.1h0.1l0,0
	c0,0.1,0.1,0.1,0.1,0l0,0l-0.1,0.1l0,0c0,0,0,0.1,0.1,0.1c0,0,0,0,0-0.1l0,0c0,0,0-0.1,0.1-0.1l0,0v0.1l0,0c0,0,0.1,0.1,0.1,0
	c0,0,0,0-0.1,0l0,0c0-0.1-0.1-0.1,0-0.2c0-0.1,0.1,0,0.1-0.1c0,0,0,0,0-0.1l0,0l0,0h0.1C-39.3,103.9-39.2,103.9-39.3,103.8
	 M-42.4,103c0,0,0.1,0.1,0.2,0.1c-0.1,0-0.1,0-0.1,0C-42.4,103.1-42.5,103-42.4,103 M-42.5,102.9C-42.5,102.9-42.6,103.1-42.5,102.9
	C-42.6,102.9-42.6,102.9-42.5,102.9C-42.7,102.9-42.6,102.9-42.5,102.9 M-42.7,103.3C-42.7,103.3-42.7,103.2-42.7,103.3
	C-42.6,103.2-42.6,103.2-42.7,103.3c0.1-0.1,0.1-0.1,0.1-0.2l0,0h-0.1l0,0l0,0V103.3L-42.7,103.3L-42.7,103.3L-42.7,103.3
	C-42.6,103.2-42.6,103.2-42.7,103.3L-42.7,103.3L-42.7,103.3c0,0.1,0,0.1,0,0.2c0,0-0.1,0.1-0.1,0
	C-42.7,103.4-42.7,103.3-42.7,103.3"/>
<path id="XMLID_452_" d="M-41.2,104.7C-41.2,104.7-41.2,104.8-41.2,104.7c0.6,0.3,1.3-0.1,1.6-0.1c-0.4-0.2-0.7,0.1-1.1,0
	c0.2,0,0.5,0,0.5-0.1C-40.4,104.6-40.9,104.4-41.2,104.7C-41.2,104.6-41.2,104.6-41.2,104.7c-0.2-0.1-0.5-0.1-0.5,0.1
	c0,0.4,1.1,0.2,1.5,0.2c0.3,0,0.3,0,0.3,0.1s-0.4,0.1-0.6,0.1c-0.3,0-1.2-0.2-1.8,0c0-0.1,0.1-0.2,0.1-0.3c0.1,0,0.1-0.1,0.1-0.1
	h-0.1v-0.1v-0.1l-0.1-0.1c-0.1,0-0.1,0-0.1,0h-0.1h-0.1h-0.1v0.1c-0.1,0-0.1,0.1-0.1,0.1v0.1c0,0.1-0.1,0.2-0.1,0.2l0,0
	c0,0.1,0,0.1,0,0.2l0,0l0,0c-0.1,0-0.1,0-0.2-0.1c-0.1,0-0.1-0.1-0.1-0.2s0-0.1,0-0.2c0,0,0,0,0-0.1l-0.1-0.1c0,0,0,0,0,0.1l0,0v0.1
	l0,0l0,0l0,0c0-0.1,0-0.1-0.1-0.1l0,0l0,0c0-0.1-0.1-0.1-0.1,0l0,0c0,0,0,0,0,0.1s0,0.1,0.1,0.1l0,0l0,0l0,0c-0.1,0-0.1,0-0.1,0l0,0
	v0.1v-0.1l0,0l0,0c0,0,0,0,0.1,0l0,0l0,0l0,0c-0.1,0.1-0.1,0.1,0,0.1l0,0c0,0.1-0.2,0.1-0.2,0c-0.1,0.1,0.1,0.2,0.2,0.2l0,0l0,0l0,0
	l0,0c0,0,0,0.1,0.1,0.1l0,0c0,0,0-0.1,0.2,0c0,0,0,0,0.1,0.1h0.1c0,0.1,0,0.2,0,0.2h-0.2c-0.1,0-0.3,0.1-0.3,0v-0.1c0,0,0,0-0.1-0.1
	l0,0h-0.1h0.1l0,0c0,0,0,0.1,0.1,0.1l0,0c0,0,0,0-0.1,0l-0.1-0.1l0,0l0,0c-0.1,0-0.1,0.1-0.1,0.1s0-0.1,0.1-0.1l0,0
	c0,0.1,0,0.1,0.2,0l0,0c0,0.1-0.1,0.1-0.1,0.1l0,0l0,0c0,0.1,0.1,0.1,0.1,0.1v-0.1l0,0c0.1,0,0-0.1,0.1-0.1l0,0c0,0,0,0.1,0.1,0.1
	s0.1-0.1,0.1-0.1l0,0c0,0,0,0,0,0.1c0,0,0,0,0.1-0.1v0.1c0,0,0.1,0,0.1-0.1l0,0l0,0h0.1l0,0v0.1l0,0v0.1c0-0.2,0.2-0.1,0.3-0.2l0,0
	c0,0,0,0,0,0.1c0.1,0.1,0.3-0.1,0.3-0.2l0,0c0,0,0,0,0,0.1c0.1,0,0.1-0.1,0.2-0.1c0.4,0,0.1-0.3,0.7-0.2c0,0,0.1,0,0.1-0.1
	c0,0.1,0,0.2,0,0.3c0,0,0.1,0,0.1,0.1l0,0h-0.1c-0.1,0.1-0.1-0.2-0.3-0.1l0,0c-0.1,0-0.1,0.1-0.1,0.1s0,0,0.1-0.1l0,0c0,0,0,0,0.1,0
	c0,0,0,0,0.1,0l0,0c0,0.1-0.2,0-0.1,0.1l0,0c0,0,0,0.1,0.1,0.1c0,0,0,0,0-0.1l0,0l0,0l0,0l0,0l0,0l0,0c0,0.1,0.1,0.1,0.1,0.1h-0.1
	l0,0l0,0l0,0l0,0l0,0c0,0,0.1,0.1,0.1,0c0.1,0,0-0.1,0.1-0.1c0,0,0,0,0.1,0s0.2,0,0.2,0s0-0.2-0.1-0.2V105c0.1,0,0.2,0.1,0.3,0.1
	c0.2,0,0.3,0,0.4-0.1c0.1-0.1,0.2,0,0.2,0l0,0c0,0.1,0,0.1,0,0.2c0,0-0.1,0-0.2,0h-0.1c-0.1,0-0.1,0.1-0.1,0.1h0.1l0,0
	c0,0.1,0.1,0.1,0.1,0l0,0l-0.1,0.1l0,0v0.1c0,0,0,0,0-0.1l0,0c0,0,0-0.1,0.1-0.1l0,0c0,0-0.1,0.1,0,0.1l0,0c0,0,0,0.1,0.1,0l0,0l0,0
	c0.1-0.1,0-0.1,0-0.1s0.1,0,0.1-0.1v-0.1l0,0l0,0h0.1c-0.1,0,0-0.1,0-0.1l0,0l0.1-0.1c0,0-0.1,0.1-0.1,0c0,0,0-0.1-0.1,0
	c-0.1,0-0.3,0-0.6,0l0,0c0.2,0,0.7,0,0.7-0.2c0-0.1-0.1-0.2-0.5-0.2s-1.4,0.2-1.4-0.1C-41.6,104.7-41.4,104.7-41.2,104.7
	 M-42.5,104.8c0,0,0.1,0.1,0.2,0.1c-0.1,0-0.1,0-0.1,0C-42.5,104.9-42.5,104.8-42.5,104.8 M-42.6,104.7
	C-42.6,104.7-42.7,104.8-42.6,104.7C-42.7,104.7-42.7,104.7-42.6,104.7C-42.7,104.7-42.6,104.7-42.6,104.7 M-42.7,105L-42.7,105
	L-42.7,105c0.1-0.1,0.1-0.1,0-0.2l0,0c0,0,0,0-0.1,0l0,0l0,0L-42.7,105L-42.7,105L-42.7,105L-42.7,105
	C-42.7,104.9-42.7,104.9-42.7,105L-42.7,105C-42.8,105-42.8,105-42.7,105c-0.1,0.1-0.1,0.1-0.1,0.2c0,0,0,0.1-0.1,0.1
	C-42.8,105.1-42.8,105.1-42.7,105"/>
<path id="XMLID_447_" d="M-41.6,106.5C-41.6,106.5-41.6,106.6-41.6,106.5c0.6,0.3,1.3-0.2,1.6-0.1c-0.4-0.1-0.7,0.1-1.1,0
	c0.2,0,0.5-0.1,0.5-0.1C-40.8,106.4-41.3,106.2-41.6,106.5C-41.6,106.4-41.6,106.4-41.6,106.5c-0.2,0-0.3,0-0.3,0.2s0.2,0.2,0.6,0.2
	c0.4,0,0.8-0.1,0.8,0s-0.3,0.2-0.6,0.2s-0.8-0.2-1.4,0l0,0c0-0.1,0.2-0.3,0.1-0.3l0.1-0.1h-0.1v-0.1v-0.1l-0.1-0.1
	c-0.1,0-0.1,0-0.1,0h-0.1h-0.1h-0.1v0.1l-0.1,0.1l0,0c0,0.1-0.1,0.2-0.1,0.2s0,0,0.1,0.1c0,0.1,0,0.2,0,0.3
	c-0.1-0.1-0.2-0.3-0.3-0.3s-0.1-0.1-0.1-0.2s0-0.1,0-0.2c0,0,0,0,0-0.1l-0.1-0.1c0,0,0,0,0,0.1l0,0c0,0,0,0,0,0.1l0,0l0,0l0,0
	c0-0.1,0-0.1-0.1-0.1l0,0l0,0c0,0-0.1-0.1-0.1,0l0,0v0.1c0,0.1,0,0.1,0.1,0.1l0,0l0,0l0,0c-0.1,0-0.1,0-0.1,0l0,0v0.1v-0.1l0,0l0,0
	c0,0,0,0,0.1,0l0,0l0,0l0,0c-0.1,0.1-0.1,0.1,0,0.1l0,0c0,0.1-0.2,0.1-0.2,0c-0.1,0.1,0.1,0.2,0.2,0.2l0,0l0,0l0,0l0,0
	c0,0,0,0.1,0.1,0.1l0,0c0,0,0,0.2,0.2,0.3c0,0.1,0.1,0.1,0.2,0.1c0,0.1,0.1,0.1,0.1,0.1s-0.2,0-0.3,0c0,0-0.1,0-0.1,0.1l0,0
	c-0.1,0-0.1,0-0.1,0v-0.1c0,0,0,0-0.1-0.1l0,0h-0.1c0,0,0,0,0.1,0l0,0c0,0,0,0.1,0.1,0.1l0,0c0,0,0,0-0.1,0l-0.1-0.1l0,0l0,0
	c-0.1,0-0.1,0.1-0.1,0.1s0,0,0.1-0.1l0,0c0,0.1,0,0.1,0.2,0l0,0c0,0.1-0.1,0.1,0,0.1l0,0l0,0c0,0.1,0.1,0.1,0.1,0.1v-0.1l0,0
	c0.1,0,0-0.1,0.1-0.1l0,0c0,0,0,0.1,0.1,0.1s0.1-0.1,0.1-0.1l0,0c0,0,0,0,0,0.1c0,0,0,0,0.1-0.1v0.1c0,0,0.1,0,0.1-0.1l0,0l0,0h0.1
	l0,0v0.1l0,0v0.1c0-0.2,0.1-0.1,0.2-0.2l0,0c0,0,0,0,0,0.1l0.2-0.1c0,0,0.1-0.1,0.1-0.3l0,0c0.1,0,0.2-0.1,0.4-0.1
	c0,0-0.1,0.1,0,0.2c0,0.1,0.1,0.2,0.1,0.2l0,0h-0.1c-0.1,0.1-0.1-0.2-0.2-0.1l0,0c-0.1,0-0.1,0.1-0.1,0.1s0,0,0.1,0l0,0l0,0l0,0l0,0
	c0,0-0.2,0-0.1,0.1l0,0c0,0,0,0.1,0.1,0.1c0,0,0,0,0-0.1l0,0l0,0l0,0l0,0l0,0l0,0c0,0,0.1,0.1,0.1,0h-0.1l0,0l0,0l0,0l0,0l0,0
	c0,0,0.1,0.1,0.1,0c0.1,0,0-0.1,0.1-0.1c0,0,0,0,0.1,0s0.1,0,0.1,0s0-0.2-0.1-0.2c0,0,0.1-0.3-0.1-0.4c0.1,0,0.4,0.1,0.5,0
	c0.1,0,0.2,0.1,0.2,0.1s0,0,0,0.1c-0.1,0.1-0.1,0.1-0.1,0.1l0,0l-0.1-0.1h-0.1c0,0-0.1,0-0.1,0.1h0.1l0,0l0,0l0,0l0,0l0,0l0,0h-0.1
	l0,0v0.1c0,0,0,0,0.1-0.1l0,0h0.1l0,0l-0.1,0.1l0,0c0,0,0,0.1,0.1,0.1c0,0,0,0,0-0.1c0,0,0,0,0.1,0s0-0.1,0.1-0.1c0,0,0.1,0.1,0.1,0
	c0,0,0,0,0-0.1l0,0l0,0c0,0,0,0,0.1,0c-0.1,0,0-0.1,0-0.1l0,0c0,0,0.1,0,0.1-0.1l-0.1-0.1c0.1,0,0.1-0.1,0.1-0.1
	c-0.1-0.1-0.2-0.1-0.2-0.2c0.1,0,0.1,0,0.1,0c0.5,0,0.8-0.1,0.8-0.3c0-0.1-0.1-0.2-0.5-0.1c-0.4,0-0.9,0.1-0.9-0.1
	C-41.8,106.6-41.7,106.5-41.6,106.5 M-42.7,106.5C-42.8,106.5-42.8,106.5-42.7,106.5C-42.8,106.5-42.8,106.5-42.7,106.5
	C-42.8,106.4-42.8,106.5-42.7,106.5 M-42.7,106.7L-42.7,106.7L-42.7,106.7C-42.8,106.7-42.8,106.7-42.7,106.7
	C-42.8,106.7-42.8,106.7-42.7,106.7c-0.1,0.1-0.1,0.1-0.1,0.2c0,0,0,0.1-0.1,0v-0.1l0,0C-42.9,106.8-42.9,106.8-42.7,106.7
	C-42.8,106.8-42.8,106.8-42.7,106.7L-42.7,106.7c-0.1,0-0.1,0-0.2,0l0,0l0,0H-42.7L-42.7,106.7C-42.7,106.7-42.6,106.7-42.7,106.7
	 M-42.6,106.6L-42.6,106.6C-42.7,106.5-42.6,106.6-42.6,106.6S-42.5,106.6-42.6,106.6"/>
<path id="XMLID_442_" d="M-51.5,101.3c-0.1-0.5,0-0.9-0.5-1.5s-2.3-2.5-2.8-3.1c0.1,0,0.3,0,0.6,0.3c0.2,0.2,0.7,0.7,1.1,1.1
	c0.5-1.2,1.1-2.3,2-3.3c0.2-0.2,0.3-0.3,0.5-0.5c-0.4,0.1-0.8,0.3-1.1,0.5c0-0.5-0.1-1-0.5-1.4c0.1-0.7,0-1.6-1.6-2.7
	c0.9,0.2,1.4,1,2,0.4c-0.6,0-0.6-1.3-2.7-2.4c0.8,0,1.4,1.3,2.4,0.5c-0.9-0.1-1.2-1.7-2.8-2.2c0.5,0.1,1.1,0.3,1.6-0.3
	c-0.5,0.1-0.9-0.4-1.5-0.4c0.2-0.7,0.2-1.1-0.1-1.6c-0.4,0-0.8,0.2-1.1,0.4c0-0.4-0.4-0.4-0.8-0.4c0,0.2,0.1,0.4-0.1,0.4
	c-0.3,0.1-1.2,0.3-2,0.6c-0.7,0.3-1.6,0.8-1.8,1c-0.1,0.1-0.3-0.1-0.4-0.2c-0.3,0.2-0.5,0.5-0.3,0.8c-0.4,0-0.9,0.1-1.2,0.4
	c0,0.5,0.4,0.9,1,1.2c-1,1-0.1,1.9-1,2.7c1.2,0,1-1.6,1.6-1.9c-0.1,1.2-0.7,1.4-0.7,2.7c0,0.7,0.4,1.4,0,1.9c1-0.3,0.7-2.5,1.4-3.2
	c0.1,0.4,0,0.8-0.1,1.1c-0.4,1,0,2.5-0.5,2.9c0.9-0.1,1.1-1.4,1.7-2.1c-0.6,1.7-1.3,4.6-2.3,6c-1.8,2.4-2.8,5.3-4.4,5.3
	c-0.7,0-1.2-0.4-1.2-1.3c0-2.7,4.6-4.6,4.6-7.5c0-1.3-1-1.8-1.7-1.8c-0.4,0-1,0.2-1.4,0.6c-0.2-0.1-0.4-0.1-0.5-0.1
	c-1.6,0-1.2,2.9-2.6,2.9c0.6,0.3,1.5-0.3,2.1-1.1c-0.2,1.9-3,1.4-2.8,3.7c0.4-1.8,4.8-1.5,4.8-4.3c0-0.3-0.2-0.6-0.4-0.8
	c0.3-0.2,0.6-0.3,0.9-0.3c0.5,0,1,0.4,1,1.2c0,2.4-4.6,4.5-4.6,7.4c0,0.5,0.1,0.9,0.4,1.2c-0.3,0.1-0.7,0.1-0.9-0.3
	c0,0.8,1.1,1.2,1.8,0.9c0.2,0.1,0.3,0.1,0.5,0.1c-0.2,0.6-0.9,0.7-1.3,0.7c1.1,0.9,3.1-0.3,3-1.3c0.9-0.7,1.5-2,2.1-2.8
	c0,0.2-0.1,0.4-0.1,0.6c-0.7,1.2-1.3,2.3-1.5,3.9c-0.1,1.3-0.8,2.5-1.7,2.5c-0.2,0-0.5-0.3-0.7-0.1c-0.3,0.2,0,0.5,0,0.8
	c0,0.4-0.7,0.8-0.7,1.9c0,0.5,0.3,1.2,0.2,1.5c0.3-0.2,0.7-0.6,0.9-1.3c0.3,1.5-0.7,1.5,0,2.8c0.1-0.5,0.5-0.6,0.8-0.5
	c0.3,0.2,0.1,0.3-0.1,0.5s-0.4,1.2,0.5,1.2c-0.2-0.1-0.2-0.4,0.3-0.5c0.6-0.1,0.8,0.2,1.5,0.2c0.4,0,0.5-0.6,0.9-0.6
	c0.3,0,0.3,0.3,0.2,0.5c0.5-0.1,0.6-0.4,0.6-0.7c0-0.3-0.2-0.5-0.1-0.6c0.2-0.1,0.8,0,0.6,0.5c0.3-0.1,0.5-0.3,0.5-0.7
	c0-0.4-0.5-0.6-0.9-0.6c-0.1-0.2-0.4-0.4-0.8-0.4c-0.8,0-0.6,0.6-1.2,0.6c-0.8,0-1.6-1.1-1.6-2.9c0-1,1-1.2,1.8-1.5
	c0.7-0.3,2-1.1,2.8-2.4c0.6-1,0.6-2.1,0.6-3.5c1,0.6,1.2,1.5,1.2,2.1c0,0.8-0.4,1.1-0.8,1.3c-0.3,0.1-0.4,0.1-0.4,0.2
	c0,0.2,0.1,0.3,0.2,0.4c0.4,0.2,0.3,0.6,0.4,0.9c0.1,0.4,0.5,1,1,1.5c0.1-0.2,0-0.6,0-1.1c0.8,0.4,0.2,2,1.7,2
	c-0.3-0.2-0.2-0.6,0-0.6c0.2-0.1,0.4,0.1,0.7,0.5s0.2,0.4,1,0.4c0.7,0,0.4-0.3,0.8-0.3c0.4,0,0.4,0.5,0.2,0.8
	c0.7-0.2,0.9-0.7,0.6-1.2c0.6-0.3,0.9,0.1,1,0.4c0.6-0.6,0-1.3-0.4-1.3c0-0.2-0.2-0.4-0.4-0.5c-0.2,0-0.5,0-0.7,0
	c-0.3,0-0.4,0.4-0.7,0.4c-1,0-2.9-1.8-2.9-2.5s1.9-1.2,1.9-2.4c0-1.6-1.5-2.1-2.8-3.1c0.5-0.5,1.8-0.6,2.6-0.3
	c0.1-0.4,0.4-0.3,0.5-1.1c0.3,0.7-0.1,1.2,0.2,1.5c0.2-0.3,0.8-0.3,0.7-1.1c0.2,0.5-0.2,1.3,0.2,1.6c0.1-0.4,0.3-0.5,0.5-0.5
	s0.3,0.1,0.3,0.4c0,0.6-0.7,0.5-0.7,1.2c0,0.3,0.4,0.4,0.4,0.6s-0.3,0.5-0.7,0.2c0.1,0.3,0.4,0.5,0.7,0.5s0.7-0.3,0.8-0.6
	c0.2,0.4,0,0.9-0.3,1c0.3,0.2,1.1,0,1-1c0.5,0.1,0.7,0.4,0.4,0.9c0.4-0.1,0.7-0.3,0.7-0.7c0-0.3-0.3-0.5-0.2-0.9
	C-51,102.1-51.5,101.8-51.5,101.3 M-59.7,88.5c-0.4,0-0.4-0.4-1.2-0.5c0.5-0.1,1.2-0.4,1.8-0.6C-58.9,87.8-59.1,88.4-59.7,88.5
	 M-56.7,91.7c-0.5,0.2-1-0.2-1.1-0.6c-0.1-0.3-0.2-0.6-0.1-0.7c0.2-0.2,0.3-0.4,0.2-0.7c-0.2-0.3-0.5-0.2-0.9-0.1
	c0.2-0.3,0.2-0.5-0.1-0.5s-0.3,0.5-0.5,0.4s-0.1-0.3-0.1-0.5s0.1-0.3,0.3-0.4l1.6-0.6c0.2-0.1,0.3-0.1,0.5,0
	c0.1,0.1,0.4,0.2,0.3,0.4c-0.1,0.2-0.4-0.2-0.6,0c-0.2,0.1,0,0.3,0.3,0.4c-0.3,0.2-0.7,0.3-0.6,0.7c0.1,0.3,0.3,0.4,0.6,0.4
	c0.2,0,0.3,0.3,0.5,0.6C-56.1,90.8-56.1,91.4-56.7,91.7 M-56.6,87.3c-0.4,0.3-1,0-1.2-0.4c0.6-0.2,1.3-0.5,1.7-0.8
	C-56.5,86.7-56.3,87-56.6,87.3"/>
<path id="XMLID_441_" d="M-61.9,84.8c0-0.2-0.1-0.3-0.3-0.3s-0.3,0.1-0.3,0.3c0,0.2,0.1,0.3,0.3,0.3S-61.9,84.9-61.9,84.8"/>
<path id="XMLID_440_" d="M-62,84c0-0.2-0.1-0.3-0.3-0.3s-0.3,0.1-0.3,0.3c0,0.2,0.1,0.3,0.3,0.3S-62,84.1-62,84"/>
<path id="XMLID_439_" d="M-61.8,83.6c0.2,0,0.3-0.1,0.3-0.3c0-0.2-0.1-0.3-0.3-0.3s-0.3,0.1-0.3,0.3S-62,83.6-61.8,83.6"/>
<path id="XMLID_438_" d="M-61,83.6c0.2,0,0.3-0.1,0.3-0.3c0-0.2-0.1-0.3-0.3-0.3c-0.2,0-0.3,0.1-0.3,0.3
	C-61.3,83.4-61.2,83.6-61,83.6"/>
<path id="XMLID_437_" d="M-57.6,83c0.1,0.1,0.3,0.1,0.4,0c0.1-0.1,0.1-0.3,0-0.4s-0.3-0.1-0.4,0S-57.7,82.9-57.6,83"/>
<path id="XMLID_436_" d="M-57.6,82.4c0.1-0.1,0.1-0.3,0-0.4s-0.3-0.1-0.4,0c-0.1,0.1-0.1,0.3,0,0.4C-57.9,82.5-57.7,82.5-57.6,82.4"
	/>
<path id="XMLID_435_" d="M-58.4,82.2c0.1-0.1,0.1-0.3,0-0.4s-0.3-0.1-0.4,0c-0.1,0.1-0.1,0.3,0,0.4C-58.7,82.3-58.5,82.3-58.4,82.2"
	/>
<path id="XMLID_434_" d="M-59.1,82.7c0.1-0.1,0.1-0.3,0-0.4s-0.3-0.1-0.4,0c-0.1,0.1-0.1,0.3,0,0.4C-59.4,82.9-59.2,82.9-59.1,82.7"
	/>
<path id="XMLID_433_" d="M-61,82.3l0.2,0.5l0.3-0.4l0,0c0,0.2,0,0.5,0,0.7s0.2,0.4,0.4,0.4c0.2,0,0.4-0.2,0.4-0.4
	c0-0.1-0.1-0.3-0.2-0.3c-0.1-0.1-0.3-0.3-0.4-0.4l0,0h0.5l-0.2-0.5l-0.4,0.3l0,0v-0.6l-0.5,0.2l0.4,0.4l0,0L-61,82.3z"/>
<path id="XMLID_432_" d="M-57.5,83.3c0.1,0.2,0.2,0.3,0.2,0.4C-57.4,83.7-57.5,83.6-57.5,83.3v0.8c0.1-0.1,0.2-0.2,0.3-0.3
	c0,0.5-0.2,0.6-0.4,0.7c-0.2,0-0.3-0.1-0.4-0.2c0-0.2,0.1-0.3,0.3-0.1c0-0.4-0.3-0.4-0.5-0.2c0.2-0.4,0.1-0.7-0.3-0.9
	c-0.2,0.4-0.1,0.6,0.2,0.9c-0.3-0.1-0.5,0.1-0.3,0.4c0.1-0.3,0.3-0.2,0.3,0s-0.1,0.4-0.4,0.5c-0.4,0.1-0.6-0.1-0.7-0.4
	c0.1-0.1,0.3,0,0.6,0.1l-0.2-0.7c-0.1,0.2-0.2,0.3-0.4,0.4c0-0.2,0.1-0.6,0.1-0.6l-0.8,0.3c0,0,0.4,0.2,0.5,0.3
	c-0.2,0.1-0.3,0.1-0.6,0l0.3,0.6c0.1-0.3,0.2-0.5,0.3-0.5c0.1,0.2,0.2,0.5-0.2,0.7c-0.3,0.1-0.6,0.1-0.7-0.1s0-0.4,0.2-0.2
	c0-0.4-0.4-0.4-0.5-0.1c0-0.4-0.1-0.7-0.5-0.8c-0.1,0.4,0,0.7,0.4,0.8c-0.2,0-0.5,0.2-0.2,0.5c0-0.3,0.2-0.3,0.3-0.1
	c0.1,0.1,0.1,0.3-0.1,0.4c-0.1,0.1-0.4,0.1-0.7-0.2c0.1,0,0.2,0,0.4,0l-0.4-0.5c0,0.2,0,0.3,0,0.4c-0.1-0.1-0.1-0.2-0.2-0.4
	l-0.3,0.3c0.3,0.2,0.7,0.5,1.1,1.1c0.5-0.3,1.3-0.7,1.8-0.9c0.5-0.2,1.4-0.5,2-0.6c-0.1-0.8-0.1-1.2,0-1.6L-57.5,83.3z"/>
<path id="XMLID_429_" d="M-21.5,109.9c0,0.7,0.6,1.3,1.3,1.3c0.7,0,1.3-0.6,1.3-1.3c0-0.7-0.6-1.3-1.3-1.3S-21.5,109.1-21.5,109.9
	 M-21.1,109.9c0-0.5,0.4-1,1-1c0.5,0,1,0.4,1,1c0,0.5-0.4,1-1,1C-20.7,110.8-21.1,110.4-21.1,109.9"/>
<path id="XMLID_426_" d="M-26.3,111.1c-0.2,0.1-0.3,0.3-0.3,0.5s0,0.5,0.2,0.7s0.4,0.3,0.7,0.4c0.3,0,0.5,0,0.7-0.1s0.4-0.3,0.4-0.5
	l0,0c0.1-0.5-0.3-0.9-0.9-1C-25.8,110.9-26.1,110.9-26.3,111.1 M-25.7,112.2c-0.4-0.1-0.6-0.3-0.6-0.6c0-0.1,0.1-0.2,0.2-0.3
	c0.2-0.1,0.4-0.1,0.6-0.1c0.3,0.1,0.6,0.3,0.6,0.6c0,0,0,0,0,0.1C-25,112.1-25.4,112.3-25.7,112.2"/>
<path id="XMLID_423_" d="M-33.5,92.8c-0.4,0.3-0.5,0.8-0.3,1.2c0.3,0.3,0.8,0.4,1.2,0c0.2-0.2,0.4-0.4,0.4-0.7c0-0.2,0-0.4-0.1-0.5
	s-0.3-0.2-0.5-0.3C-33,92.5-33.3,92.6-33.5,92.8 M-33.6,93.5c0-0.2,0.1-0.4,0.3-0.5s0.3-0.2,0.5-0.2c0.1,0,0.2,0,0.2,0.1
	c0.1,0.1,0.1,0.2,0.1,0.3c0,0.2-0.1,0.3-0.3,0.4c-0.3,0.2-0.6,0.2-0.7,0C-33.6,93.7-33.6,93.6-33.6,93.5"/>
<path id="XMLID_420_" d="M-27.9,108.9c-0.2,0.2-0.3,0.5-0.3,0.8l0,0c0,0.3,0.1,0.6,0.3,0.8c0.1,0.2,0.3,0.2,0.5,0.2s0.4-0.1,0.5-0.2
	c0.2-0.2,0.3-0.5,0.3-0.8s-0.1-0.5-0.2-0.7c-0.2-0.2-0.4-0.3-0.6-0.3C-27.5,108.7-27.7,108.8-27.9,108.9 M-27.4,110.4L-27.4,110.4
	c-0.1,0-0.2-0.1-0.3-0.1c-0.1-0.1-0.2-0.3-0.2-0.6c0-0.2,0.1-0.4,0.2-0.5s0.2-0.1,0.3-0.1c0.3,0,0.5,0.3,0.5,0.7
	c0,0.2-0.1,0.4-0.2,0.5C-27.1,110.3-27.2,110.4-27.4,110.4"/>
<path id="XMLID_417_" d="M-34.3,98.4c-0.2,0.1-0.4,0.2-0.4,0.4c-0.2,0.4,0,1,0.6,1.2c0.3,0.1,0.6,0.2,0.8,0.1s0.4-0.2,0.4-0.4
	c0.1-0.2,0.1-0.4,0-0.6c-0.1-0.3-0.3-0.5-0.6-0.6C-33.7,98.3-34,98.3-34.3,98.4 M-34,99.6c-0.3-0.2-0.5-0.5-0.4-0.8
	c0.1-0.1,0.2-0.2,0.2-0.2c0.2-0.1,0.4,0,0.6,0.1c0.2,0.1,0.3,0.3,0.4,0.4c0,0.1,0.1,0.2,0,0.3c-0.1,0.1-0.2,0.2-0.2,0.2
	C-33.6,99.8-33.8,99.7-34,99.6"/>
<path id="XMLID_408_" d="M-20.5,97c0.4,1.2,1.3,1.6,1.9,1.3c-1.4-0.2-0.3-2.6-2.1-2.6c-0.1,0-0.2,0-0.3,0c-0.3-0.3-0.7-0.5-1.2-0.5
	c-0.8,0-2.1,0.8-2.1,2.3c0,3.4,3.9,3.7,3.9,6.6c0,0.9-0.7,1.4-1.4,1.4c-0.7,0-1.2-0.7-1.7-1.9c-0.3-0.5-0.8-1.3-1.4-2.1
	c0.2,0.1,0.4,0.2,0.6,0.2s0.4-0.1,0.5-0.2s0.2-0.3,0.2-0.5l0,0c0-0.3-0.1-0.5-0.3-0.8c-0.2-0.2-0.5-0.4-0.8-0.4
	c-0.2,0-0.4,0.1-0.5,0.2s-0.2,0.3-0.2,0.5l0,0c0,0.1,0,0.2,0.1,0.3c-0.8-1.1-1.6-2.2-1.6-2.8c0-0.5,0.4-1,0.8-1.5l0.2,0.1l0.1-0.1
	c0.2-0.2,0.5-0.5,1.2-1.3l0,0l0,0l0.2-0.2l-0.4-0.3c0.1-0.3,0.2-0.5,0.3-0.8c0.1,0.5,0.4,0.9,0.8,0.8c-0.3-0.6,0.3-1.3-0.1-2.7
	c0.3,0.5,0.8,0.8,1.1,0.7c-0.9-0.8,0.3-1.8-0.9-3.5c0.4,0.1,0.6,0.1,0.8-0.1c-1-0.1-0.6-1.5-2.4-1.9c0.5-0.1,0.7-0.3,0.6-0.6
	c-0.5,0.3-0.9-0.6-2.5-0.6c-0.1-0.6-0.6-1.2-1.3-1.5c0.1,0.5,0,0.9-0.1,1.2l-5.1-5c-0.1-0.1-0.2-0.2-0.3-0.1c0,0.1,0,0.1,0.1,0.2
	l4.4,5.5c-0.3,0.1-0.7,0.2-1,0.4c-0.2,0.1-0.4,0.3-0.4,0.6c-0.8,0.4-1.5,0.9-1.9,1.2c-0.3,0.2-0.5,0.3-0.2,0.9
	c0.1,0.2-0.2,0.7,0.4,0.3c0.4-0.2,1.4-0.8,1.5-0.4c0.1,0.2-0.4,0.4-0.7,0.5s-0.7,0.4-0.6,0.5c0,0.1,0.3,0,0.3,0.1s0.1,0.3,0.2,0.3
	s0.3-0.3,0.4-0.2c0.1,0.1-0.1,0.7-0.2,0.8c0.5-0.1,0.8-0.5,0.8-0.9s0.1-0.5,0.2-0.5c0.1-0.1,0.2,0.4,0.1,0.7c0.3-0.1,0.5-0.4,0.5-1
	c0.1-0.1,0.3-0.2,0.4-0.2c0.2,0,0.5,0.5,1,0.5c0.9,0,1.3-0.7,1.4-1c0-0.3,0-0.5-0.1-0.7c0.3,0.2,0.4,0.6,0.4,0.9
	c0,1.2-2.2,1.8-3.1,2.7l-0.1,0.1l-1-0.4l-0.1,0.2c0,0,0,0.1-0.1,0.2c-0.1,0.3-0.3,1.1-0.5,1.5l-0.1,0.2l0.1,0.1
	c-0.6,0.8-1.1,1.7-1.2,2.6c-0.2-0.3-0.5-0.5-0.7-0.7c0-0.1,0-0.2,0.1-0.3c0-0.3-0.1-0.5-0.2-0.7c-0.1-0.1-0.3-0.2-0.5-0.2
	s-0.4,0.1-0.5,0.2l-0.1,0.1l-0.1-0.1c-0.3-0.3-0.8-0.6-1-0.8c-0.1-0.1-0.2-0.2-0.4-0.2c-0.1,0-0.3,0-0.5,0s-0.2,0.1-0.4,0.3
	c-0.1,0.1-0.4,0.3-0.7,0.6c0.2,0.2,0.3,0.3,0.5,0.5l0.1,0.1c0.1-0.1,0.3-0.2,0.3-0.3c0.1-0.1,0.2-0.1,0.4-0.1c0.1,0,0.3,0.1,0.4,0.3
	c0.1,0.1,0.9,1.2,1.6,2c-0.1,0-0.2,0.1-0.2,0.1c-0.3,0.1-1,0.1-1.2,0.1c-0.3,0-0.3-0.1-0.5,0.2c-0.1,0.1-0.2,0.3-0.3,0.4
	s-0.2,0.3,0,0.6c0.3,0.5,1,1.8,1.3,2.5c0.2,0.6,0.5,0.7,1,0.9c0.5,0.2,1.3,0.7,1.4,0.8v-0.5c-0.1-0.1-0.6-0.3-0.8-0.4
	s-0.2-0.1,0-0.1s0.8,0.2,1.2,0.4c-0.1-0.5-0.6-0.9-0.8-1.2c-0.3-0.1-0.7-0.1-0.8,0c0,0.1-0.1,0.2-0.2,0.2c-0.1,0-0.2-0.1-0.2-0.2
	s0.2-0.2,0.2-0.4c0-0.3-0.4-0.3-0.6-0.3c-0.3-0.4-0.6-1-0.8-1.3c-0.2-0.2-0.1-0.4,0-0.5c0.2-0.2,0.8,0.1,1.8,0.2
	c0.4,0,0.8,0,1.3,0.1c0.1,1.2,0.6,2.3,2.3,2.8c0.8,0.2,1.7,0.8,2,1.6c-3.3-0.1-3.9,1.2-3.9,2.5c0,1.4,1.2,1.3,1.2,2.4
	c0,0.9-2.8,1.3-3.7,1.4c-0.7,0.1-1.1,0.3-1.5,0.6c-0.3,0.3-0.7,0.7-1.3,1.3c0,0,0.3,0.1,0.5,0l0.5-0.6c0.1-0.2,0.2-0.4,0.3-0.4
	s0,0.2-0.1,0.4l-0.4,0.7c1.6,0.1,1.8-0.5,1.8-0.8s-0.4-0.4-0.2-0.6s0.4,0,0.6,0.2c0.2,0.2,0.2,0.4,0.7,0.2c0,0,3.6-1.5,4.1-1.7
	c0.4-0.2,0.3-0.4,0-0.6s-0.3-0.6-0.3-1c0-1.1,0.7-1.4,1.8-1.4c0,0.2,0,0.4,0,0.5c0,1.7,2.6,3.4,3.3,3.4c0.3,0,0.7-0.2,0.8,0.8
	c0,0.8,0.2,1.3,0,2.2c-0.1,0.9-0.4,1-0.9,1.4s-1,1.5-1.2,1.8c0.2,0.2,0.5,0.2,0.7-0.4c0.2-0.5,0.3-0.8,0.5-0.9
	c-0.2,0.5-0.4,1.3-0.4,1.5c0.7,0.1,1.7-0.5,1.7-0.9c0-0.5-0.4-0.4-0.4-0.7c0-0.1,0.2-0.3,0.4-0.3c0.3,0,0.5,0.2,0.5,0.3
	c0.3-0.2,0.5-0.4,0.5-1.1c0-0.3,0-0.5,0-0.8c0,0,0,0.1,0.1,0.1c0.1,0.2,0.3,0.3,0.6,0.3c0.2,0,0.5,0,0.7-0.2
	c0.3-0.2,0.4-0.4,0.5-0.7c0-0.1,0-0.1,0-0.2s0-0.3-0.1-0.4c-0.1-0.2-0.3-0.3-0.5-0.3c-0.3-0.1-0.6,0-0.8,0.2
	c-0.2,0.2-0.4,0.4-0.5,0.6c-0.1-0.9-0.1-1.8-0.1-2.1c0-0.5,0.1-0.8-0.1-0.8c-0.2-0.1-0.4,0.2-0.6,0.2c-0.3,0-1-0.7-1-1.4
	c0-0.7,0.8-1.7,0.8-2.7c0-0.3,0.2-0.5,0.3-0.2c0.2,0.3,0.4,0.8,0.7,1.2c-0.2,1.3,1.2,2.5,2.3,1.6c-0.6,0.1-1-0.4-1.2-0.9
	c0.1,0,0.2,0,0.3,0c0.1,0,0.1,0,0.2,0c0.4,0.5,1.7,0.5,2-0.8c-0.2,0.3-0.7,0.5-1,0.4c0.5-0.4,0.7-1,0.7-1.6c0-3.2-3.9-3.6-3.9-6.5
	c0-1.1,0.9-1.8,1.6-1.8c0.3,0,0.4,0.1,0.6,0.2c-0.3,0.3-0.4,0.6-0.4,1.1c0.1,2.3,3.9,2.2,3.9,3.3C-17.6,98.8-20.4,99.3-20.5,97
	 M-30.6,88.2c0.2-0.3,0-0.9,0.6-0.9c0.3,0,0.6,0.3,1,0.4C-29.6,87.8-30.1,87.9-30.6,88.2 M-34,95.2c0,0.2-0.1,0.4-0.2,0.5
	c-0.1,0-0.1,0.1-0.2,0.1c-0.2,0-0.4-0.3-0.4-0.6l0,0c0-0.2,0.1-0.4,0.2-0.5c0.1,0,0.1-0.1,0.3-0.1c0.1,0,0.2,0.1,0.2,0.1
	C-34,94.9-34,95.1-34,95.2 M-22.9,111.4c0-0.2,0.2-0.4,0.3-0.5c0.2-0.1,0.4-0.2,0.6-0.1c0.1,0,0.2,0.1,0.3,0.2l0,0
	c0.1,0.1,0.1,0.2,0.1,0.3c0,0.2-0.2,0.4-0.3,0.5c-0.3,0.2-0.7,0.2-0.8,0C-22.9,111.6-22.9,111.5-22.9,111.4 M-25.2,100.7
	c0-0.1,0-0.2,0.1-0.3l0,0c0.1-0.1,0.2-0.1,0.3-0.1c0.2,0,0.4,0.1,0.5,0.3c0.1,0.2,0.2,0.4,0.2,0.5s0,0.2-0.1,0.3
	c-0.1,0.1-0.2,0.1-0.3,0.1c-0.2,0-0.4-0.1-0.5-0.3C-25.1,101.1-25.2,100.9-25.2,100.7 M-31.7,93.4L-31.7,93.4
	c0.2-0.6,0.5-1.7,0.5-1.7l0,0l0.7,0.3h-0.1c-0.1,0.1-0.3,0.2-0.5,0.4c0.1,0,0.3,0,0.4-0.1l0.1-0.1l-0.3,0.8v0c0-0.1-0.2-0.3-0.3-0.3
	c0,0.1,0,0.1,0,0.2c0,0.3,0.2,0.4,0.4,0.5c0.4,0.2,0.6,0.2,0.6,0.1v-0.1c0-0.1,0-0.1-0.1-0.2s-0.2-0.1-0.3-0.1l0,0V93
	c0-0.2,0-0.3,0.1-0.4s0.2-0.1,0.3-0.1s0.2,0.1,0.3,0.2c0-0.4,0.3-0.8,0.7-0.9l0,0l0,0c0.1,0.1,0.1,0.3,0.1,0.4
	c0,0.3-0.1,0.5-0.3,0.7c0.2,0,0.3,0,0.4,0.1c0.1,0.1,0.1,0.2,0.1,0.3c0,0.1-0.1,0.2-0.3,0.3l0,0v-0.1c0-0.1-0.1-0.2-0.2-0.2
	s-0.2,0-0.2,0.1c-0.1,0.2,0,0.4,0.4,0.5c0.4,0.2,0.7,0,0.8-0.2c-0.1,0-0.3,0-0.5,0.1l-0.1,0.1l0.5-1V93c0,0.1,0.1,0.2,0.2,0.4
	c0-0.1,0.1-0.2,0.1-0.4c0-0.1,0-0.2-0.1-0.3l-0.1-0.1l1.1,0.6h-0.1c-0.2,0-0.4,0.1-0.5,0.3c0.2,0,0.4,0,0.4,0h0.1l-0.6,0.9v-0.1l0,0
	c0-0.2-0.1-0.3-0.1-0.4c0,0.1-0.1,0.2-0.1,0.3c0,0.2,0.1,0.3,0.3,0.5c0.3,0.2,0.5,0.2,0.7,0.1c0-0.1,0-0.2,0-0.3
	c-0.1-0.1-0.2-0.1-0.3-0.1h-0.1v-0.1c0-0.2,0.1-0.3,0.1-0.4c0.1-0.1,0.2-0.1,0.3-0.1c0.2,0,0.3,0.1,0.3,0.3c0.1-0.5,0.4-0.7,0.8-0.8
	l0,0l0,0c0,0.1,0,0.2,0,0.2c0,0.3-0.2,0.6-0.4,0.8c0.1,0,0.3,0.1,0.3,0.2s0.1,0.1,0.1,0.2v0.1c0,0.1-0.1,0.2-0.3,0.3h-0.1V95
	c0-0.2-0.1-0.2-0.2-0.3c-0.1,0-0.2,0-0.2,0.1c-0.1,0.1,0,0.3,0.4,0.5c0.2,0.1,0.5,0.3,0.8,0c-0.1-0.1-0.3-0.1-0.4-0.1h-0.1l0.5-0.7
	v0.1l0,0c0,0.1,0.1,0.3,0.2,0.4c0-0.2,0.1-0.3,0.1-0.5c0-0.1,0-0.1,0-0.1v-0.1l0.6,0.5l0,0c0,0-0.8,0.9-1.2,1.3l0,0L-31.7,93.4z
	 M-26.3,106.7c-0.2,0.3-0.6,0.4-0.8,0.2c-0.2-0.2-0.3-0.5,0-0.8c0.2-0.3,0.6-0.4,0.8-0.2C-26.1,106-26.1,106.4-26.3,106.7
	 M-24.8,104.3c-0.2,0.3-0.6,0.4-0.8,0.2c-0.2-0.2-0.3-0.5,0-0.8c0.2-0.3,0.6-0.4,0.8-0.2C-24.6,103.6-24.6,104-24.8,104.3"/>
<path id="XMLID_401_" d="M-43,114.6c-0.1,0-0.2,0-0.3,0v-1.5c-0.7,0-1.5-0.2-2.3-0.4v1.9c-0.1,0-0.2,0-0.3,0c-0.6,0-0.9,0.5-0.9,0.9
	s0.2,0.8,0.4,1c0.1-0.2,0.2-0.4,0.3-0.4c0.3,0,0.2,1.4,1,1.4c0,0.1,0,0.1,0,0.2c0,0.3,0.3,0.6,0.6,0.6s0.6-0.3,0.6-0.6
	c0-0.1,0-0.2,0-0.2c0.8,0,0.7-1.4,0.9-1.4c0.1,0,0.2,0.2,0.3,0.4c0.2-0.2,0.4-0.6,0.4-1C-42.1,115.1-42.4,114.6-43,114.6
	 M-44.4,118.1c-0.2,0-0.4-0.2-0.4-0.4c0-0.2,0.2-0.4,0.4-0.4s0.4,0.2,0.4,0.4C-44.1,117.9-44.2,118.1-44.4,118.1 M-42.5,116.1
	c-0.1-0.2-0.2-0.3-0.4-0.3c-0.5,0-0.3,1.4-1,1.4c-0.3,0-0.4-0.2-0.4-0.4c0-0.2,0.1-0.3,0.1-0.4c0-0.2-0.1-0.2-0.3-0.2
	c-0.1,0-0.3,0.1-0.3,0.2c0,0.2,0.1,0.2,0.1,0.4c0,0.2-0.2,0.4-0.4,0.4c-0.6,0-0.4-1.4-1-1.4c-0.1,0-0.3,0.1-0.4,0.3
	c-0.1-0.2-0.2-0.4-0.2-0.6c0-0.3,0.2-0.6,0.6-0.6c0.7,0,0.6,1,0.9,1c0.2,0,0.3-0.1,0.3-0.2c0-0.3-0.5-0.5-0.5-0.9s0.4-0.7,0.8-1.1
	c0.4,0.3,0.8,0.7,0.8,1.1s-0.5,0.7-0.5,0.9c0,0.2,0.1,0.2,0.3,0.2c0.3,0,0.2-1,0.9-1c0.4,0,0.6,0.4,0.6,0.6
	C-42.4,115.7-42.4,115.9-42.5,116.1"/>
<path id="XMLID_400_" d="M-47.5,86.6c-0.2,0.5-0.5,0.7-0.4,1.1c0,0.4,0.4,0.6,0.6,1c0.2-0.4,0.4-0.7,0.4-1.1
	C-47,87.2-47.4,86.8-47.5,86.6"/>
<path id="XMLID_399_" d="M-41.3,86.6c0.2,0.5,0.5,0.7,0.4,1.1c0,0.4-0.4,0.6-0.6,1c-0.2-0.4-0.4-0.7-0.4-1.1
	C-41.8,87.2-41.4,86.8-41.3,86.6"/>
<path id="XMLID_398_" d="M-51.1,86.3c0.2,0,0.4-0.2,0.4-0.4c0-0.2-0.2-0.4-0.4-0.4s-0.4,0.2-0.4,0.4C-51.5,86.1-51.3,86.3-51.1,86.3
	"/>
<path id="XMLID_397_" d="M-50.8,86.9c0-0.2-0.2-0.4-0.4-0.4s-0.4,0.2-0.4,0.4c0,0.2,0.2,0.4,0.4,0.4S-50.8,87.1-50.8,86.9"/>
<path id="XMLID_396_" d="M-50.6,87.9c0-0.2-0.2-0.4-0.4-0.4s-0.4,0.2-0.4,0.4c0,0.2,0.2,0.4,0.4,0.4S-50.6,88.1-50.6,87.9"/>
<path id="XMLID_395_" d="M-48.8,84.3c0.2,0,0.4-0.2,0.4-0.4c0-0.2-0.2-0.4-0.4-0.4s-0.4,0.2-0.4,0.4C-49.2,84.1-49,84.3-48.8,84.3"
	/>
<path id="XMLID_394_" d="M-49.8,84.6c0.2,0,0.4-0.2,0.4-0.4c0-0.2-0.2-0.4-0.4-0.4s-0.4,0.2-0.4,0.4S-50.1,84.6-49.8,84.6"/>
<path id="XMLID_393_" d="M-50.6,85.3c0.2,0,0.4-0.2,0.4-0.4s-0.2-0.4-0.4-0.4s-0.4,0.2-0.4,0.4S-50.9,85.3-50.6,85.3"/>
<path id="XMLID_392_" d="M-47.7,84.4c0.2,0,0.4-0.2,0.4-0.4c0-0.2-0.2-0.4-0.4-0.4s-0.4,0.2-0.4,0.4S-47.9,84.4-47.7,84.4"/>
<path id="XMLID_391_" d="M-46.6,84.7c0.2,0,0.4-0.2,0.4-0.4c0-0.2-0.2-0.4-0.4-0.4s-0.4,0.2-0.4,0.4C-47.1,84.5-46.9,84.7-46.6,84.7
	"/>
<path id="XMLID_390_" d="M-45.7,85.1c0.2,0,0.4-0.2,0.4-0.4c0-0.2-0.2-0.4-0.4-0.4s-0.4,0.2-0.4,0.4C-46.1,85-45.9,85.1-45.7,85.1"
	/>
<path id="XMLID_389_" d="M-38.2,85.9c0,0.2,0.2,0.4,0.4,0.4s0.4-0.2,0.4-0.4c0-0.2-0.2-0.4-0.4-0.4C-38,85.4-38.2,85.6-38.2,85.9"/>
<path id="XMLID_388_" d="M-37.6,86.5c-0.2,0-0.4,0.2-0.4,0.4c0,0.2,0.2,0.4,0.4,0.4s0.4-0.2,0.4-0.4S-37.4,86.5-37.6,86.5"/>
<path id="XMLID_387_" d="M-37.8,87.5c-0.2,0-0.4,0.2-0.4,0.4c0,0.2,0.2,0.4,0.4,0.4s0.4-0.2,0.4-0.4S-37.6,87.5-37.8,87.5"/>
<path id="XMLID_386_" d="M-40.1,84.3c0.2,0,0.4-0.2,0.4-0.4c0-0.2-0.2-0.4-0.4-0.4s-0.4,0.2-0.4,0.4C-40.5,84.1-40.3,84.3-40.1,84.3
	"/>
<path id="XMLID_385_" d="M-39,84.6c0.2,0,0.4-0.2,0.4-0.4c0-0.2-0.2-0.4-0.4-0.4s-0.4,0.2-0.4,0.4S-39.3,84.6-39,84.6"/>
<path id="XMLID_384_" d="M-38.2,85.3c0.2,0,0.4-0.2,0.4-0.4s-0.2-0.4-0.4-0.4s-0.4,0.2-0.4,0.4S-38.4,85.3-38.2,85.3"/>
<path id="XMLID_383_" d="M-41.2,84.4c0.2,0,0.4-0.2,0.4-0.4c0-0.2-0.2-0.4-0.4-0.4s-0.4,0.2-0.4,0.4S-41.4,84.4-41.2,84.4"/>
<path id="XMLID_382_" d="M-42.2,84.7c0.2,0,0.4-0.2,0.4-0.4c0-0.2-0.2-0.4-0.4-0.4s-0.4,0.2-0.4,0.4S-42.4,84.7-42.2,84.7"/>
<path id="XMLID_381_" d="M-43.6,84.7c0,0.2,0.2,0.4,0.4,0.4s0.4-0.2,0.4-0.4c0-0.2-0.2-0.4-0.4-0.4S-43.6,84.5-43.6,84.7"/>
<path id="XMLID_380_" d="M-45.1,87h0.5v-1.8c-0.2,0-0.3-0.1-0.5-0.1V87z"/>
<path id="XMLID_379_" d="M-43.7,85.1c-0.1,0.1-0.3,0.1-0.5,0.1V87h0.5V85.1z"/>
<path id="XMLID_378_" d="M-44.7,83.1V82c-0.5,0.1-0.9,0.5-1,1.1H-44.7z"/>
<path id="XMLID_377_" d="M-44.1,83.1h1c-0.1-0.5-0.5-1-1-1.1V83.1z"/>
<path id="XMLID_376_" d="M-45.7,83.6c0.1,0.6,0.7,1,1.3,1s1.2-0.4,1.3-1H-45.7z"/>
<path id="XMLID_375_" d="M-43.7,81.8c-0.3-0.2-0.5-0.6-0.6-0.9c0.3,0.1,0.7,0.3,1,0.6v-1.4c-0.2,0.3-0.6,0.5-1,0.6
	c0-0.4,0.3-0.7,0.5-1h-1.4c0.3,0.4,0.5,0.7,0.5,1c-0.3-0.1-0.7-0.3-1-0.6v1.4c0.2-0.3,0.6-0.5,1-0.6c0,0.4-0.3,0.7-0.6,0.9H-43.7z"
	/>
<path id="XMLID_368_" d="M-42.2,110.7c-1.3-0.3-2.9-0.9-4.4-1.6l0,0c0-0.3-0.1-0.6-0.3-0.9s-0.5-0.4-0.8-0.4c-0.1,0-0.3,0-0.4,0.1
	c-0.2-0.2-0.4-0.4-0.6-0.6c-0.6-0.7-1-1.4-1.3-2.3c-0.2-0.5-0.3-1-0.4-1.5c-0.1,0.4-0.6,0.9-1.4,0.9c0-0.1,0-0.2-0.1-0.2
	c-0.2,0.2-0.5,0.5-1.3,0.2c0.1,0.6,0.3,1.2,0.5,1.7c0.4,1.2,1.1,2.3,1.9,3.2c0.3,0.3,0.6,0.6,0.8,0.8c0,0.1,0,0.1,0,0.2
	c0,0.3,0.3,0.8,0.7,1s0.7,0.1,1.1-0.1c0.6,0.3,1.5,0.7,2.3,0.9c1,0.3,1.9,0.4,2.7,0.4c0.6,0,1.5-0.3,2.3-0.8
	c0.3-0.2,0.7-0.4,0.9-0.7l0.1-0.1C-40.4,111.1-41.3,110.9-42.2,110.7 M-52.2,106c-0.1-0.3-0.1-0.6,0-0.8c0.1-0.2,0.3-0.4,0.5-0.5
	s0.5-0.1,0.8,0c0.2,0.1,0.4,0.3,0.5,0.6c0.1,0.1,0.1,0.3,0.1,0.4s0,0.3-0.1,0.4c-0.1,0.2-0.3,0.4-0.5,0.5s-0.5,0.1-0.7,0
	C-51.9,106.5-52.1,106.3-52.2,106 M-50.6,108.8l-0.3-0.5c0,0,0.5-0.4,0.6-0.4c0-0.1-0.3-0.4-0.3-0.5c-0.1,0-0.6,0.4-0.6,0.4
	l-0.3-0.5l1.6-1.1l0.3,0.5c0,0-0.5,0.4-0.6,0.4c0,0.1,0.3,0.4,0.3,0.5c0.1,0,0.6-0.4,0.6-0.4l0.3,0.5L-50.6,108.8z M-47,108.7
	L-47,108.7c-0.4-0.3-0.6-0.3-0.8-0.1c-0.1,0.1-0.2,0.2-0.3,0.3l-0.1,0.2l0.1,0.1c0.3,0.2,0.3,0.5,0.2,0.6c0,0.1-0.1,0.1-0.1,0.1
	c-0.1,0-0.3,0-0.5-0.1l-0.1-0.1l-0.1,0.1v0.1c0,0,0,0.1-0.1,0.1c-0.1,0.2-0.2,0.4-0.2,0.5v0.1c0,0.1,0.2,0.2,0.3,0.3h0.1
	c0.1,0.1,0.3,0.2,0.4,0.3c-0.2,0.1-0.5,0.1-0.7,0c-0.4-0.2-0.6-0.6-0.6-0.8c0-0.3,0.1-0.7,0.4-1.1v-0.1v-0.1
	c-0.1-0.1-0.1-0.2-0.2-0.4c0.1,0,0.3,0,0.4,0.1h0.1v-0.1c0.2-0.2,0.7-0.7,1.2-0.7c0.2,0,0.5,0.1,0.7,0.3c0.1,0.2,0.2,0.3,0.2,0.5
	C-46.8,108.8-46.9,108.8-47,108.7 M-46.1,111.2c-0.3,0-0.6-0.3-0.6-0.6c0-0.3,0.3-0.6,0.6-0.6s0.6,0.3,0.6,0.6
	C-45.6,111-45.8,111.2-46.1,111.2 M-43.7,112c-0.3,0-0.5-0.2-0.5-0.5s0.2-0.5,0.5-0.5s0.5,0.2,0.5,0.5
	C-43.1,111.8-43.4,112-43.7,112"/>
<path id="XMLID_367_" d="M-50.8,105.7L-50.8,105.7c0-0.1,0-0.1,0-0.2c-0.1-0.2-0.3-0.4-0.6-0.3c-0.2,0.1-0.3,0.3-0.2,0.6
	c0,0.1,0.1,0.2,0.2,0.3c0.1,0,0.2,0,0.3,0C-50.9,106-50.8,105.9-50.8,105.7"/>
<path id="XMLID_366_" d="M-50.5,97.3c-0.2-0.1-0.4,0-0.6,0.2c-0.1,0.1-0.1,0.2,0,0.3c0,0.1,0.1,0.2,0.2,0.2c0.1,0.1,0.2,0.1,0.3,0
	c0.1,0,0.2-0.1,0.3-0.2c0-0.1,0-0.1,0-0.2C-50.3,97.5-50.4,97.3-50.5,97.3"/>
<polygon id="XMLID_365_" points="-38.9,96.2 -39.2,96.3 -39,96.4 "/>
<path id="XMLID_364_" d="M-36.4,100.2l-0.2-0.4l0,0l-0.1,0.1c0,0,0,0.1-0.1,0.1h0.1C-36.6,100.1-36.5,100.1-36.4,100.2"/>
<path id="XMLID_363_" d="M-36.6,102.6C-36.6,102.6-36.5,102.6-36.6,102.6c0.1-0.1,0.1-0.2,0.1-0.2s-0.1,0-0.2,0v0.1
	C-36.7,102.6-36.7,102.6-36.6,102.6C-36.7,102.6-36.6,102.6-36.6,102.6"/>
<path id="XMLID_362_" d="M-46.4,93.5c-0.1,0-0.2-0.1-0.3,0s-0.2,0.1-0.3,0.2s0,0.3,0,0.3c0,0.1,0.2,0.4,0.6,0.2
	c0.1,0,0.2-0.1,0.2-0.2s0-0.1,0-0.2c0,0,0-0.1,0-0.2C-46.2,93.7-46.3,93.6-46.4,93.5"/>
<path id="XMLID_344_" d="M-35.5,101.5c-0.2-0.1-0.4-0.3-0.6-0.6c-0.2-0.1-0.8-0.3-1-0.4h-0.1l-0.8,0.2l-0.1-0.5l0.8-0.2
	c0,0,0-0.1,0.1-0.1c0.1-0.2,0.3-0.4,0.4-0.5c-0.2-0.4-0.4-0.7-0.5-0.9c-0.1-0.2-0.2-0.4-0.2-0.6l-0.7,0.4c0,0.1,0.3,0.6,0.3,0.6
	l-0.5,0.2l-0.6-1.2l1.7-0.8l0.1,0.1c0-0.1,0.1-0.1,0.1-0.2c0.1-0.1,0.1-0.2,0.2-0.2c-0.3-0.6-0.7-1.1-1.2-1.6
	c-0.5-0.6-1.1-1.1-1.8-1.6c0.4-0.2,0.7-0.6,0.7-1.1c0-0.3-0.1-0.6-0.4-0.8c0.4-1.2,1-2.6,1.6-3.2l-1.2-0.5c0.3,0.5,0.3,1,0.3,1.3
	c-0.3-0.2-0.6-0.5-0.7-0.9c-0.1,0.4-0.3,0.9-0.4,1.3c0.3-0.2,0.6-0.2,1-0.1c-0.2,0.3-0.7,0.7-1.5,0.5c-0.4-0.1-0.8-0.3-0.8-0.7
	c0-0.2,0.2-0.4,0.4-0.4c0.3,0,0.3,0.4,0.2,0.6c0.3-0.2,0.7-1.2,0.2-1.3c-0.4-0.1-0.8,0.5-0.9,0.9c-0.1-0.5-0.3-1-0.7-1
	c-0.5,0-0.4,1-0.2,1.3c0-0.4,0.2-0.5,0.4-0.5c0.1,0,0.3,0.1,0.3,0.4s-0.5,0.5-1,0.5s-1.4-0.2-1.5-1.1c0.3,0.1,0.8,0.3,1.1,0.6
	c-0.1-0.6-0.1-1,0-1.6c-0.3,0.4-0.7,0.6-1,0.6c0.1-0.4,0.4-0.9,0.9-1.1h-2.2c0.4,0.3,0.8,0.7,0.9,1.1c-0.3-0.1-0.8-0.3-1-0.6
	c0.1,0.6,0.1,1,0,1.6c0.2-0.3,0.7-0.6,1-0.6c-0.1,1-1,1.1-1.5,1.1s-1-0.2-1-0.5s0.2-0.4,0.3-0.4c0.2,0,0.4,0.2,0.4,0.5
	c0.2-0.3,0.4-1.3-0.2-1.3c-0.4,0-0.6,0.5-0.7,1c-0.1-0.4-0.5-1-0.9-0.9c-0.5,0.1-0.2,1.1,0.2,1.3c-0.1-0.2-0.1-0.6,0.2-0.6
	s0.4,0.2,0.4,0.4c0,0.3-0.4,0.6-0.8,0.7c-0.8,0.2-1.3-0.2-1.5-0.5c0.4-0.1,0.6-0.1,1,0.1c-0.2-0.4-0.4-0.9-0.4-1.3
	c-0.1,0.4-0.4,0.7-0.7,0.9c-0.1-0.3-0.1-0.9,0.3-1.4l-1.2,0.5c0.6,0.6,1.2,2.1,1.6,3.3c-0.2,0.2-0.4,0.5-0.4,0.8
	c0,0.6,0.4,0.9,0.7,1.1c-0.7,0.4-1.3,0.9-1.8,1.6c-0.8,0.9-1.5,2-1.9,3.2c0,0.1,0,0.1-0.1,0.2c0.1,0.1,0.3,0.3,0.4,0.4
	c0,0,0,0,0-0.1c0.1-0.1,0.2-0.3,0.4-0.4l0.6,0.2c-0.2,0.2-0.5,0.4-0.5,0.5l0.2-0.1c0.2-0.1,0.4-0.4,0.8-0.2c0.2,0.1,0.3,0.2,0.3,0.3
	c0.1,0.1,0.1,0.3,0,0.5s-0.2,0.4-0.4,0.5l-0.5-0.2c0.2-0.1,0.4-0.4,0.5-0.4v-0.1c0,0-0.2,0.1-0.3,0.1c-0.1,0.1-0.3,0.2-0.4,0.2
	c0.3,0.4,0.4,0.7,0.4,1c0,0.5,0.1,0.8,0.4,1.1c0.4,0.5,0,0.5,0.4,1.2c0-0.2,0-0.4,0-0.6h5.9v6.5c-0.2,0-0.5,0-0.7,0.3
	c0.7,0.3,1.4,0.5,2,0.7c0.1-0.4,0.2-0.6,0.4-0.9c0,0-0.9-0.1-1.4-0.1v-6.5h5.8c0,0.9-0.2,1.8-0.5,2.6c-0.3,0.8-0.7,1.6-1.3,2.3
	c-0.6,0.7-1.2,1.1-1.9,1.5c-0.2,0.1-0.3,0.4-0.4,0.6c-0.1,0.2-0.1,0.4-0.2,0.6c0.3,0.1,0.3,0.1,0.6,0.2c2,0.5,2.6,0.4,2.7,0.3l0,0
	c0.5-0.4,0.9-0.8,1.3-1.2c0.8-0.9,1.5-2,1.9-3.2c0.5-1.2,0.7-2.5,0.7-3.9C-35.5,102-35.5,101.8-35.5,101.5 M-38.3,95.5l0.2,0.3l-1,2
	l-0.4-0.5l0.2-0.3l-0.4-0.5l-0.3,0.1l-0.5-0.4L-38.3,95.5z M-39.6,94.2l0.3,0.3l-1.2,1.6l-0.5-0.3l0.6-0.8l-0.6,0.1l-0.1-0.6
	l-0.5,0.8l-0.5-0.3l1.1-1.6l0.4,0.2l0.1,0.8L-39.6,94.2z M-49.2,92.5c0-1.1,3.2-1.2,4.8-1.2l0,0l0,0c1.6,0,4.8,0.1,4.8,1.2
	c0,0.3-0.2,0.6-0.7,0.8c-0.8-0.5-2.1-1.1-4.1-1.1s-3.3,0.6-4.1,1.1C-49,93.1-49.2,92.8-49.2,92.5 M-42.4,93l-0.4,1.9l-0.6-0.1
	l0.4-1.9L-42.4,93z M-45.3,94.4l-0.2,0.5c-0.4,0.1-0.9,0-1,0c-0.5,0.1-0.9-0.2-1-0.6c-0.1-0.3-0.1-0.5,0-0.7s0.3-0.4,0.6-0.5
	c0.5-0.2,1.1,0.1,1.3,0.6c0,0.1,0.1,0.2,0.1,0.3c0,0.2-0.1,0.4-0.2,0.5C-45.6,94.5-45.4,94.5-45.3,94.4 M-49,94.2l0.4,0.4L-49,95
	c0.1,0.1,0.9,1,0.9,1l-0.4,0.4l-0.9-1l-0.4,0.4l-0.4-0.4L-49,94.2z M-50.4,95.6l1.5,1.1l-0.3,0.4l-1.5-1.1L-50.4,95.6z M-50.5,98.6
	c-0.2,0.1-0.5,0-0.7-0.1s-0.4-0.3-0.5-0.6c-0.1-0.2,0-0.5,0.1-0.8c0.1-0.2,0.3-0.4,0.6-0.5c0.2-0.1,0.5,0,0.7,0.1s0.4,0.3,0.5,0.6
	c0,0.1,0,0.2,0,0.3c0,0.2,0,0.3-0.1,0.5S-50.2,98.5-50.5,98.6 M-50.4,102.1c0-0.9,0.2-1.8,0.5-2.6c0.3-0.8,0.7-1.6,1.3-2.3
	c0.6-0.6,1.2-1.2,1.9-1.5c0.7-0.4,1.5-0.5,2.2-0.5v6.9H-50.4z M-44.4,94.7c-0.4,0-0.8-0.2-0.8-0.8v-1.2h0.6v1.1c0,0.2,0,0.2,0.1,0.2
	c0.1,0.1,0.1,0.1,0.2,0.1c0.1,0,0.2,0,0.3-0.1c0,0,0.1-0.1,0-0.2v-1.1h0.6v1.1c0,0.2-0.1,0.4-0.2,0.6
	C-43.9,94.6-44.1,94.7-44.4,94.7 M-44.2,102.1v-6.9c0.7,0,1.4,0.2,2.1,0.5c0.7,0.4,1.4,0.9,1.9,1.5c0.6,0.7,1,1.4,1.3,2.3
	c0.3,0.8,0.5,1.7,0.5,2.6H-44.2z M-39.3,109.9l-0.4-0.4l0.5-0.5l-0.1-0.1l-0.5,0.5l-0.4-0.4l0.5-0.5l-0.1-0.1l-0.5,0.5l-0.4-0.4
	l0.9-0.9l1.4,1.4L-39.3,109.9z M-37.7,108.1c-0.1,0.1-0.3,0.3-0.5,0.3l0,0l-0.5-0.4c0.6-0.2,0.6-0.3,0.6-0.4c0,0-0.1,0-0.2,0.1
	c-0.2,0.1-0.5,0.3-0.8,0c-0.1-0.1-0.2-0.2-0.3-0.4c0-0.2,0-0.3,0.1-0.5s0.3-0.3,0.5-0.4l0.5,0.4h-0.1c-0.3,0.1-0.5,0.2-0.5,0.3v0.1
	l0,0c0,0,0.2,0,0.3-0.1c0.2-0.1,0.5-0.2,0.8,0c0.1,0.1,0.2,0.2,0.3,0.4v0.1C-37.6,107.9-37.7,108-37.7,108.1 M-36.6,105.8l-1.2,0.4
	l0.9,0.4l-0.2,0.5l-1.8-0.7l0.2-0.4l1.2-0.4l-0.9-0.4l0.2-0.5l1.8,0.7L-36.6,105.8z M-36.3,104.9l-0.5-0.1l0.1-0.7h-0.1l-0.1,0.6
	l-0.5-0.1l0.1-0.6h-0.2l-0.1,0.7l-0.5-0.1l0.2-1.2l1.9,0.3L-36.3,104.9z M-36,102.6c0,0.2-0.1,0.4-0.2,0.5c-0.1,0.1-0.3,0.2-0.4,0.2
	c-0.2,0-0.3-0.1-0.4-0.2c-0.1-0.1-0.2-0.3-0.2-0.5v-0.1c-0.1,0-0.7,0-0.7,0v-0.6h1.9L-36,102.6z"/>
<path id="XMLID_343_" d="M-59.7,116C-59.7,116-59.8,116-59.7,116c-0.1,0.2,0.3,0.8,0.4,0.9l0.1-0.1c0.4-0.2,0.4-0.5,0.3-0.7
	C-59.2,115.8-59.5,115.9-59.7,116"/>
<path id="XMLID_342_" d="M-33.3,113.5L-33.3,113.5C-33.2,113.4-33.2,113.4-33.3,113.5c0.1-0.1,0.1-0.2,0-0.2l-0.2-0.1l-0.1,0.2
	c0.1,0,0.1,0.1,0.1,0.1C-33.4,113.5-33.4,113.5-33.3,113.5"/>
<path id="XMLID_341_" d="M-35.9,113.2c0.4,0.1,0.6,0,0.8-0.3c0.1-0.3,0-0.5-0.4-0.6l0,0c0,0,0,0-0.1,0
	C-35.6,112.4-35.9,113.2-35.9,113.2C-36,113.2-35.9,113.2-35.9,113.2"/>
<path id="XMLID_340_" d="M-32,115.3c0.1,0.1,0.3,0.1,0.4,0.1c0.1,0,0.2-0.1,0.3-0.2s0.1-0.2,0.1-0.4c0-0.1-0.1-0.2-0.2-0.3
	c-0.1-0.1-0.3-0.1-0.4-0.1c-0.1,0-0.2,0.1-0.3,0.2s-0.1,0.2-0.1,0.4C-32.3,115.2-32.2,115.3-32,115.3"/>
<path id="XMLID_339_" d="M-41.6,119.7c-0.1-0.1-0.2-0.1-0.4-0.1s-0.3,0.1-0.4,0.2c-0.1,0.1-0.2,0.2-0.2,0.4c0,0.2,0,0.3,0.2,0.4
	c0.1,0.1,0.2,0.1,0.4,0.1s0.3-0.1,0.4-0.2c0.1-0.1,0.2-0.2,0.2-0.4C-41.5,120-41.5,119.8-41.6,119.7"/>
<path id="XMLID_184_" d="M-28,118.2c1.1,0,2.1-1.4,3.5-2c-3.5,1-8.3-4.9-11.6-4.9c-0.9,0-2,0.4-2.5,1.6c-0.6,1.3-1.2,1.8-1.2,2.4
	c0,0.5,0.5,0.9,1.3,1.3c0.5,0.3,1,0.4,1,0.9c-1.5,0.7-4,1.2-6.9,1.2s-5.4-0.5-6.9-1.2c0-0.5,0.5-0.6,1-0.9c0.8-0.4,1.3-0.8,1.3-1.3
	c0-0.6-0.6-1-1.2-2.4c-0.5-1.3-1.6-1.6-2.5-1.6c-3.3,0-8.1,5.9-11.6,4.9c1.4,0.6,2.4,2,3.5,2c2.8,0,6.1-4.2,9.2-4.2h0.1
	c-0.7,0.9-1.7,1.1-1.7,2c0,0.6,0.5,1,0.9,1.8c0.2,0.5,0.3,0.9,0.5,1.6s0.6,2.3,7.4,2.3s7.2-1.7,7.4-2.3c0.2-0.7,0.2-1.1,0.5-1.6
	c0.4-0.8,0.9-1.2,0.9-1.8c0-0.9-1-1.1-1.7-2h0.1C-34.1,113.9-30.8,118.2-28,118.2 M-27.5,116.2l-0.3,0.5c-0.2-0.1-0.4-0.2-0.6-0.3
	c-0.2,0.3-0.7,1.1-0.8,1.3l-0.5-0.2c0,0,0.6-1,0.8-1.3c-0.2-0.1-0.4-0.2-0.6-0.3l0.3-0.5C-28.8,115.5-27.9,116-27.5,116.2
	 M-29.5,115.1l-1.1,1.8l-0.5-0.3l1.1-1.8L-29.5,115.1z M-32.1,113.8c0.3-0.1,0.6,0,0.9,0.1c0.3,0.2,0.5,0.4,0.5,0.7
	c0,0.1,0,0.2,0,0.3c0,0.2-0.1,0.4-0.2,0.5c-0.2,0.3-0.4,0.4-0.7,0.5s-0.6,0-0.9-0.1c-0.3-0.2-0.4-0.4-0.5-0.7
	c-0.1-0.3,0-0.6,0.1-0.8C-32.6,114.1-32.4,113.9-32.1,113.8 M-33,112.8L-33,112.8c0.1,0.1,0.2,0.2,0.3,0.3c0.1,0.2,0.1,0.4,0,0.6
	c-0.1,0.1-0.2,0.2-0.3,0.3c-0.1,0-0.1,0-0.2,0c0,0.1,0,0.2,0,0.3c0,0.4,0.1,0.9,0.1,0.9c-0.1-0.1-0.6-0.4-0.7-0.4l-0.1-0.6
	c0-0.2,0-0.3-0.1-0.4c-0.1,0.1-0.4,0.7-0.4,0.7l-0.5-0.3l1.1-1.9C-33.6,112.5-33.2,112.7-33,112.8 M-36.1,111.6l0.8,0.2
	c0.5,0.1,1,0.6,0.7,1.3c-0.3,0.8-0.9,0.8-1.5,0.7l-0.7-0.2L-36.1,111.6z M-59,117.3l-0.6,0.3l-1.1-1.8l0.7-0.4
	c0.2-0.1,0.4-0.2,0.6-0.2c0.2,0,0.4,0,0.5,0.1c0.2,0.1,0.3,0.2,0.4,0.4C-58.2,116.3-58.2,116.9-59,117.3 M-57.3,116.4l-1.1-1.8
	l0.5-0.3l1.1,1.8L-57.3,116.4z M-56.2,115.6l-1.1-1.8l1.2-0.8l0.3,0.5l-0.7,0.5c0,0.1,0.1,0.1,0.1,0.2l0.7-0.4l0.3,0.5l-0.7,0.4
	c0,0.1,0.1,0.1,0.1,0.2l0.7-0.5l0.3,0.5L-56.2,115.6z M-53.7,114.2c-0.6,0.3-1,0-1.2-0.4l-0.5-1.1l0.5-0.3l0.5,1.1
	c0.1,0.2,0.2,0.3,0.5,0.2c0.3-0.1,0.3-0.2,0.2-0.5l-0.5-1.2l0.6-0.2l0.5,1.2C-53,113.5-53.1,113.9-53.7,114.2 M-51.6,117.4
	c-0.8-0.4-1.3-0.9-1.3-1.4c0-0.8,1.3-1.3,1.8-2c0.8,0.1,1.8,0.5,1.8,1.2C-49.2,116-51.8,116.3-51.6,117.4 M-50.2,120.5l-0.1-2.2
	c0.3,0.1,1.1,0.3,1.4,0.4v0.6c-0.2,0-0.5-0.1-0.8-0.2c0,0,0,0.1,0,0.2c0.1,0,0.7,0.2,0.7,0.2v0.6c0,0-0.6-0.1-0.7-0.2v0.2
	c0.2,0.1,0.5,0.1,0.8,0.2v0.6C-49.3,120.9-49.9,120.7-50.2,120.5 M-46.8,119.6c-0.2,0-0.5-0.1-0.6-0.1v1.6L-48,121v-1.7
	c-0.2,0-0.4-0.1-0.6-0.1v-0.5c0.5,0.1,1.3,0.2,1.9,0.3v0.6C-46.7,119.6-46.8,119.6-46.8,119.6z M-43.4,121.3H-44v-1.2
	c-0.1,0.2-0.5,0.6-0.5,0.6s-0.4-0.4-0.5-0.6v1.2h-0.6v-2.2h0.5c0,0,0.5,0.6,0.6,0.7c0.1-0.1,0.6-0.7,0.6-0.7h0.5V121.3z
	 M-41.2,120.9c-0.2,0.2-0.5,0.3-0.9,0.3c-0.3,0-0.6-0.1-0.8-0.3c-0.2-0.2-0.3-0.5-0.3-0.8s0.1-0.6,0.3-0.8c0.2-0.2,0.5-0.3,0.8-0.3
	s0.6,0.1,0.9,0.3c0.2,0.2,0.3,0.5,0.3,0.8S-40.9,120.7-41.2,120.9 M-38.6,120.5l-0.5,0.2c0,0-0.7-0.8-0.9-0.9c0,0.2-0.1,1.2-0.1,1.2
	l-0.6,0.1l0.1-2.3l0.4-0.1l0.9,0.9c0-0.2,0.1-1.2,0.1-1.2l0.6-0.2V120.5z M-36,116c0,0.5-0.5,1-1.3,1.4c0.2-1.1-2.4-1.4-2.4-2.2
	c0-0.7,1-1.1,1.8-1.2C-37.3,114.7-36,115.1-36,116"/>
<g id="XMLID_1_">
	<path id="XMLID_70_" class="st0" d="M142,173.3h6.1v17.6c0,2,0.2,3.4,0.7,4.3c0.7,1.6,2.3,2.4,4.7,2.4s4-0.8,4.7-2.4
		c0.5-0.9,0.7-2.3,0.7-4.3v-17.6h6.1v17.6c0,3.1-0.5,5.4-1.4,7.1c-1.8,3.1-5.1,4.7-10.1,4.7s-8.3-1.6-10.1-4.7
		c-0.9-1.7-1.4-4.1-1.4-7.1V173.3z"/>
	<polygon id="XMLID_69_" class="st0" points="170.9,173.3 176.8,173.3 176.8,185.1 187.9,173.3 195.6,173.3 183.9,185.1 196.2,202 
		188.5,202 179.7,189.4 176.8,192.4 176.8,202 170.9,202 	"/>
	<path id="XMLID_66_" class="st1" d="M212.6,185c1.4-0.2,2.3-0.4,2.9-0.6c1-0.4,1.6-1.1,1.6-2.1c0-1.1-0.4-1.9-1.2-2.4
		c-0.8-0.4-2-0.7-3.5-0.7c-1.7,0-3,0.4-3.7,1.3c-0.5,0.6-0.9,1.5-1,2.6h-7c0.2-2.4,0.8-4.5,2.1-6c1.9-2.5,5.3-3.7,10-3.7
		c3.1,0,5.8,0.6,8.2,1.8s3.6,3.5,3.6,6.9v12.8c0,0.9,0,2,0.1,3.2c0.1,1,0.2,1.6,0.4,1.9s0.6,0.6,1.1,0.8v1.1h-7.9
		c-0.2-0.6-0.4-1.1-0.5-1.6s-0.2-1.1-0.2-1.7c-1,1.1-2.2,2-3.5,2.8c-1.6,0.9-3.4,1.4-5.4,1.4c-2.5,0-4.6-0.7-6.3-2.2
		c-1.7-1.4-2.5-3.5-2.5-6.1c0-3.4,1.3-5.9,4-7.5c1.5-0.8,3.6-1.4,6.5-1.8L212.6,185z M217.1,188.4c-0.5,0.3-0.9,0.5-1.4,0.7
		s-1.1,0.3-2,0.5l-1.7,0.3c-1.6,0.3-2.7,0.6-3.4,1c-1.2,0.7-1.7,1.7-1.7,3.1c0,1.2,0.4,2.1,1.1,2.7c0.7,0.6,1.6,0.8,2.6,0.8
		c1.6,0,3.1-0.5,4.4-1.4c1.3-0.9,2-2.6,2.1-5L217.1,188.4L217.1,188.4z"/>
	<rect id="XMLID_65_" x="230.2" y="164.2" class="st1" width="7.4" height="7.4"/>
	<rect id="XMLID_64_" x="230.2" y="174" class="st1" width="7.4" height="27.9"/>
	<path id="XMLID_61_" class="st1" d="M258.6,174.5c1.3,0.7,2.4,1.8,3.2,3.1v-13.3h7.4V202h-7.1v-3.9c-1,1.7-2.2,2.9-3.6,3.6
		c-1.3,0.8-3,1.1-5,1.1c-3.3,0-6-1.3-8.2-4c-2.2-2.6-3.3-6-3.3-10.2c0-4.8,1.1-8.5,3.3-11.3c2.2-2.7,5.1-4.1,8.8-4.1
		C255.7,173.4,257.3,173.7,258.6,174.5 M260.4,194.4c1.1-1.5,1.6-3.5,1.6-6c0-3.4-0.9-5.9-2.6-7.3c-1.1-0.9-2.3-1.3-3.7-1.3
		c-2.1,0-3.7,0.8-4.7,2.4s-1.5,3.6-1.5,6c0,2.6,0.5,4.6,1.5,6.2c1,1.5,2.6,2.3,4.6,2.3C257.7,196.7,259.3,195.9,260.4,194.4"/>
	<rect id="XMLID_60_" x="142" y="80.9" class="st2" width="127.2" height="75.9"/>
	<polygon id="XMLID_59_" class="st0" points="269.2,106.2 269.2,89.8 241.6,106.2 	"/>
	<polygon id="XMLID_58_" class="st0" points="192.9,80.9 156.8,80.9 192.9,102.4 	"/>
	<polygon id="XMLID_57_" class="st0" points="142,131.5 142,148 169.6,131.5 	"/>
	<polygon id="XMLID_56_" class="st0" points="218.3,80.9 218.3,102.4 254.4,80.9 	"/>
	<polygon id="XMLID_55_" class="st0" points="142,89.8 142,106.2 169.6,106.2 	"/>
	<polygon id="XMLID_54_" class="st0" points="269.2,148 269.2,131.5 241.6,131.5 	"/>
	<polygon id="XMLID_53_" class="st0" points="156.8,156.8 192.9,156.8 192.9,135.3 	"/>
	<polygon id="XMLID_52_" class="st0" points="218.3,156.8 254.4,156.8 218.3,135.3 	"/>
	<path id="XMLID_47_" class="st1" d="M174.5,106.2L142,86.8v-5.9l42.4,25.3H174.5z M236.7,131.5l32.5,19.4v5.9l-42.4-25.3
		L236.7,131.5L236.7,131.5z M218.3,105.4l41-24.5h9.9l-42.4,25.3h-8.5V105.4L218.3,105.4z M142,156.8l42.4-25.3h8.5v0.8l-41,24.5
		H142z"/>
	<polygon id="XMLID_46_" class="st1" points="198,156.8 198,126.5 142,126.5 142,111.3 198,111.3 198,80.9 213.2,80.9 213.2,111.3 
		269.2,111.3 269.2,126.5 213.2,126.5 213.2,156.8 	"/>
	<path id="XMLID_45_" class="st0" d="M141.9,212.9v-1h1.1v-1c0-0.5,0.2-0.9,0.5-1.2s0.8-0.4,1.4-0.4c0.1,0,0.2,0,0.4,0
		c0.1,0,0.2,0,0.4,0.1v0.9c-0.1,0-0.2-0.1-0.3-0.1s-0.2,0-0.3,0c-0.3,0-0.5,0.1-0.6,0.2s-0.2,0.3-0.2,0.6v0.9h1.3v1h-1.5v5.7H143
		v-5.7H141.9z"/>
	<path id="XMLID_44_" class="st0" d="M147.2,212v1.4l0,0c0.3-0.5,0.6-0.9,1-1.2s0.9-0.4,1.5-0.4v1.2c-0.4,0-0.8,0.1-1.1,0.2
		s-0.6,0.3-0.7,0.5c-0.2,0.2-0.3,0.5-0.4,0.8c-0.1,0.3-0.1,0.7-0.1,1.1v2.9h-1.1v-6.6h0.9L147.2,212L147.2,212z"/>
	<path id="XMLID_41_" class="st0" d="M150.1,213.9c0.1-0.4,0.3-0.8,0.6-1.1s0.6-0.6,1-0.7c0.4-0.2,0.9-0.3,1.4-0.3s1,0.1,1.4,0.3
		s0.7,0.4,1,0.7s0.5,0.7,0.6,1.1s0.2,0.9,0.2,1.4s-0.1,0.9-0.2,1.4c-0.1,0.4-0.3,0.8-0.6,1.1s-0.6,0.6-1,0.7
		c-0.4,0.2-0.9,0.3-1.4,0.3s-1-0.1-1.4-0.3s-0.7-0.4-1-0.7s-0.5-0.7-0.6-1.1s-0.2-0.9-0.2-1.4S150,214.3,150.1,213.9 M151.2,216.3
		c0.1,0.3,0.3,0.6,0.4,0.8c0.2,0.2,0.4,0.4,0.7,0.5s0.5,0.2,0.8,0.2s0.5-0.1,0.8-0.2s0.5-0.3,0.7-0.5s0.3-0.5,0.4-0.8
		c0.1-0.3,0.2-0.7,0.2-1.1s-0.1-0.8-0.2-1.1c-0.1-0.3-0.3-0.6-0.4-0.8c-0.2-0.2-0.4-0.4-0.7-0.5s-0.5-0.2-0.8-0.2s-0.5,0.1-0.8,0.2
		s-0.5,0.3-0.7,0.5s-0.3,0.5-0.4,0.8c-0.1,0.3-0.2,0.7-0.2,1.1C151,215.7,151.1,216,151.2,216.3"/>
	<path id="XMLID_40_" class="st0" d="M158.4,212v1l0,0c0.5-0.8,1.2-1.1,2.1-1.1c0.4,0,0.8,0.1,1.1,0.3s0.6,0.5,0.7,0.9
		c0.2-0.4,0.5-0.6,0.9-0.8s0.8-0.3,1.2-0.3c0.3,0,0.6,0,0.9,0.1c0.3,0.1,0.5,0.2,0.7,0.3c0.2,0.2,0.3,0.4,0.4,0.6
		c0.1,0.2,0.2,0.5,0.2,0.9v4.8h-1.1v-4.3c0-0.2,0-0.4-0.1-0.6c0-0.2-0.1-0.3-0.2-0.5c-0.1-0.1-0.2-0.2-0.4-0.3s-0.4-0.1-0.6-0.1
		c-0.5,0-1,0.2-1.3,0.5s-0.5,0.7-0.5,1.2v4.1h-1.1v-4.3c0-0.2,0-0.4-0.1-0.6c0-0.2-0.1-0.3-0.2-0.5c-0.1-0.1-0.2-0.2-0.4-0.3
		s-0.4-0.1-0.6-0.1c-0.3,0-0.6,0.1-0.8,0.2s-0.4,0.3-0.6,0.5c-0.1,0.2-0.2,0.4-0.3,0.6s-0.1,0.4-0.1,0.5v4.1h-1.1v-6.6h1.3
		L158.4,212L158.4,212z"/>
	<path id="XMLID_39_" class="st0" d="M174.7,212v1h-1.3v4.1c0,0.1,0,0.2,0,0.3s0.1,0.1,0.1,0.2c0.1,0,0.1,0.1,0.2,0.1
		c0.1,0,0.2,0,0.4,0h0.5v1h-0.8c-0.3,0-0.5,0-0.7-0.1c-0.2,0-0.4-0.1-0.5-0.2s-0.2-0.2-0.3-0.4s-0.1-0.4-0.1-0.7v-4.2h-1.1v-1h1.1
		v-2h1.1v2L174.7,212L174.7,212z"/>
	<path id="XMLID_38_" class="st0" d="M176.7,209.4v3.5l0,0c0.1-0.2,0.2-0.4,0.4-0.5s0.3-0.3,0.5-0.3c0.2-0.1,0.4-0.2,0.6-0.2
		c0.2,0,0.4-0.1,0.6-0.1c0.4,0,0.8,0.1,1.1,0.2s0.5,0.3,0.7,0.5s0.3,0.5,0.4,0.8c0.1,0.3,0.1,0.6,0.1,1v4.3H180v-4.5
		c0-0.4-0.1-0.7-0.4-1c-0.2-0.2-0.6-0.4-1-0.4c-0.3,0-0.6,0.1-0.9,0.2c-0.2,0.1-0.4,0.2-0.6,0.4c-0.2,0.2-0.3,0.4-0.4,0.7
		c-0.1,0.3-0.1,0.5-0.1,0.8v3.7h-1.1v-9.1L176.7,209.4L176.7,209.4z"/>
	<path id="XMLID_35_" class="st0" d="M187.2,218.2c-0.5,0.4-1.1,0.6-1.9,0.6c-0.5,0-1-0.1-1.4-0.3s-0.7-0.4-1-0.7s-0.5-0.7-0.6-1.1
		s-0.2-0.9-0.2-1.4s0.1-1,0.2-1.4c0.2-0.4,0.4-0.8,0.6-1.1c0.3-0.3,0.6-0.5,1-0.7s0.8-0.3,1.2-0.3c0.6,0,1.1,0.1,1.5,0.4
		c0.4,0.2,0.7,0.6,0.9,0.9c0.2,0.4,0.4,0.8,0.5,1.2s0.1,0.9,0.1,1.3h-4.9c0,0.3,0,0.6,0.1,0.8c0.1,0.3,0.2,0.5,0.4,0.7
		s0.4,0.4,0.7,0.5s0.6,0.2,0.9,0.2c0.5,0,0.8-0.1,1.1-0.3s0.5-0.5,0.6-1h1.1C188.1,217.2,187.7,217.8,187.2,218.2 M187,213.9
		c-0.1-0.2-0.2-0.4-0.4-0.6s-0.4-0.3-0.6-0.4c-0.2-0.1-0.5-0.1-0.7-0.1c-0.3,0-0.5,0-0.8,0.1c-0.2,0.1-0.4,0.2-0.6,0.4
		c-0.2,0.2-0.3,0.4-0.4,0.6c-0.1,0.2-0.1,0.5-0.2,0.7h3.8C187.1,214.4,187.1,214.1,187,213.9"/>
	<path id="XMLID_31_" class="st0" d="M196.5,209.4c0.2,0,0.4,0,0.6,0c0.2,0,0.4,0,0.7,0c0.2,0,0.4,0.1,0.6,0.1
		c0.2,0,0.4,0.1,0.5,0.2c0.3,0.2,0.6,0.4,0.8,0.7s0.3,0.7,0.3,1.2s-0.1,0.9-0.4,1.3c-0.2,0.4-0.6,0.6-1,0.8l0,0
		c0.6,0.1,1,0.4,1.3,0.8s0.4,0.9,0.4,1.4c0,0.3-0.1,0.7-0.2,1c-0.1,0.3-0.3,0.6-0.5,0.8s-0.5,0.4-0.9,0.6c-0.3,0.1-0.7,0.2-1.2,0.2
		h-4.4v-9.1H196.5z M196.8,213.4c0.7,0,1.2-0.1,1.5-0.4c0.3-0.2,0.5-0.6,0.5-1.1c0-0.3-0.1-0.6-0.2-0.8c-0.1-0.2-0.2-0.3-0.4-0.4
		s-0.4-0.2-0.6-0.2c-0.2,0-0.5,0-0.7,0h-2.4v2.9H196.8z M197.4,217.6c0.5,0,1-0.1,1.3-0.4s0.5-0.7,0.5-1.2c0-0.3-0.1-0.5-0.2-0.7
		c-0.1-0.2-0.3-0.4-0.4-0.5c-0.2-0.1-0.4-0.2-0.6-0.2c-0.2,0-0.5-0.1-0.7-0.1h-2.8v3.2L197.4,217.6L197.4,217.6z"/>
	<path id="XMLID_29_" class="st0" d="M202.6,212v1.4l0,0c0.3-0.5,0.6-0.9,1-1.2s0.9-0.4,1.5-0.4v1.2c-0.4,0-0.8,0.1-1.1,0.2
		s-0.6,0.3-0.7,0.5c-0.2,0.2-0.3,0.5-0.4,0.8c-0.1,0.3-0.1,0.7-0.1,1.1v2.9h-1.1v-6.6h0.9L202.6,212L202.6,212z"/>
	<path id="XMLID_26_" class="st0" d="M205.8,209.4h1.1v1.3h-1.1V209.4z M206.9,218.6h-1.1V212h1.1V218.6z"/>
	<path id="XMLID_25_" class="st0" d="M211.2,212v1h-1.3v4.1c0,0.1,0,0.2,0,0.3s0.1,0.1,0.1,0.2c0.1,0,0.1,0.1,0.2,0.1
		c0.1,0,0.2,0,0.4,0h0.5v1h-0.8c-0.3,0-0.5,0-0.7-0.1c-0.2,0-0.4-0.1-0.5-0.2s-0.2-0.2-0.3-0.4s-0.1-0.4-0.1-0.7v-4.2h-1.1v-1h1.1
		v-2h1.1v2L211.2,212L211.2,212z"/>
	<path id="XMLID_22_" class="st0" d="M212.2,209.4h1.1v1.3h-1.1V209.4z M213.2,218.6h-1.1V212h1.1V218.6z"/>
	<path id="XMLID_21_" class="st0" d="M215.6,217.1c0.1,0.2,0.2,0.3,0.4,0.4s0.4,0.2,0.6,0.2c0.2,0,0.4,0.1,0.6,0.1
		c0.2,0,0.3,0,0.5,0s0.4-0.1,0.5-0.1c0.2-0.1,0.3-0.2,0.4-0.3c0.1-0.1,0.2-0.3,0.2-0.5c0-0.3-0.1-0.5-0.3-0.6s-0.5-0.3-0.8-0.4
		s-0.7-0.2-1-0.2c-0.4-0.1-0.7-0.2-1-0.3s-0.6-0.3-0.8-0.6c-0.2-0.2-0.3-0.6-0.3-1c0-0.3,0.1-0.6,0.2-0.9c0.1-0.2,0.3-0.4,0.6-0.6
		c0.2-0.1,0.5-0.3,0.8-0.3c0.3-0.1,0.6-0.1,0.9-0.1c0.4,0,0.7,0,1,0.1s0.6,0.2,0.8,0.3c0.2,0.2,0.4,0.4,0.6,0.6
		c0.1,0.3,0.2,0.6,0.3,1h-1.1c0-0.2-0.1-0.4-0.2-0.5s-0.2-0.3-0.4-0.3c-0.1-0.1-0.3-0.1-0.5-0.2c-0.2,0-0.4-0.1-0.5-0.1
		c-0.2,0-0.3,0-0.5,0s-0.3,0.1-0.5,0.1c-0.1,0.1-0.2,0.1-0.3,0.3c-0.1,0.1-0.1,0.2-0.1,0.4s0.1,0.3,0.2,0.5c0.1,0.1,0.3,0.2,0.5,0.3
		s0.4,0.1,0.7,0.2s0.5,0.1,0.8,0.2s0.5,0.1,0.8,0.2s0.5,0.2,0.7,0.3s0.4,0.3,0.5,0.5s0.2,0.5,0.2,0.8c0,0.4-0.1,0.7-0.2,1
		c-0.2,0.3-0.4,0.5-0.7,0.6c-0.3,0.2-0.6,0.3-0.9,0.3c-0.3,0.1-0.7,0.1-1,0.1c-0.4,0-0.7,0-1-0.1s-0.6-0.2-0.9-0.4
		c-0.3-0.2-0.5-0.4-0.6-0.7c-0.2-0.3-0.2-0.6-0.3-1h1.1C215.5,216.7,215.5,216.9,215.6,217.1"/>
	<path id="XMLID_20_" class="st0" d="M222.1,209.4v3.5l0,0c0.1-0.2,0.2-0.4,0.4-0.5s0.3-0.3,0.5-0.3c0.2-0.1,0.4-0.2,0.6-0.2
		c0.2,0,0.4-0.1,0.6-0.1c0.4,0,0.8,0.1,1.1,0.2s0.5,0.3,0.7,0.5s0.3,0.5,0.4,0.8c0.1,0.3,0.1,0.6,0.1,1v4.3h-1.1v-4.5
		c0-0.4-0.1-0.7-0.4-1c-0.2-0.2-0.6-0.4-1-0.4c-0.3,0-0.6,0.1-0.9,0.2c-0.2,0.1-0.4,0.2-0.6,0.4c-0.2,0.2-0.3,0.4-0.4,0.7
		c-0.1,0.3-0.1,0.5-0.1,0.8v3.7h-1.1v-9.1L222.1,209.4L222.1,209.4z"/>
	<path id="XMLID_17_" class="st0" d="M232.8,212v0.9l0,0c0.2-0.4,0.5-0.6,0.8-0.8c0.4-0.2,0.8-0.2,1.3-0.2s1,0.1,1.3,0.3
		c0.4,0.2,0.7,0.4,0.9,0.8c0.3,0.3,0.4,0.7,0.6,1.1c0.1,0.4,0.2,0.9,0.2,1.3c0,0.5-0.1,0.9-0.2,1.3c-0.1,0.4-0.3,0.8-0.6,1.1
		s-0.6,0.6-0.9,0.7c-0.4,0.2-0.8,0.3-1.3,0.3c-0.2,0-0.3,0-0.5-0.1c-0.2,0-0.4-0.1-0.6-0.2c-0.2-0.1-0.4-0.2-0.6-0.3
		c-0.2-0.1-0.3-0.3-0.4-0.5l0,0v3.4h-1.1V212H232.8L232.8,212z M236.7,214.3c-0.1-0.3-0.2-0.6-0.4-0.8s-0.4-0.4-0.6-0.6
		c-0.3-0.1-0.6-0.2-0.9-0.2c-0.4,0-0.7,0.1-0.9,0.2c-0.3,0.1-0.5,0.3-0.6,0.6c-0.2,0.2-0.3,0.5-0.4,0.8c-0.1,0.3-0.1,0.6-0.1,0.9
		s0,0.6,0.1,0.9s0.2,0.6,0.4,0.8s0.4,0.4,0.6,0.6c0.3,0.1,0.6,0.2,1,0.2s0.7-0.1,0.9-0.2c0.3-0.1,0.5-0.3,0.6-0.6
		c0.2-0.2,0.3-0.5,0.3-0.8c0.1-0.3,0.1-0.6,0.1-0.9C236.8,214.9,236.8,214.6,236.7,214.3"/>
	<path id="XMLID_14_" class="st0" d="M243.8,218.2c-0.5,0.4-1.1,0.6-1.9,0.6c-0.5,0-1-0.1-1.4-0.3s-0.7-0.4-1-0.7s-0.5-0.7-0.6-1.1
		s-0.2-0.9-0.2-1.4s0.1-1,0.2-1.4c0.2-0.4,0.4-0.8,0.6-1.1c0.3-0.3,0.6-0.5,1-0.7s0.8-0.3,1.2-0.3c0.6,0,1.1,0.1,1.5,0.4
		c0.4,0.2,0.7,0.6,0.9,0.9c0.2,0.4,0.4,0.8,0.5,1.2s0.1,0.9,0.1,1.3h-5c0,0.3,0,0.6,0.1,0.8c0.1,0.3,0.2,0.5,0.4,0.7
		s0.4,0.4,0.7,0.5s0.6,0.2,0.9,0.2c0.5,0,0.8-0.1,1.1-0.3s0.5-0.5,0.6-1h1.1C244.6,217.2,244.3,217.8,243.8,218.2 M243.5,213.9
		c-0.1-0.2-0.2-0.4-0.4-0.6s-0.4-0.3-0.6-0.4c-0.2-0.1-0.5-0.1-0.7-0.1c-0.3,0-0.5,0-0.8,0.1c-0.2,0.1-0.4,0.2-0.6,0.4
		c-0.2,0.2-0.3,0.4-0.4,0.6c-0.1,0.2-0.1,0.5-0.2,0.7h3.8C243.7,214.4,243.6,214.1,243.5,213.9"/>
	<path id="XMLID_11_" class="st0" d="M245.7,213.9c0.1-0.4,0.3-0.8,0.6-1.1s0.6-0.6,1-0.7c0.4-0.2,0.9-0.3,1.4-0.3s1,0.1,1.4,0.3
		s0.7,0.4,1,0.7s0.5,0.7,0.6,1.1s0.2,0.9,0.2,1.4s-0.1,0.9-0.2,1.4c-0.1,0.4-0.3,0.8-0.6,1.1s-0.6,0.6-1,0.7
		c-0.4,0.2-0.9,0.3-1.4,0.3s-1-0.1-1.4-0.3s-0.7-0.4-1-0.7s-0.5-0.7-0.6-1.1s-0.2-0.9-0.2-1.4C245.5,214.8,245.6,214.3,245.7,213.9
		 M246.8,216.3c0.1,0.3,0.3,0.6,0.4,0.8c0.2,0.2,0.4,0.4,0.7,0.5s0.5,0.2,0.8,0.2s0.5-0.1,0.8-0.2s0.5-0.3,0.7-0.5s0.3-0.5,0.4-0.8
		c0.1-0.3,0.2-0.7,0.2-1.1s-0.1-0.8-0.2-1.1c-0.1-0.3-0.3-0.6-0.4-0.8c-0.2-0.2-0.4-0.4-0.7-0.5s-0.5-0.2-0.8-0.2s-0.5,0.1-0.8,0.2
		s-0.5,0.3-0.7,0.5s-0.3,0.5-0.4,0.8c-0.1,0.3-0.2,0.7-0.2,1.1C246.7,215.7,246.7,216,246.8,216.3"/>
	<path id="XMLID_8_" class="st0" d="M254.2,212v0.9l0,0c0.2-0.4,0.5-0.6,0.8-0.8c0.4-0.2,0.8-0.2,1.3-0.2c0.5,0,1,0.1,1.3,0.3
		c0.4,0.2,0.7,0.4,0.9,0.8c0.3,0.3,0.4,0.7,0.6,1.1c0.1,0.4,0.2,0.9,0.2,1.3c0,0.5-0.1,0.9-0.2,1.3c-0.1,0.4-0.3,0.8-0.6,1.1
		s-0.6,0.6-0.9,0.7c-0.4,0.2-0.8,0.3-1.3,0.3c-0.2,0-0.3,0-0.5-0.1c-0.2,0-0.4-0.1-0.6-0.2s-0.4-0.2-0.6-0.3
		c-0.2-0.1-0.3-0.3-0.4-0.5l0,0v3.4h-1.1V212H254.2L254.2,212z M258.1,214.3c-0.1-0.3-0.2-0.6-0.4-0.8c-0.2-0.2-0.4-0.4-0.6-0.6
		c-0.3-0.1-0.6-0.2-0.9-0.2c-0.4,0-0.7,0.1-0.9,0.2c-0.3,0.1-0.5,0.3-0.6,0.6c-0.2,0.2-0.3,0.5-0.4,0.8s-0.1,0.6-0.1,0.9
		s0,0.6,0.1,0.9s0.2,0.6,0.4,0.8s0.4,0.4,0.6,0.6c0.3,0.1,0.6,0.2,1,0.2c0.4,0,0.7-0.1,0.9-0.2c0.3-0.1,0.5-0.3,0.6-0.6
		c0.2-0.2,0.3-0.5,0.3-0.8c0.1-0.3,0.1-0.6,0.1-0.9S258.2,214.6,258.1,214.3"/>
	<rect id="XMLID_7_" x="260.5" y="209.4" class="st0" width="1.1" height="9.1"/>
	<path id="XMLID_4_" class="st0" d="M267.8,218.2c-0.5,0.4-1.1,0.6-1.9,0.6c-0.5,0-1-0.1-1.4-0.3c-0.4-0.2-0.7-0.4-1-0.7
		s-0.5-0.7-0.6-1.1c-0.1-0.4-0.2-0.9-0.2-1.4s0.1-1,0.2-1.4c0.2-0.4,0.4-0.8,0.6-1.1c0.3-0.3,0.6-0.5,1-0.7c0.4-0.2,0.8-0.3,1.2-0.3
		c0.6,0,1.1,0.1,1.5,0.4c0.4,0.2,0.7,0.6,0.9,0.9c0.2,0.4,0.4,0.8,0.5,1.2c0.1,0.4,0.1,0.9,0.1,1.3h-5c0,0.3,0,0.6,0.1,0.8
		c0.1,0.3,0.2,0.5,0.4,0.7c0.2,0.2,0.4,0.4,0.7,0.5c0.3,0.1,0.6,0.2,0.9,0.2c0.5,0,0.8-0.1,1.1-0.3c0.3-0.2,0.5-0.5,0.6-1h1.1
		C268.6,217.2,268.3,217.8,267.8,218.2 M267.5,213.9c-0.1-0.2-0.2-0.4-0.4-0.6c-0.2-0.2-0.4-0.3-0.6-0.4s-0.5-0.1-0.7-0.1
		c-0.3,0-0.5,0-0.8,0.1c-0.2,0.1-0.4,0.2-0.6,0.4s-0.3,0.4-0.4,0.6c-0.1,0.2-0.1,0.5-0.2,0.7h3.8
		C267.7,214.4,267.6,214.1,267.5,213.9"/>
</g>
</svg>
